G04 MADE WITH FRITZING*
G04 WWW.FRITZING.ORG*
G04 DOUBLE SIDED*
G04 HOLES PLATED*
G04 CONTOUR ON CENTER OF CONTOUR VECTOR*
%ASAXBY*%
%FSLAX23Y23*%
%MOIN*%
%OFA0B0*%
%SFA1.0B1.0*%
%ADD10C,0.010000*%
%ADD11R,0.001000X0.001000*%
%LNSILK1*%
G90*
G70*
G54D10*
X1211Y630D02*
X1411Y630D01*
D02*
X1411Y630D02*
X1411Y564D01*
D02*
X1411Y564D02*
X1211Y564D01*
D02*
X1211Y564D02*
X1211Y630D01*
D02*
X534Y887D02*
X534Y687D01*
D02*
X534Y687D02*
X468Y687D01*
D02*
X468Y687D02*
X468Y887D01*
D02*
X468Y887D02*
X534Y887D01*
D02*
X651Y947D02*
X851Y947D01*
D02*
X851Y947D02*
X851Y1047D01*
D02*
X851Y1047D02*
X651Y1047D01*
D02*
X651Y1047D02*
X651Y947D01*
G54D11*
X0Y2198D02*
X2536Y2198D01*
X0Y2197D02*
X2536Y2197D01*
X0Y2196D02*
X2536Y2196D01*
X0Y2195D02*
X2536Y2195D01*
X0Y2190D02*
X7Y2190D01*
X0Y2189D02*
X7Y2189D01*
X0Y2188D02*
X7Y2188D01*
X0Y2187D02*
X7Y2187D01*
X0Y2186D02*
X7Y2186D01*
X0Y2185D02*
X7Y2185D01*
X0Y2184D02*
X7Y2184D01*
X77Y2184D02*
X118Y2184D01*
X2529Y2184D02*
X2536Y2184D01*
X0Y2183D02*
X7Y2183D01*
X75Y2183D02*
X108Y2183D01*
X2529Y2183D02*
X2536Y2183D01*
X0Y2182D02*
X7Y2182D01*
X73Y2182D02*
X102Y2182D01*
X2529Y2182D02*
X2536Y2182D01*
X0Y2181D02*
X7Y2181D01*
X71Y2181D02*
X98Y2181D01*
X2529Y2181D02*
X2536Y2181D01*
X0Y2180D02*
X7Y2180D01*
X69Y2180D02*
X94Y2180D01*
X2529Y2180D02*
X2536Y2180D01*
X0Y2179D02*
X7Y2179D01*
X67Y2179D02*
X91Y2179D01*
X2529Y2179D02*
X2536Y2179D01*
X0Y2178D02*
X7Y2178D01*
X65Y2178D02*
X88Y2178D01*
X2529Y2178D02*
X2536Y2178D01*
X0Y2177D02*
X7Y2177D01*
X64Y2177D02*
X85Y2177D01*
X2529Y2177D02*
X2536Y2177D01*
X0Y2176D02*
X7Y2176D01*
X62Y2176D02*
X83Y2176D01*
X2529Y2176D02*
X2536Y2176D01*
X0Y2175D02*
X7Y2175D01*
X60Y2175D02*
X80Y2175D01*
X2529Y2175D02*
X2536Y2175D01*
X0Y2174D02*
X7Y2174D01*
X59Y2174D02*
X78Y2174D01*
X2529Y2174D02*
X2536Y2174D01*
X0Y2173D02*
X7Y2173D01*
X57Y2173D02*
X76Y2173D01*
X2529Y2173D02*
X2536Y2173D01*
X0Y2172D02*
X7Y2172D01*
X56Y2172D02*
X74Y2172D01*
X2529Y2172D02*
X2536Y2172D01*
X0Y2171D02*
X7Y2171D01*
X55Y2171D02*
X72Y2171D01*
X2529Y2171D02*
X2536Y2171D01*
X0Y2170D02*
X7Y2170D01*
X53Y2170D02*
X70Y2170D01*
X2529Y2170D02*
X2536Y2170D01*
X0Y2169D02*
X7Y2169D01*
X52Y2169D02*
X68Y2169D01*
X2529Y2169D02*
X2536Y2169D01*
X0Y2168D02*
X7Y2168D01*
X51Y2168D02*
X67Y2168D01*
X2529Y2168D02*
X2536Y2168D01*
X0Y2167D02*
X7Y2167D01*
X49Y2167D02*
X65Y2167D01*
X2529Y2167D02*
X2536Y2167D01*
X0Y2166D02*
X7Y2166D01*
X48Y2166D02*
X63Y2166D01*
X2529Y2166D02*
X2536Y2166D01*
X0Y2165D02*
X7Y2165D01*
X47Y2165D02*
X62Y2165D01*
X2529Y2165D02*
X2536Y2165D01*
X0Y2164D02*
X7Y2164D01*
X46Y2164D02*
X61Y2164D01*
X2529Y2164D02*
X2536Y2164D01*
X0Y2163D02*
X7Y2163D01*
X45Y2163D02*
X59Y2163D01*
X2529Y2163D02*
X2536Y2163D01*
X0Y2162D02*
X7Y2162D01*
X44Y2162D02*
X58Y2162D01*
X2529Y2162D02*
X2536Y2162D01*
X0Y2161D02*
X7Y2161D01*
X43Y2161D02*
X56Y2161D01*
X2529Y2161D02*
X2536Y2161D01*
X0Y2160D02*
X7Y2160D01*
X41Y2160D02*
X55Y2160D01*
X2529Y2160D02*
X2536Y2160D01*
X0Y2159D02*
X7Y2159D01*
X40Y2159D02*
X54Y2159D01*
X2529Y2159D02*
X2536Y2159D01*
X0Y2158D02*
X7Y2158D01*
X39Y2158D02*
X53Y2158D01*
X2529Y2158D02*
X2536Y2158D01*
X0Y2157D02*
X7Y2157D01*
X38Y2157D02*
X52Y2157D01*
X2529Y2157D02*
X2536Y2157D01*
X0Y2156D02*
X7Y2156D01*
X38Y2156D02*
X50Y2156D01*
X2529Y2156D02*
X2536Y2156D01*
X0Y2155D02*
X7Y2155D01*
X37Y2155D02*
X49Y2155D01*
X2529Y2155D02*
X2536Y2155D01*
X0Y2154D02*
X7Y2154D01*
X36Y2154D02*
X48Y2154D01*
X2529Y2154D02*
X2536Y2154D01*
X0Y2153D02*
X7Y2153D01*
X35Y2153D02*
X47Y2153D01*
X2529Y2153D02*
X2536Y2153D01*
X0Y2152D02*
X7Y2152D01*
X34Y2152D02*
X46Y2152D01*
X2529Y2152D02*
X2536Y2152D01*
X0Y2151D02*
X7Y2151D01*
X33Y2151D02*
X45Y2151D01*
X2529Y2151D02*
X2536Y2151D01*
X0Y2150D02*
X7Y2150D01*
X32Y2150D02*
X44Y2150D01*
X2529Y2150D02*
X2536Y2150D01*
X0Y2149D02*
X7Y2149D01*
X31Y2149D02*
X43Y2149D01*
X2529Y2149D02*
X2536Y2149D01*
X0Y2148D02*
X7Y2148D01*
X30Y2148D02*
X42Y2148D01*
X2529Y2148D02*
X2536Y2148D01*
X0Y2147D02*
X7Y2147D01*
X30Y2147D02*
X41Y2147D01*
X2529Y2147D02*
X2536Y2147D01*
X0Y2146D02*
X7Y2146D01*
X29Y2146D02*
X40Y2146D01*
X2529Y2146D02*
X2536Y2146D01*
X0Y2145D02*
X7Y2145D01*
X28Y2145D02*
X40Y2145D01*
X2529Y2145D02*
X2536Y2145D01*
X0Y2144D02*
X7Y2144D01*
X27Y2144D02*
X39Y2144D01*
X2529Y2144D02*
X2536Y2144D01*
X0Y2143D02*
X7Y2143D01*
X27Y2143D02*
X38Y2143D01*
X2529Y2143D02*
X2536Y2143D01*
X0Y2142D02*
X7Y2142D01*
X26Y2142D02*
X37Y2142D01*
X2529Y2142D02*
X2536Y2142D01*
X0Y2141D02*
X7Y2141D01*
X25Y2141D02*
X36Y2141D01*
X2529Y2141D02*
X2536Y2141D01*
X0Y2140D02*
X7Y2140D01*
X25Y2140D02*
X36Y2140D01*
X2529Y2140D02*
X2536Y2140D01*
X0Y2139D02*
X7Y2139D01*
X24Y2139D02*
X35Y2139D01*
X2529Y2139D02*
X2536Y2139D01*
X0Y2138D02*
X7Y2138D01*
X23Y2138D02*
X34Y2138D01*
X2529Y2138D02*
X2536Y2138D01*
X0Y2137D02*
X7Y2137D01*
X23Y2137D02*
X33Y2137D01*
X2529Y2137D02*
X2536Y2137D01*
X0Y2136D02*
X7Y2136D01*
X22Y2136D02*
X33Y2136D01*
X2529Y2136D02*
X2536Y2136D01*
X0Y2135D02*
X7Y2135D01*
X21Y2135D02*
X32Y2135D01*
X2529Y2135D02*
X2536Y2135D01*
X0Y2134D02*
X7Y2134D01*
X21Y2134D02*
X31Y2134D01*
X2529Y2134D02*
X2536Y2134D01*
X0Y2133D02*
X7Y2133D01*
X20Y2133D02*
X31Y2133D01*
X2529Y2133D02*
X2536Y2133D01*
X0Y2132D02*
X7Y2132D01*
X20Y2132D02*
X30Y2132D01*
X2529Y2132D02*
X2536Y2132D01*
X0Y2131D02*
X7Y2131D01*
X19Y2131D02*
X29Y2131D01*
X2529Y2131D02*
X2536Y2131D01*
X0Y2130D02*
X7Y2130D01*
X18Y2130D02*
X29Y2130D01*
X2529Y2130D02*
X2536Y2130D01*
X0Y2129D02*
X7Y2129D01*
X18Y2129D02*
X28Y2129D01*
X2529Y2129D02*
X2536Y2129D01*
X0Y2128D02*
X7Y2128D01*
X17Y2128D02*
X28Y2128D01*
X2529Y2128D02*
X2536Y2128D01*
X0Y2127D02*
X7Y2127D01*
X17Y2127D02*
X27Y2127D01*
X2529Y2127D02*
X2536Y2127D01*
X0Y2126D02*
X7Y2126D01*
X16Y2126D02*
X26Y2126D01*
X2529Y2126D02*
X2536Y2126D01*
X0Y2125D02*
X7Y2125D01*
X16Y2125D02*
X26Y2125D01*
X2529Y2125D02*
X2536Y2125D01*
X0Y2124D02*
X7Y2124D01*
X15Y2124D02*
X25Y2124D01*
X2529Y2124D02*
X2536Y2124D01*
X0Y2123D02*
X7Y2123D01*
X15Y2123D02*
X25Y2123D01*
X2529Y2123D02*
X2536Y2123D01*
X0Y2122D02*
X7Y2122D01*
X14Y2122D02*
X24Y2122D01*
X2529Y2122D02*
X2536Y2122D01*
X0Y2121D02*
X7Y2121D01*
X14Y2121D02*
X24Y2121D01*
X2529Y2121D02*
X2536Y2121D01*
X0Y2120D02*
X7Y2120D01*
X13Y2120D02*
X23Y2120D01*
X2529Y2120D02*
X2536Y2120D01*
X0Y2119D02*
X7Y2119D01*
X13Y2119D02*
X23Y2119D01*
X2529Y2119D02*
X2536Y2119D01*
X0Y2118D02*
X7Y2118D01*
X13Y2118D02*
X22Y2118D01*
X2529Y2118D02*
X2536Y2118D01*
X0Y2117D02*
X7Y2117D01*
X12Y2117D02*
X22Y2117D01*
X2529Y2117D02*
X2536Y2117D01*
X0Y2116D02*
X7Y2116D01*
X12Y2116D02*
X22Y2116D01*
X2529Y2116D02*
X2536Y2116D01*
X0Y2115D02*
X7Y2115D01*
X11Y2115D02*
X21Y2115D01*
X2529Y2115D02*
X2536Y2115D01*
X0Y2114D02*
X7Y2114D01*
X11Y2114D02*
X21Y2114D01*
X2529Y2114D02*
X2536Y2114D01*
X0Y2113D02*
X7Y2113D01*
X11Y2113D02*
X20Y2113D01*
X2529Y2113D02*
X2536Y2113D01*
X0Y2112D02*
X7Y2112D01*
X10Y2112D02*
X20Y2112D01*
X2529Y2112D02*
X2536Y2112D01*
X0Y2111D02*
X7Y2111D01*
X10Y2111D02*
X20Y2111D01*
X145Y2111D02*
X147Y2111D01*
X2426Y2111D02*
X2431Y2111D01*
X2529Y2111D02*
X2536Y2111D01*
X0Y2110D02*
X7Y2110D01*
X10Y2110D02*
X19Y2110D01*
X135Y2110D02*
X156Y2110D01*
X2418Y2110D02*
X2439Y2110D01*
X2529Y2110D02*
X2536Y2110D01*
X0Y2109D02*
X7Y2109D01*
X9Y2109D02*
X19Y2109D01*
X131Y2109D02*
X160Y2109D01*
X2414Y2109D02*
X2443Y2109D01*
X2529Y2109D02*
X2536Y2109D01*
X0Y2108D02*
X7Y2108D01*
X9Y2108D02*
X19Y2108D01*
X128Y2108D02*
X163Y2108D01*
X2411Y2108D02*
X2446Y2108D01*
X2529Y2108D02*
X2536Y2108D01*
X0Y2107D02*
X7Y2107D01*
X9Y2107D02*
X18Y2107D01*
X125Y2107D02*
X166Y2107D01*
X2408Y2107D02*
X2449Y2107D01*
X2529Y2107D02*
X2536Y2107D01*
X0Y2106D02*
X18Y2106D01*
X123Y2106D02*
X169Y2106D01*
X2406Y2106D02*
X2452Y2106D01*
X2529Y2106D02*
X2536Y2106D01*
X0Y2105D02*
X18Y2105D01*
X121Y2105D02*
X171Y2105D01*
X2403Y2105D02*
X2454Y2105D01*
X2529Y2105D02*
X2536Y2105D01*
X0Y2104D02*
X17Y2104D01*
X119Y2104D02*
X173Y2104D01*
X2401Y2104D02*
X2456Y2104D01*
X2529Y2104D02*
X2536Y2104D01*
X0Y2103D02*
X17Y2103D01*
X117Y2103D02*
X174Y2103D01*
X2400Y2103D02*
X2457Y2103D01*
X2529Y2103D02*
X2536Y2103D01*
X0Y2102D02*
X17Y2102D01*
X115Y2102D02*
X176Y2102D01*
X2398Y2102D02*
X2459Y2102D01*
X2529Y2102D02*
X2536Y2102D01*
X0Y2101D02*
X16Y2101D01*
X114Y2101D02*
X178Y2101D01*
X2397Y2101D02*
X2460Y2101D01*
X2529Y2101D02*
X2536Y2101D01*
X0Y2100D02*
X16Y2100D01*
X112Y2100D02*
X137Y2100D01*
X154Y2100D02*
X179Y2100D01*
X2395Y2100D02*
X2420Y2100D01*
X2437Y2100D02*
X2462Y2100D01*
X2529Y2100D02*
X2536Y2100D01*
X0Y2099D02*
X16Y2099D01*
X111Y2099D02*
X132Y2099D01*
X159Y2099D02*
X180Y2099D01*
X2394Y2099D02*
X2415Y2099D01*
X2442Y2099D02*
X2463Y2099D01*
X2529Y2099D02*
X2536Y2099D01*
X0Y2098D02*
X16Y2098D01*
X110Y2098D02*
X129Y2098D01*
X162Y2098D02*
X182Y2098D01*
X2392Y2098D02*
X2412Y2098D01*
X2445Y2098D02*
X2465Y2098D01*
X2529Y2098D02*
X2536Y2098D01*
X0Y2097D02*
X15Y2097D01*
X108Y2097D02*
X126Y2097D01*
X165Y2097D02*
X183Y2097D01*
X2391Y2097D02*
X2409Y2097D01*
X2448Y2097D02*
X2466Y2097D01*
X2529Y2097D02*
X2536Y2097D01*
X0Y2096D02*
X15Y2096D01*
X107Y2096D02*
X124Y2096D01*
X167Y2096D02*
X184Y2096D01*
X2390Y2096D02*
X2407Y2096D01*
X2450Y2096D02*
X2467Y2096D01*
X2529Y2096D02*
X2536Y2096D01*
X0Y2095D02*
X15Y2095D01*
X106Y2095D02*
X122Y2095D01*
X170Y2095D02*
X185Y2095D01*
X2389Y2095D02*
X2405Y2095D01*
X2452Y2095D02*
X2468Y2095D01*
X2529Y2095D02*
X2536Y2095D01*
X0Y2094D02*
X15Y2094D01*
X105Y2094D02*
X120Y2094D01*
X171Y2094D02*
X186Y2094D01*
X2388Y2094D02*
X2403Y2094D01*
X2454Y2094D02*
X2469Y2094D01*
X2529Y2094D02*
X2536Y2094D01*
X0Y2093D02*
X15Y2093D01*
X104Y2093D02*
X118Y2093D01*
X173Y2093D02*
X187Y2093D01*
X2387Y2093D02*
X2401Y2093D01*
X2456Y2093D02*
X2470Y2093D01*
X2529Y2093D02*
X2536Y2093D01*
X0Y2092D02*
X14Y2092D01*
X103Y2092D02*
X117Y2092D01*
X174Y2092D02*
X188Y2092D01*
X2386Y2092D02*
X2400Y2092D01*
X2457Y2092D02*
X2471Y2092D01*
X2529Y2092D02*
X2536Y2092D01*
X0Y2091D02*
X14Y2091D01*
X102Y2091D02*
X115Y2091D01*
X176Y2091D02*
X189Y2091D01*
X2385Y2091D02*
X2398Y2091D01*
X2459Y2091D02*
X2472Y2091D01*
X2529Y2091D02*
X2536Y2091D01*
X0Y2090D02*
X14Y2090D01*
X101Y2090D02*
X114Y2090D01*
X177Y2090D02*
X190Y2090D01*
X2384Y2090D02*
X2397Y2090D01*
X2460Y2090D02*
X2473Y2090D01*
X2529Y2090D02*
X2536Y2090D01*
X0Y2089D02*
X14Y2089D01*
X100Y2089D02*
X113Y2089D01*
X178Y2089D02*
X191Y2089D01*
X2383Y2089D02*
X2396Y2089D01*
X2461Y2089D02*
X2474Y2089D01*
X2529Y2089D02*
X2536Y2089D01*
X0Y2088D02*
X14Y2088D01*
X100Y2088D02*
X112Y2088D01*
X179Y2088D02*
X192Y2088D01*
X2382Y2088D02*
X2395Y2088D01*
X2462Y2088D02*
X2474Y2088D01*
X2529Y2088D02*
X2536Y2088D01*
X0Y2087D02*
X14Y2087D01*
X99Y2087D02*
X111Y2087D01*
X181Y2087D02*
X192Y2087D01*
X2382Y2087D02*
X2394Y2087D01*
X2463Y2087D02*
X2475Y2087D01*
X2529Y2087D02*
X2536Y2087D01*
X0Y2086D02*
X14Y2086D01*
X98Y2086D02*
X110Y2086D01*
X182Y2086D02*
X193Y2086D01*
X2381Y2086D02*
X2393Y2086D01*
X2464Y2086D02*
X2476Y2086D01*
X2529Y2086D02*
X2536Y2086D01*
X0Y2085D02*
X13Y2085D01*
X97Y2085D02*
X109Y2085D01*
X182Y2085D02*
X194Y2085D01*
X2380Y2085D02*
X2392Y2085D01*
X2465Y2085D02*
X2477Y2085D01*
X2529Y2085D02*
X2536Y2085D01*
X0Y2084D02*
X13Y2084D01*
X97Y2084D02*
X108Y2084D01*
X183Y2084D02*
X195Y2084D01*
X2380Y2084D02*
X2391Y2084D01*
X2466Y2084D02*
X2477Y2084D01*
X2529Y2084D02*
X2536Y2084D01*
X0Y2083D02*
X13Y2083D01*
X96Y2083D02*
X107Y2083D01*
X184Y2083D02*
X195Y2083D01*
X2379Y2083D02*
X2390Y2083D01*
X2467Y2083D02*
X2478Y2083D01*
X2529Y2083D02*
X2536Y2083D01*
X0Y2082D02*
X13Y2082D01*
X96Y2082D02*
X106Y2082D01*
X185Y2082D02*
X196Y2082D01*
X2378Y2082D02*
X2389Y2082D01*
X2468Y2082D02*
X2479Y2082D01*
X2529Y2082D02*
X2536Y2082D01*
X0Y2081D02*
X13Y2081D01*
X95Y2081D02*
X106Y2081D01*
X186Y2081D02*
X196Y2081D01*
X2378Y2081D02*
X2388Y2081D01*
X2469Y2081D02*
X2479Y2081D01*
X2529Y2081D02*
X2536Y2081D01*
X0Y2080D02*
X13Y2080D01*
X94Y2080D02*
X105Y2080D01*
X186Y2080D02*
X197Y2080D01*
X2377Y2080D02*
X2388Y2080D01*
X2469Y2080D02*
X2480Y2080D01*
X2529Y2080D02*
X2536Y2080D01*
X0Y2079D02*
X13Y2079D01*
X94Y2079D02*
X104Y2079D01*
X187Y2079D02*
X198Y2079D01*
X2377Y2079D02*
X2387Y2079D01*
X2470Y2079D02*
X2480Y2079D01*
X2529Y2079D02*
X2536Y2079D01*
X0Y2078D02*
X13Y2078D01*
X93Y2078D02*
X104Y2078D01*
X188Y2078D02*
X198Y2078D01*
X2376Y2078D02*
X2386Y2078D01*
X2471Y2078D02*
X2481Y2078D01*
X2529Y2078D02*
X2536Y2078D01*
X0Y2077D02*
X13Y2077D01*
X93Y2077D02*
X103Y2077D01*
X188Y2077D02*
X198Y2077D01*
X2376Y2077D02*
X2386Y2077D01*
X2471Y2077D02*
X2481Y2077D01*
X2529Y2077D02*
X2536Y2077D01*
X0Y2076D02*
X13Y2076D01*
X92Y2076D02*
X102Y2076D01*
X189Y2076D02*
X199Y2076D01*
X2375Y2076D02*
X2385Y2076D01*
X2472Y2076D02*
X2482Y2076D01*
X2529Y2076D02*
X2536Y2076D01*
X0Y2075D02*
X13Y2075D01*
X92Y2075D02*
X102Y2075D01*
X189Y2075D02*
X199Y2075D01*
X2375Y2075D02*
X2385Y2075D01*
X2472Y2075D02*
X2482Y2075D01*
X2529Y2075D02*
X2536Y2075D01*
X0Y2074D02*
X13Y2074D01*
X91Y2074D02*
X101Y2074D01*
X190Y2074D02*
X200Y2074D01*
X2374Y2074D02*
X2384Y2074D01*
X2473Y2074D02*
X2483Y2074D01*
X2529Y2074D02*
X2536Y2074D01*
X0Y2073D02*
X13Y2073D01*
X91Y2073D02*
X101Y2073D01*
X190Y2073D02*
X200Y2073D01*
X2374Y2073D02*
X2384Y2073D01*
X2473Y2073D02*
X2483Y2073D01*
X2529Y2073D02*
X2536Y2073D01*
X0Y2072D02*
X13Y2072D01*
X91Y2072D02*
X100Y2072D01*
X191Y2072D02*
X201Y2072D01*
X2373Y2072D02*
X2383Y2072D01*
X2474Y2072D02*
X2484Y2072D01*
X2529Y2072D02*
X2536Y2072D01*
X0Y2071D02*
X13Y2071D01*
X90Y2071D02*
X100Y2071D01*
X191Y2071D02*
X201Y2071D01*
X2373Y2071D02*
X2383Y2071D01*
X2474Y2071D02*
X2484Y2071D01*
X2529Y2071D02*
X2536Y2071D01*
X0Y2070D02*
X13Y2070D01*
X90Y2070D02*
X100Y2070D01*
X192Y2070D02*
X201Y2070D01*
X2373Y2070D02*
X2382Y2070D01*
X2475Y2070D02*
X2484Y2070D01*
X2529Y2070D02*
X2536Y2070D01*
X0Y2069D02*
X13Y2069D01*
X90Y2069D02*
X99Y2069D01*
X192Y2069D02*
X202Y2069D01*
X2372Y2069D02*
X2382Y2069D01*
X2475Y2069D02*
X2485Y2069D01*
X2529Y2069D02*
X2536Y2069D01*
X0Y2068D02*
X13Y2068D01*
X89Y2068D02*
X99Y2068D01*
X192Y2068D02*
X202Y2068D01*
X2372Y2068D02*
X2382Y2068D01*
X2475Y2068D02*
X2485Y2068D01*
X2529Y2068D02*
X2536Y2068D01*
X0Y2067D02*
X13Y2067D01*
X89Y2067D02*
X99Y2067D01*
X193Y2067D02*
X202Y2067D01*
X2372Y2067D02*
X2381Y2067D01*
X2476Y2067D02*
X2485Y2067D01*
X2529Y2067D02*
X2536Y2067D01*
X0Y2066D02*
X13Y2066D01*
X89Y2066D02*
X98Y2066D01*
X193Y2066D02*
X203Y2066D01*
X2371Y2066D02*
X2381Y2066D01*
X2476Y2066D02*
X2485Y2066D01*
X2529Y2066D02*
X2536Y2066D01*
X0Y2065D02*
X13Y2065D01*
X88Y2065D02*
X98Y2065D01*
X193Y2065D02*
X203Y2065D01*
X2371Y2065D02*
X2381Y2065D01*
X2476Y2065D02*
X2486Y2065D01*
X2529Y2065D02*
X2536Y2065D01*
X0Y2064D02*
X13Y2064D01*
X88Y2064D02*
X98Y2064D01*
X194Y2064D02*
X203Y2064D01*
X2371Y2064D02*
X2381Y2064D01*
X2476Y2064D02*
X2486Y2064D01*
X2529Y2064D02*
X2536Y2064D01*
X0Y2063D02*
X13Y2063D01*
X88Y2063D02*
X97Y2063D01*
X194Y2063D02*
X203Y2063D01*
X2371Y2063D02*
X2380Y2063D01*
X2477Y2063D02*
X2486Y2063D01*
X2529Y2063D02*
X2536Y2063D01*
X0Y2062D02*
X13Y2062D01*
X88Y2062D02*
X97Y2062D01*
X194Y2062D02*
X203Y2062D01*
X2371Y2062D02*
X2380Y2062D01*
X2477Y2062D02*
X2486Y2062D01*
X2529Y2062D02*
X2536Y2062D01*
X0Y2061D02*
X13Y2061D01*
X88Y2061D02*
X97Y2061D01*
X194Y2061D02*
X204Y2061D01*
X2370Y2061D02*
X2380Y2061D01*
X2477Y2061D02*
X2487Y2061D01*
X2529Y2061D02*
X2536Y2061D01*
X0Y2060D02*
X13Y2060D01*
X87Y2060D02*
X97Y2060D01*
X194Y2060D02*
X204Y2060D01*
X2370Y2060D02*
X2380Y2060D01*
X2477Y2060D02*
X2487Y2060D01*
X2529Y2060D02*
X2536Y2060D01*
X0Y2059D02*
X13Y2059D01*
X87Y2059D02*
X97Y2059D01*
X194Y2059D02*
X204Y2059D01*
X2370Y2059D02*
X2380Y2059D01*
X2477Y2059D02*
X2487Y2059D01*
X2529Y2059D02*
X2536Y2059D01*
X0Y2058D02*
X13Y2058D01*
X87Y2058D02*
X97Y2058D01*
X195Y2058D02*
X204Y2058D01*
X2370Y2058D02*
X2379Y2058D01*
X2478Y2058D02*
X2487Y2058D01*
X2529Y2058D02*
X2536Y2058D01*
X0Y2057D02*
X13Y2057D01*
X87Y2057D02*
X97Y2057D01*
X195Y2057D02*
X204Y2057D01*
X2370Y2057D02*
X2379Y2057D01*
X2478Y2057D02*
X2487Y2057D01*
X2529Y2057D02*
X2536Y2057D01*
X0Y2056D02*
X13Y2056D01*
X87Y2056D02*
X96Y2056D01*
X195Y2056D02*
X204Y2056D01*
X2370Y2056D02*
X2379Y2056D01*
X2478Y2056D02*
X2487Y2056D01*
X2529Y2056D02*
X2536Y2056D01*
X0Y2055D02*
X13Y2055D01*
X87Y2055D02*
X96Y2055D01*
X195Y2055D02*
X204Y2055D01*
X2370Y2055D02*
X2379Y2055D01*
X2478Y2055D02*
X2487Y2055D01*
X2529Y2055D02*
X2536Y2055D01*
X0Y2054D02*
X13Y2054D01*
X87Y2054D02*
X96Y2054D01*
X195Y2054D02*
X204Y2054D01*
X2370Y2054D02*
X2379Y2054D01*
X2478Y2054D02*
X2487Y2054D01*
X2529Y2054D02*
X2536Y2054D01*
X0Y2053D02*
X13Y2053D01*
X87Y2053D02*
X96Y2053D01*
X195Y2053D02*
X204Y2053D01*
X2370Y2053D02*
X2379Y2053D01*
X2478Y2053D02*
X2487Y2053D01*
X2529Y2053D02*
X2536Y2053D01*
X0Y2052D02*
X13Y2052D01*
X87Y2052D02*
X96Y2052D01*
X195Y2052D02*
X204Y2052D01*
X2370Y2052D02*
X2379Y2052D01*
X2478Y2052D02*
X2487Y2052D01*
X2529Y2052D02*
X2536Y2052D01*
X0Y2051D02*
X13Y2051D01*
X87Y2051D02*
X96Y2051D01*
X195Y2051D02*
X204Y2051D01*
X2370Y2051D02*
X2379Y2051D01*
X2478Y2051D02*
X2487Y2051D01*
X2529Y2051D02*
X2536Y2051D01*
X0Y2050D02*
X13Y2050D01*
X87Y2050D02*
X96Y2050D01*
X195Y2050D02*
X204Y2050D01*
X2370Y2050D02*
X2379Y2050D01*
X2478Y2050D02*
X2487Y2050D01*
X2529Y2050D02*
X2536Y2050D01*
X0Y2049D02*
X13Y2049D01*
X87Y2049D02*
X96Y2049D01*
X195Y2049D02*
X204Y2049D01*
X2370Y2049D02*
X2379Y2049D01*
X2478Y2049D02*
X2487Y2049D01*
X2529Y2049D02*
X2536Y2049D01*
X0Y2048D02*
X13Y2048D01*
X87Y2048D02*
X96Y2048D01*
X195Y2048D02*
X204Y2048D01*
X2370Y2048D02*
X2379Y2048D01*
X2478Y2048D02*
X2487Y2048D01*
X2529Y2048D02*
X2536Y2048D01*
X0Y2047D02*
X13Y2047D01*
X87Y2047D02*
X96Y2047D01*
X195Y2047D02*
X204Y2047D01*
X2370Y2047D02*
X2379Y2047D01*
X2478Y2047D02*
X2487Y2047D01*
X2529Y2047D02*
X2536Y2047D01*
X0Y2046D02*
X13Y2046D01*
X87Y2046D02*
X97Y2046D01*
X195Y2046D02*
X204Y2046D01*
X2370Y2046D02*
X2379Y2046D01*
X2478Y2046D02*
X2487Y2046D01*
X2529Y2046D02*
X2536Y2046D01*
X0Y2045D02*
X13Y2045D01*
X87Y2045D02*
X97Y2045D01*
X195Y2045D02*
X204Y2045D01*
X2370Y2045D02*
X2380Y2045D01*
X2477Y2045D02*
X2487Y2045D01*
X2529Y2045D02*
X2536Y2045D01*
X0Y2044D02*
X13Y2044D01*
X87Y2044D02*
X97Y2044D01*
X194Y2044D02*
X204Y2044D01*
X2370Y2044D02*
X2380Y2044D01*
X2477Y2044D02*
X2487Y2044D01*
X2529Y2044D02*
X2536Y2044D01*
X0Y2043D02*
X13Y2043D01*
X88Y2043D02*
X97Y2043D01*
X194Y2043D02*
X204Y2043D01*
X2370Y2043D02*
X2380Y2043D01*
X2477Y2043D02*
X2487Y2043D01*
X2529Y2043D02*
X2536Y2043D01*
X0Y2042D02*
X13Y2042D01*
X88Y2042D02*
X97Y2042D01*
X194Y2042D02*
X204Y2042D01*
X2371Y2042D02*
X2380Y2042D01*
X2477Y2042D02*
X2486Y2042D01*
X2529Y2042D02*
X2536Y2042D01*
X0Y2041D02*
X13Y2041D01*
X88Y2041D02*
X97Y2041D01*
X194Y2041D02*
X203Y2041D01*
X2371Y2041D02*
X2380Y2041D01*
X2477Y2041D02*
X2486Y2041D01*
X2529Y2041D02*
X2536Y2041D01*
X0Y2040D02*
X13Y2040D01*
X88Y2040D02*
X98Y2040D01*
X194Y2040D02*
X203Y2040D01*
X2371Y2040D02*
X2380Y2040D01*
X2477Y2040D02*
X2486Y2040D01*
X2529Y2040D02*
X2536Y2040D01*
X0Y2039D02*
X13Y2039D01*
X88Y2039D02*
X98Y2039D01*
X193Y2039D02*
X203Y2039D01*
X2371Y2039D02*
X2381Y2039D01*
X2476Y2039D02*
X2486Y2039D01*
X2529Y2039D02*
X2536Y2039D01*
X0Y2038D02*
X13Y2038D01*
X89Y2038D02*
X98Y2038D01*
X193Y2038D02*
X203Y2038D01*
X2371Y2038D02*
X2381Y2038D01*
X2476Y2038D02*
X2486Y2038D01*
X2529Y2038D02*
X2536Y2038D01*
X0Y2037D02*
X13Y2037D01*
X89Y2037D02*
X98Y2037D01*
X193Y2037D02*
X202Y2037D01*
X2372Y2037D02*
X2381Y2037D01*
X2476Y2037D02*
X2485Y2037D01*
X2529Y2037D02*
X2536Y2037D01*
X0Y2036D02*
X13Y2036D01*
X89Y2036D02*
X99Y2036D01*
X193Y2036D02*
X202Y2036D01*
X2372Y2036D02*
X2382Y2036D01*
X2475Y2036D02*
X2485Y2036D01*
X2529Y2036D02*
X2536Y2036D01*
X0Y2035D02*
X13Y2035D01*
X89Y2035D02*
X99Y2035D01*
X192Y2035D02*
X202Y2035D01*
X2372Y2035D02*
X2382Y2035D01*
X2475Y2035D02*
X2485Y2035D01*
X2529Y2035D02*
X2536Y2035D01*
X0Y2034D02*
X13Y2034D01*
X90Y2034D02*
X99Y2034D01*
X192Y2034D02*
X202Y2034D01*
X2373Y2034D02*
X2382Y2034D01*
X2475Y2034D02*
X2484Y2034D01*
X2529Y2034D02*
X2536Y2034D01*
X0Y2033D02*
X13Y2033D01*
X90Y2033D02*
X100Y2033D01*
X191Y2033D02*
X201Y2033D01*
X2373Y2033D02*
X2383Y2033D01*
X2474Y2033D02*
X2484Y2033D01*
X2529Y2033D02*
X2536Y2033D01*
X0Y2032D02*
X13Y2032D01*
X90Y2032D02*
X100Y2032D01*
X191Y2032D02*
X201Y2032D01*
X2373Y2032D02*
X2383Y2032D01*
X2474Y2032D02*
X2484Y2032D01*
X2529Y2032D02*
X2536Y2032D01*
X0Y2031D02*
X13Y2031D01*
X91Y2031D02*
X101Y2031D01*
X191Y2031D02*
X200Y2031D01*
X2374Y2031D02*
X2383Y2031D01*
X2474Y2031D02*
X2483Y2031D01*
X2529Y2031D02*
X2536Y2031D01*
X0Y2030D02*
X13Y2030D01*
X91Y2030D02*
X101Y2030D01*
X190Y2030D02*
X200Y2030D01*
X2374Y2030D02*
X2384Y2030D01*
X2473Y2030D02*
X2483Y2030D01*
X2529Y2030D02*
X2536Y2030D01*
X0Y2029D02*
X13Y2029D01*
X92Y2029D02*
X102Y2029D01*
X190Y2029D02*
X200Y2029D01*
X2374Y2029D02*
X2384Y2029D01*
X2473Y2029D02*
X2483Y2029D01*
X2529Y2029D02*
X2536Y2029D01*
X0Y2028D02*
X13Y2028D01*
X92Y2028D02*
X102Y2028D01*
X189Y2028D02*
X199Y2028D01*
X2375Y2028D02*
X2385Y2028D01*
X2472Y2028D02*
X2482Y2028D01*
X2529Y2028D02*
X2536Y2028D01*
X0Y2027D02*
X13Y2027D01*
X93Y2027D02*
X103Y2027D01*
X189Y2027D02*
X199Y2027D01*
X2375Y2027D02*
X2385Y2027D01*
X2472Y2027D02*
X2482Y2027D01*
X2529Y2027D02*
X2536Y2027D01*
X0Y2026D02*
X13Y2026D01*
X93Y2026D02*
X103Y2026D01*
X188Y2026D02*
X198Y2026D01*
X2376Y2026D02*
X2386Y2026D01*
X2471Y2026D02*
X2481Y2026D01*
X2529Y2026D02*
X2536Y2026D01*
X0Y2025D02*
X13Y2025D01*
X94Y2025D02*
X104Y2025D01*
X187Y2025D02*
X198Y2025D01*
X2376Y2025D02*
X2387Y2025D01*
X2470Y2025D02*
X2481Y2025D01*
X2529Y2025D02*
X2536Y2025D01*
X0Y2024D02*
X13Y2024D01*
X94Y2024D02*
X104Y2024D01*
X187Y2024D02*
X197Y2024D01*
X2377Y2024D02*
X2387Y2024D01*
X2470Y2024D02*
X2480Y2024D01*
X2529Y2024D02*
X2536Y2024D01*
X0Y2023D02*
X13Y2023D01*
X95Y2023D02*
X105Y2023D01*
X186Y2023D02*
X197Y2023D01*
X2377Y2023D02*
X2388Y2023D01*
X2469Y2023D02*
X2480Y2023D01*
X2529Y2023D02*
X2536Y2023D01*
X0Y2022D02*
X13Y2022D01*
X95Y2022D02*
X106Y2022D01*
X185Y2022D02*
X196Y2022D01*
X2378Y2022D02*
X2389Y2022D01*
X2468Y2022D02*
X2479Y2022D01*
X2529Y2022D02*
X2536Y2022D01*
X0Y2021D02*
X13Y2021D01*
X96Y2021D02*
X107Y2021D01*
X185Y2021D02*
X195Y2021D01*
X2379Y2021D02*
X2390Y2021D01*
X2467Y2021D02*
X2478Y2021D01*
X2529Y2021D02*
X2536Y2021D01*
X0Y2020D02*
X13Y2020D01*
X96Y2020D02*
X107Y2020D01*
X184Y2020D02*
X195Y2020D01*
X2379Y2020D02*
X2390Y2020D01*
X2467Y2020D02*
X2478Y2020D01*
X2529Y2020D02*
X2536Y2020D01*
X0Y2019D02*
X13Y2019D01*
X97Y2019D02*
X108Y2019D01*
X183Y2019D02*
X194Y2019D01*
X2380Y2019D02*
X2391Y2019D01*
X2466Y2019D02*
X2477Y2019D01*
X2529Y2019D02*
X2536Y2019D01*
X0Y2018D02*
X13Y2018D01*
X98Y2018D02*
X109Y2018D01*
X182Y2018D02*
X193Y2018D01*
X2381Y2018D02*
X2392Y2018D01*
X2465Y2018D02*
X2476Y2018D01*
X2529Y2018D02*
X2536Y2018D01*
X0Y2017D02*
X13Y2017D01*
X99Y2017D02*
X110Y2017D01*
X181Y2017D02*
X193Y2017D01*
X2381Y2017D02*
X2393Y2017D01*
X2464Y2017D02*
X2476Y2017D01*
X2529Y2017D02*
X2536Y2017D01*
X0Y2016D02*
X13Y2016D01*
X99Y2016D02*
X111Y2016D01*
X180Y2016D02*
X192Y2016D01*
X2382Y2016D02*
X2394Y2016D01*
X2463Y2016D02*
X2475Y2016D01*
X2529Y2016D02*
X2536Y2016D01*
X0Y2015D02*
X13Y2015D01*
X100Y2015D02*
X112Y2015D01*
X179Y2015D02*
X191Y2015D01*
X2383Y2015D02*
X2395Y2015D01*
X2462Y2015D02*
X2474Y2015D01*
X2529Y2015D02*
X2536Y2015D01*
X0Y2014D02*
X13Y2014D01*
X101Y2014D02*
X114Y2014D01*
X178Y2014D02*
X190Y2014D01*
X2384Y2014D02*
X2396Y2014D01*
X2461Y2014D02*
X2473Y2014D01*
X2529Y2014D02*
X2536Y2014D01*
X0Y2013D02*
X13Y2013D01*
X102Y2013D02*
X115Y2013D01*
X176Y2013D02*
X189Y2013D01*
X2385Y2013D02*
X2398Y2013D01*
X2459Y2013D02*
X2472Y2013D01*
X2529Y2013D02*
X2536Y2013D01*
X0Y2012D02*
X13Y2012D01*
X103Y2012D02*
X116Y2012D01*
X175Y2012D02*
X189Y2012D01*
X2386Y2012D02*
X2399Y2012D01*
X2458Y2012D02*
X2472Y2012D01*
X2529Y2012D02*
X2536Y2012D01*
X0Y2011D02*
X13Y2011D01*
X104Y2011D02*
X118Y2011D01*
X174Y2011D02*
X188Y2011D01*
X2386Y2011D02*
X2400Y2011D01*
X2457Y2011D02*
X2471Y2011D01*
X2529Y2011D02*
X2536Y2011D01*
X0Y2010D02*
X13Y2010D01*
X105Y2010D02*
X119Y2010D01*
X172Y2010D02*
X187Y2010D01*
X2387Y2010D02*
X2402Y2010D01*
X2455Y2010D02*
X2470Y2010D01*
X2529Y2010D02*
X2536Y2010D01*
X0Y2009D02*
X13Y2009D01*
X106Y2009D02*
X121Y2009D01*
X170Y2009D02*
X186Y2009D01*
X2388Y2009D02*
X2404Y2009D01*
X2453Y2009D02*
X2469Y2009D01*
X2529Y2009D02*
X2536Y2009D01*
X0Y2008D02*
X13Y2008D01*
X107Y2008D02*
X123Y2008D01*
X168Y2008D02*
X185Y2008D01*
X2390Y2008D02*
X2406Y2008D01*
X2451Y2008D02*
X2467Y2008D01*
X2529Y2008D02*
X2536Y2008D01*
X0Y2007D02*
X13Y2007D01*
X108Y2007D02*
X125Y2007D01*
X166Y2007D02*
X183Y2007D01*
X2391Y2007D02*
X2408Y2007D01*
X2449Y2007D02*
X2466Y2007D01*
X2529Y2007D02*
X2536Y2007D01*
X0Y2006D02*
X13Y2006D01*
X109Y2006D02*
X128Y2006D01*
X164Y2006D02*
X182Y2006D01*
X2392Y2006D02*
X2410Y2006D01*
X2447Y2006D02*
X2465Y2006D01*
X2529Y2006D02*
X2536Y2006D01*
X0Y2005D02*
X13Y2005D01*
X110Y2005D02*
X130Y2005D01*
X161Y2005D02*
X181Y2005D01*
X2393Y2005D02*
X2413Y2005D01*
X2444Y2005D02*
X2464Y2005D01*
X2529Y2005D02*
X2536Y2005D01*
X0Y2004D02*
X13Y2004D01*
X112Y2004D02*
X134Y2004D01*
X157Y2004D02*
X180Y2004D01*
X2394Y2004D02*
X2417Y2004D01*
X2440Y2004D02*
X2463Y2004D01*
X2529Y2004D02*
X2536Y2004D01*
X0Y2003D02*
X13Y2003D01*
X113Y2003D02*
X142Y2003D01*
X149Y2003D02*
X178Y2003D01*
X2396Y2003D02*
X2424Y2003D01*
X2433Y2003D02*
X2461Y2003D01*
X2529Y2003D02*
X2536Y2003D01*
X0Y2002D02*
X13Y2002D01*
X115Y2002D02*
X177Y2002D01*
X2397Y2002D02*
X2460Y2002D01*
X2529Y2002D02*
X2536Y2002D01*
X0Y2001D02*
X13Y2001D01*
X116Y2001D02*
X175Y2001D01*
X2399Y2001D02*
X2458Y2001D01*
X2529Y2001D02*
X2536Y2001D01*
X0Y2000D02*
X13Y2000D01*
X118Y2000D02*
X173Y2000D01*
X2401Y2000D02*
X2456Y2000D01*
X2529Y2000D02*
X2536Y2000D01*
X0Y1999D02*
X13Y1999D01*
X120Y1999D02*
X172Y1999D01*
X2402Y1999D02*
X2455Y1999D01*
X2529Y1999D02*
X2536Y1999D01*
X0Y1998D02*
X13Y1998D01*
X122Y1998D02*
X170Y1998D01*
X2404Y1998D02*
X2453Y1998D01*
X2529Y1998D02*
X2536Y1998D01*
X0Y1997D02*
X13Y1997D01*
X124Y1997D02*
X167Y1997D01*
X2407Y1997D02*
X2450Y1997D01*
X2529Y1997D02*
X2536Y1997D01*
X0Y1996D02*
X13Y1996D01*
X127Y1996D02*
X165Y1996D01*
X2409Y1996D02*
X2448Y1996D01*
X2529Y1996D02*
X2536Y1996D01*
X0Y1995D02*
X13Y1995D01*
X129Y1995D02*
X162Y1995D01*
X2412Y1995D02*
X2445Y1995D01*
X2529Y1995D02*
X2536Y1995D01*
X0Y1994D02*
X13Y1994D01*
X133Y1994D02*
X158Y1994D01*
X2416Y1994D02*
X2441Y1994D01*
X2529Y1994D02*
X2536Y1994D01*
X0Y1993D02*
X13Y1993D01*
X139Y1993D02*
X153Y1993D01*
X2421Y1993D02*
X2436Y1993D01*
X2529Y1993D02*
X2536Y1993D01*
X0Y1992D02*
X13Y1992D01*
X2529Y1992D02*
X2536Y1992D01*
X0Y1991D02*
X13Y1991D01*
X2529Y1991D02*
X2536Y1991D01*
X0Y1990D02*
X13Y1990D01*
X2529Y1990D02*
X2536Y1990D01*
X0Y1989D02*
X13Y1989D01*
X2529Y1989D02*
X2536Y1989D01*
X0Y1988D02*
X13Y1988D01*
X2529Y1988D02*
X2536Y1988D01*
X0Y1987D02*
X13Y1987D01*
X2529Y1987D02*
X2536Y1987D01*
X0Y1986D02*
X13Y1986D01*
X2529Y1986D02*
X2536Y1986D01*
X0Y1985D02*
X13Y1985D01*
X2529Y1985D02*
X2536Y1985D01*
X0Y1984D02*
X13Y1984D01*
X2529Y1984D02*
X2536Y1984D01*
X0Y1983D02*
X13Y1983D01*
X2529Y1983D02*
X2536Y1983D01*
X0Y1982D02*
X13Y1982D01*
X2529Y1982D02*
X2536Y1982D01*
X0Y1981D02*
X13Y1981D01*
X2529Y1981D02*
X2536Y1981D01*
X0Y1980D02*
X13Y1980D01*
X2529Y1980D02*
X2536Y1980D01*
X0Y1979D02*
X13Y1979D01*
X2529Y1979D02*
X2536Y1979D01*
X0Y1978D02*
X13Y1978D01*
X2529Y1978D02*
X2536Y1978D01*
X0Y1977D02*
X13Y1977D01*
X2529Y1977D02*
X2536Y1977D01*
X0Y1976D02*
X13Y1976D01*
X2529Y1976D02*
X2536Y1976D01*
X0Y1975D02*
X13Y1975D01*
X2529Y1975D02*
X2536Y1975D01*
X0Y1974D02*
X13Y1974D01*
X2529Y1974D02*
X2536Y1974D01*
X0Y1973D02*
X13Y1973D01*
X2529Y1973D02*
X2536Y1973D01*
X0Y1972D02*
X13Y1972D01*
X2529Y1972D02*
X2536Y1972D01*
X0Y1971D02*
X13Y1971D01*
X2529Y1971D02*
X2536Y1971D01*
X0Y1970D02*
X13Y1970D01*
X2529Y1970D02*
X2536Y1970D01*
X0Y1969D02*
X13Y1969D01*
X2529Y1969D02*
X2536Y1969D01*
X0Y1968D02*
X13Y1968D01*
X2529Y1968D02*
X2536Y1968D01*
X0Y1967D02*
X13Y1967D01*
X2529Y1967D02*
X2536Y1967D01*
X0Y1966D02*
X13Y1966D01*
X2529Y1966D02*
X2536Y1966D01*
X0Y1965D02*
X13Y1965D01*
X2529Y1965D02*
X2536Y1965D01*
X0Y1964D02*
X13Y1964D01*
X2529Y1964D02*
X2536Y1964D01*
X0Y1963D02*
X13Y1963D01*
X2529Y1963D02*
X2536Y1963D01*
X0Y1962D02*
X13Y1962D01*
X2529Y1962D02*
X2536Y1962D01*
X0Y1961D02*
X13Y1961D01*
X2529Y1961D02*
X2536Y1961D01*
X0Y1960D02*
X13Y1960D01*
X2529Y1960D02*
X2536Y1960D01*
X0Y1959D02*
X13Y1959D01*
X2529Y1959D02*
X2536Y1959D01*
X0Y1958D02*
X13Y1958D01*
X2529Y1958D02*
X2536Y1958D01*
X0Y1957D02*
X13Y1957D01*
X2529Y1957D02*
X2536Y1957D01*
X0Y1956D02*
X13Y1956D01*
X2529Y1956D02*
X2536Y1956D01*
X0Y1955D02*
X13Y1955D01*
X2529Y1955D02*
X2536Y1955D01*
X0Y1954D02*
X13Y1954D01*
X2529Y1954D02*
X2536Y1954D01*
X0Y1953D02*
X13Y1953D01*
X2529Y1953D02*
X2536Y1953D01*
X0Y1952D02*
X13Y1952D01*
X2529Y1952D02*
X2536Y1952D01*
X0Y1951D02*
X13Y1951D01*
X2529Y1951D02*
X2536Y1951D01*
X0Y1950D02*
X13Y1950D01*
X2529Y1950D02*
X2536Y1950D01*
X0Y1949D02*
X13Y1949D01*
X2529Y1949D02*
X2536Y1949D01*
X0Y1948D02*
X13Y1948D01*
X2529Y1948D02*
X2536Y1948D01*
X0Y1947D02*
X13Y1947D01*
X2529Y1947D02*
X2536Y1947D01*
X0Y1946D02*
X13Y1946D01*
X2529Y1946D02*
X2536Y1946D01*
X0Y1945D02*
X13Y1945D01*
X2529Y1945D02*
X2536Y1945D01*
X0Y1944D02*
X13Y1944D01*
X2529Y1944D02*
X2536Y1944D01*
X0Y1943D02*
X13Y1943D01*
X2529Y1943D02*
X2536Y1943D01*
X0Y1942D02*
X13Y1942D01*
X2529Y1942D02*
X2536Y1942D01*
X0Y1941D02*
X13Y1941D01*
X2529Y1941D02*
X2536Y1941D01*
X0Y1940D02*
X13Y1940D01*
X2529Y1940D02*
X2536Y1940D01*
X0Y1939D02*
X13Y1939D01*
X2529Y1939D02*
X2536Y1939D01*
X0Y1938D02*
X13Y1938D01*
X2529Y1938D02*
X2536Y1938D01*
X0Y1937D02*
X13Y1937D01*
X2529Y1937D02*
X2536Y1937D01*
X0Y1936D02*
X13Y1936D01*
X2529Y1936D02*
X2536Y1936D01*
X0Y1935D02*
X13Y1935D01*
X2529Y1935D02*
X2536Y1935D01*
X0Y1934D02*
X13Y1934D01*
X2529Y1934D02*
X2536Y1934D01*
X0Y1933D02*
X13Y1933D01*
X2529Y1933D02*
X2536Y1933D01*
X0Y1932D02*
X13Y1932D01*
X2529Y1932D02*
X2536Y1932D01*
X0Y1931D02*
X13Y1931D01*
X2529Y1931D02*
X2536Y1931D01*
X0Y1930D02*
X13Y1930D01*
X2529Y1930D02*
X2536Y1930D01*
X0Y1929D02*
X13Y1929D01*
X2529Y1929D02*
X2536Y1929D01*
X0Y1928D02*
X13Y1928D01*
X2529Y1928D02*
X2536Y1928D01*
X0Y1927D02*
X13Y1927D01*
X2529Y1927D02*
X2536Y1927D01*
X0Y1926D02*
X13Y1926D01*
X2529Y1926D02*
X2536Y1926D01*
X0Y1925D02*
X13Y1925D01*
X2529Y1925D02*
X2536Y1925D01*
X0Y1924D02*
X13Y1924D01*
X2529Y1924D02*
X2536Y1924D01*
X0Y1923D02*
X13Y1923D01*
X2529Y1923D02*
X2536Y1923D01*
X0Y1922D02*
X13Y1922D01*
X2529Y1922D02*
X2536Y1922D01*
X0Y1921D02*
X13Y1921D01*
X2529Y1921D02*
X2536Y1921D01*
X0Y1920D02*
X13Y1920D01*
X2529Y1920D02*
X2536Y1920D01*
X0Y1919D02*
X13Y1919D01*
X2529Y1919D02*
X2536Y1919D01*
X0Y1918D02*
X13Y1918D01*
X2529Y1918D02*
X2536Y1918D01*
X0Y1917D02*
X13Y1917D01*
X2529Y1917D02*
X2536Y1917D01*
X0Y1916D02*
X13Y1916D01*
X2529Y1916D02*
X2536Y1916D01*
X0Y1915D02*
X13Y1915D01*
X2529Y1915D02*
X2536Y1915D01*
X0Y1914D02*
X13Y1914D01*
X2529Y1914D02*
X2536Y1914D01*
X0Y1913D02*
X13Y1913D01*
X2529Y1913D02*
X2536Y1913D01*
X0Y1912D02*
X13Y1912D01*
X2529Y1912D02*
X2536Y1912D01*
X0Y1911D02*
X13Y1911D01*
X2529Y1911D02*
X2536Y1911D01*
X0Y1910D02*
X13Y1910D01*
X2529Y1910D02*
X2536Y1910D01*
X0Y1909D02*
X13Y1909D01*
X2529Y1909D02*
X2536Y1909D01*
X0Y1908D02*
X13Y1908D01*
X2529Y1908D02*
X2536Y1908D01*
X0Y1907D02*
X13Y1907D01*
X2529Y1907D02*
X2536Y1907D01*
X0Y1906D02*
X13Y1906D01*
X2529Y1906D02*
X2536Y1906D01*
X0Y1905D02*
X13Y1905D01*
X2529Y1905D02*
X2536Y1905D01*
X0Y1904D02*
X13Y1904D01*
X2529Y1904D02*
X2536Y1904D01*
X0Y1903D02*
X13Y1903D01*
X2529Y1903D02*
X2536Y1903D01*
X0Y1902D02*
X13Y1902D01*
X2529Y1902D02*
X2536Y1902D01*
X0Y1901D02*
X13Y1901D01*
X2529Y1901D02*
X2536Y1901D01*
X0Y1900D02*
X13Y1900D01*
X2529Y1900D02*
X2536Y1900D01*
X0Y1899D02*
X13Y1899D01*
X2529Y1899D02*
X2536Y1899D01*
X0Y1898D02*
X13Y1898D01*
X2529Y1898D02*
X2536Y1898D01*
X0Y1897D02*
X13Y1897D01*
X2529Y1897D02*
X2536Y1897D01*
X0Y1896D02*
X13Y1896D01*
X2529Y1896D02*
X2536Y1896D01*
X0Y1895D02*
X13Y1895D01*
X2529Y1895D02*
X2536Y1895D01*
X0Y1894D02*
X13Y1894D01*
X2529Y1894D02*
X2536Y1894D01*
X0Y1893D02*
X13Y1893D01*
X2529Y1893D02*
X2536Y1893D01*
X0Y1892D02*
X13Y1892D01*
X2529Y1892D02*
X2536Y1892D01*
X0Y1891D02*
X13Y1891D01*
X2529Y1891D02*
X2536Y1891D01*
X0Y1890D02*
X13Y1890D01*
X2529Y1890D02*
X2536Y1890D01*
X0Y1889D02*
X13Y1889D01*
X2529Y1889D02*
X2536Y1889D01*
X0Y1888D02*
X13Y1888D01*
X2529Y1888D02*
X2536Y1888D01*
X0Y1887D02*
X13Y1887D01*
X2529Y1887D02*
X2536Y1887D01*
X0Y1886D02*
X13Y1886D01*
X2529Y1886D02*
X2536Y1886D01*
X0Y1885D02*
X13Y1885D01*
X2529Y1885D02*
X2536Y1885D01*
X0Y1884D02*
X13Y1884D01*
X2529Y1884D02*
X2536Y1884D01*
X0Y1883D02*
X13Y1883D01*
X2529Y1883D02*
X2536Y1883D01*
X0Y1882D02*
X13Y1882D01*
X2529Y1882D02*
X2536Y1882D01*
X0Y1881D02*
X13Y1881D01*
X2529Y1881D02*
X2536Y1881D01*
X0Y1880D02*
X13Y1880D01*
X2529Y1880D02*
X2536Y1880D01*
X0Y1879D02*
X13Y1879D01*
X2529Y1879D02*
X2536Y1879D01*
X0Y1878D02*
X13Y1878D01*
X2529Y1878D02*
X2536Y1878D01*
X0Y1877D02*
X13Y1877D01*
X2529Y1877D02*
X2536Y1877D01*
X0Y1876D02*
X13Y1876D01*
X2529Y1876D02*
X2536Y1876D01*
X0Y1875D02*
X13Y1875D01*
X2529Y1875D02*
X2536Y1875D01*
X0Y1874D02*
X13Y1874D01*
X2529Y1874D02*
X2536Y1874D01*
X0Y1873D02*
X13Y1873D01*
X2529Y1873D02*
X2536Y1873D01*
X0Y1872D02*
X13Y1872D01*
X2529Y1872D02*
X2536Y1872D01*
X0Y1871D02*
X13Y1871D01*
X2529Y1871D02*
X2536Y1871D01*
X0Y1870D02*
X13Y1870D01*
X2529Y1870D02*
X2536Y1870D01*
X0Y1869D02*
X13Y1869D01*
X2529Y1869D02*
X2536Y1869D01*
X0Y1868D02*
X13Y1868D01*
X2529Y1868D02*
X2536Y1868D01*
X0Y1867D02*
X13Y1867D01*
X2529Y1867D02*
X2536Y1867D01*
X0Y1866D02*
X13Y1866D01*
X2529Y1866D02*
X2536Y1866D01*
X0Y1865D02*
X13Y1865D01*
X2529Y1865D02*
X2536Y1865D01*
X0Y1864D02*
X13Y1864D01*
X2529Y1864D02*
X2536Y1864D01*
X0Y1863D02*
X13Y1863D01*
X2529Y1863D02*
X2536Y1863D01*
X0Y1862D02*
X13Y1862D01*
X2529Y1862D02*
X2536Y1862D01*
X0Y1861D02*
X13Y1861D01*
X2529Y1861D02*
X2536Y1861D01*
X0Y1860D02*
X13Y1860D01*
X2529Y1860D02*
X2536Y1860D01*
X0Y1859D02*
X13Y1859D01*
X2529Y1859D02*
X2536Y1859D01*
X0Y1858D02*
X13Y1858D01*
X2529Y1858D02*
X2536Y1858D01*
X0Y1857D02*
X13Y1857D01*
X2529Y1857D02*
X2536Y1857D01*
X0Y1856D02*
X13Y1856D01*
X2529Y1856D02*
X2536Y1856D01*
X0Y1855D02*
X13Y1855D01*
X2529Y1855D02*
X2536Y1855D01*
X0Y1854D02*
X13Y1854D01*
X2529Y1854D02*
X2536Y1854D01*
X0Y1853D02*
X13Y1853D01*
X2529Y1853D02*
X2536Y1853D01*
X0Y1852D02*
X13Y1852D01*
X2529Y1852D02*
X2536Y1852D01*
X0Y1851D02*
X13Y1851D01*
X2529Y1851D02*
X2536Y1851D01*
X0Y1850D02*
X13Y1850D01*
X2529Y1850D02*
X2536Y1850D01*
X0Y1849D02*
X13Y1849D01*
X2529Y1849D02*
X2536Y1849D01*
X0Y1848D02*
X13Y1848D01*
X2529Y1848D02*
X2536Y1848D01*
X0Y1847D02*
X13Y1847D01*
X2529Y1847D02*
X2536Y1847D01*
X0Y1846D02*
X13Y1846D01*
X2529Y1846D02*
X2536Y1846D01*
X0Y1845D02*
X13Y1845D01*
X2529Y1845D02*
X2536Y1845D01*
X0Y1844D02*
X13Y1844D01*
X2529Y1844D02*
X2536Y1844D01*
X0Y1843D02*
X13Y1843D01*
X2529Y1843D02*
X2536Y1843D01*
X0Y1842D02*
X13Y1842D01*
X2529Y1842D02*
X2536Y1842D01*
X0Y1841D02*
X13Y1841D01*
X2529Y1841D02*
X2536Y1841D01*
X0Y1840D02*
X13Y1840D01*
X2529Y1840D02*
X2536Y1840D01*
X0Y1839D02*
X13Y1839D01*
X2529Y1839D02*
X2536Y1839D01*
X0Y1838D02*
X13Y1838D01*
X2529Y1838D02*
X2536Y1838D01*
X0Y1837D02*
X13Y1837D01*
X2529Y1837D02*
X2536Y1837D01*
X0Y1836D02*
X13Y1836D01*
X2529Y1836D02*
X2536Y1836D01*
X0Y1835D02*
X13Y1835D01*
X2529Y1835D02*
X2536Y1835D01*
X0Y1834D02*
X13Y1834D01*
X2529Y1834D02*
X2536Y1834D01*
X0Y1833D02*
X13Y1833D01*
X2529Y1833D02*
X2536Y1833D01*
X0Y1832D02*
X13Y1832D01*
X2529Y1832D02*
X2536Y1832D01*
X0Y1831D02*
X13Y1831D01*
X2529Y1831D02*
X2536Y1831D01*
X0Y1830D02*
X13Y1830D01*
X2529Y1830D02*
X2536Y1830D01*
X0Y1829D02*
X13Y1829D01*
X2529Y1829D02*
X2536Y1829D01*
X0Y1828D02*
X13Y1828D01*
X2529Y1828D02*
X2536Y1828D01*
X0Y1827D02*
X13Y1827D01*
X2529Y1827D02*
X2536Y1827D01*
X0Y1826D02*
X13Y1826D01*
X2529Y1826D02*
X2536Y1826D01*
X0Y1825D02*
X13Y1825D01*
X2529Y1825D02*
X2536Y1825D01*
X0Y1824D02*
X13Y1824D01*
X2529Y1824D02*
X2536Y1824D01*
X0Y1823D02*
X13Y1823D01*
X2529Y1823D02*
X2536Y1823D01*
X0Y1822D02*
X13Y1822D01*
X2529Y1822D02*
X2536Y1822D01*
X0Y1821D02*
X13Y1821D01*
X2529Y1821D02*
X2536Y1821D01*
X0Y1820D02*
X13Y1820D01*
X2529Y1820D02*
X2536Y1820D01*
X0Y1819D02*
X13Y1819D01*
X2529Y1819D02*
X2536Y1819D01*
X0Y1818D02*
X13Y1818D01*
X2529Y1818D02*
X2536Y1818D01*
X0Y1817D02*
X13Y1817D01*
X2529Y1817D02*
X2536Y1817D01*
X0Y1816D02*
X13Y1816D01*
X2529Y1816D02*
X2536Y1816D01*
X0Y1815D02*
X13Y1815D01*
X2529Y1815D02*
X2536Y1815D01*
X0Y1814D02*
X13Y1814D01*
X2529Y1814D02*
X2536Y1814D01*
X0Y1813D02*
X13Y1813D01*
X2529Y1813D02*
X2536Y1813D01*
X0Y1812D02*
X13Y1812D01*
X2529Y1812D02*
X2536Y1812D01*
X0Y1811D02*
X13Y1811D01*
X2529Y1811D02*
X2536Y1811D01*
X0Y1810D02*
X13Y1810D01*
X2529Y1810D02*
X2536Y1810D01*
X0Y1809D02*
X13Y1809D01*
X2529Y1809D02*
X2536Y1809D01*
X0Y1808D02*
X13Y1808D01*
X2529Y1808D02*
X2536Y1808D01*
X0Y1807D02*
X13Y1807D01*
X2529Y1807D02*
X2536Y1807D01*
X0Y1806D02*
X13Y1806D01*
X2529Y1806D02*
X2536Y1806D01*
X0Y1805D02*
X13Y1805D01*
X2529Y1805D02*
X2536Y1805D01*
X0Y1804D02*
X13Y1804D01*
X2529Y1804D02*
X2536Y1804D01*
X0Y1803D02*
X13Y1803D01*
X2529Y1803D02*
X2536Y1803D01*
X0Y1802D02*
X13Y1802D01*
X2529Y1802D02*
X2536Y1802D01*
X0Y1801D02*
X13Y1801D01*
X2529Y1801D02*
X2536Y1801D01*
X0Y1800D02*
X13Y1800D01*
X2529Y1800D02*
X2536Y1800D01*
X0Y1799D02*
X13Y1799D01*
X2529Y1799D02*
X2536Y1799D01*
X0Y1798D02*
X13Y1798D01*
X2529Y1798D02*
X2536Y1798D01*
X0Y1797D02*
X13Y1797D01*
X2529Y1797D02*
X2536Y1797D01*
X0Y1796D02*
X13Y1796D01*
X2529Y1796D02*
X2536Y1796D01*
X0Y1795D02*
X13Y1795D01*
X2529Y1795D02*
X2536Y1795D01*
X0Y1794D02*
X13Y1794D01*
X2529Y1794D02*
X2536Y1794D01*
X0Y1793D02*
X13Y1793D01*
X2529Y1793D02*
X2536Y1793D01*
X0Y1792D02*
X13Y1792D01*
X2529Y1792D02*
X2536Y1792D01*
X0Y1791D02*
X13Y1791D01*
X2529Y1791D02*
X2536Y1791D01*
X0Y1790D02*
X13Y1790D01*
X2529Y1790D02*
X2536Y1790D01*
X0Y1789D02*
X13Y1789D01*
X2529Y1789D02*
X2536Y1789D01*
X0Y1788D02*
X13Y1788D01*
X2529Y1788D02*
X2536Y1788D01*
X0Y1787D02*
X13Y1787D01*
X2529Y1787D02*
X2536Y1787D01*
X0Y1786D02*
X13Y1786D01*
X2529Y1786D02*
X2536Y1786D01*
X0Y1785D02*
X13Y1785D01*
X2529Y1785D02*
X2536Y1785D01*
X0Y1784D02*
X13Y1784D01*
X2529Y1784D02*
X2536Y1784D01*
X0Y1783D02*
X13Y1783D01*
X2529Y1783D02*
X2536Y1783D01*
X0Y1782D02*
X13Y1782D01*
X2529Y1782D02*
X2536Y1782D01*
X0Y1781D02*
X13Y1781D01*
X2529Y1781D02*
X2536Y1781D01*
X0Y1780D02*
X13Y1780D01*
X2529Y1780D02*
X2536Y1780D01*
X0Y1779D02*
X13Y1779D01*
X2529Y1779D02*
X2536Y1779D01*
X0Y1778D02*
X13Y1778D01*
X2529Y1778D02*
X2536Y1778D01*
X0Y1777D02*
X13Y1777D01*
X2529Y1777D02*
X2536Y1777D01*
X0Y1776D02*
X13Y1776D01*
X2529Y1776D02*
X2536Y1776D01*
X0Y1775D02*
X13Y1775D01*
X2529Y1775D02*
X2536Y1775D01*
X0Y1774D02*
X13Y1774D01*
X2529Y1774D02*
X2536Y1774D01*
X0Y1773D02*
X13Y1773D01*
X2529Y1773D02*
X2536Y1773D01*
X0Y1772D02*
X13Y1772D01*
X2529Y1772D02*
X2536Y1772D01*
X0Y1771D02*
X13Y1771D01*
X2529Y1771D02*
X2536Y1771D01*
X0Y1770D02*
X13Y1770D01*
X2529Y1770D02*
X2536Y1770D01*
X0Y1769D02*
X13Y1769D01*
X2529Y1769D02*
X2536Y1769D01*
X0Y1768D02*
X13Y1768D01*
X2529Y1768D02*
X2536Y1768D01*
X0Y1767D02*
X13Y1767D01*
X2529Y1767D02*
X2536Y1767D01*
X0Y1766D02*
X13Y1766D01*
X2529Y1766D02*
X2536Y1766D01*
X0Y1765D02*
X13Y1765D01*
X2529Y1765D02*
X2536Y1765D01*
X0Y1764D02*
X13Y1764D01*
X2529Y1764D02*
X2536Y1764D01*
X0Y1763D02*
X13Y1763D01*
X2529Y1763D02*
X2536Y1763D01*
X0Y1762D02*
X13Y1762D01*
X2529Y1762D02*
X2536Y1762D01*
X0Y1761D02*
X13Y1761D01*
X2529Y1761D02*
X2536Y1761D01*
X0Y1760D02*
X13Y1760D01*
X2529Y1760D02*
X2536Y1760D01*
X0Y1759D02*
X13Y1759D01*
X2529Y1759D02*
X2536Y1759D01*
X0Y1758D02*
X13Y1758D01*
X2529Y1758D02*
X2536Y1758D01*
X0Y1757D02*
X13Y1757D01*
X2529Y1757D02*
X2536Y1757D01*
X0Y1756D02*
X13Y1756D01*
X2529Y1756D02*
X2536Y1756D01*
X0Y1755D02*
X13Y1755D01*
X2529Y1755D02*
X2536Y1755D01*
X0Y1754D02*
X13Y1754D01*
X2529Y1754D02*
X2536Y1754D01*
X0Y1753D02*
X13Y1753D01*
X2529Y1753D02*
X2536Y1753D01*
X0Y1752D02*
X13Y1752D01*
X2529Y1752D02*
X2536Y1752D01*
X0Y1751D02*
X13Y1751D01*
X2529Y1751D02*
X2536Y1751D01*
X0Y1750D02*
X13Y1750D01*
X2529Y1750D02*
X2536Y1750D01*
X0Y1749D02*
X13Y1749D01*
X2529Y1749D02*
X2536Y1749D01*
X0Y1748D02*
X13Y1748D01*
X2529Y1748D02*
X2536Y1748D01*
X0Y1747D02*
X13Y1747D01*
X2529Y1747D02*
X2536Y1747D01*
X0Y1746D02*
X13Y1746D01*
X2529Y1746D02*
X2536Y1746D01*
X0Y1745D02*
X13Y1745D01*
X2529Y1745D02*
X2536Y1745D01*
X0Y1744D02*
X13Y1744D01*
X2529Y1744D02*
X2536Y1744D01*
X0Y1743D02*
X13Y1743D01*
X2529Y1743D02*
X2536Y1743D01*
X0Y1742D02*
X13Y1742D01*
X2529Y1742D02*
X2536Y1742D01*
X0Y1741D02*
X13Y1741D01*
X2529Y1741D02*
X2536Y1741D01*
X0Y1740D02*
X13Y1740D01*
X2529Y1740D02*
X2536Y1740D01*
X0Y1739D02*
X13Y1739D01*
X2529Y1739D02*
X2536Y1739D01*
X0Y1738D02*
X13Y1738D01*
X2529Y1738D02*
X2536Y1738D01*
X0Y1737D02*
X13Y1737D01*
X2529Y1737D02*
X2536Y1737D01*
X0Y1736D02*
X13Y1736D01*
X2529Y1736D02*
X2536Y1736D01*
X0Y1735D02*
X13Y1735D01*
X2529Y1735D02*
X2536Y1735D01*
X0Y1734D02*
X13Y1734D01*
X2529Y1734D02*
X2536Y1734D01*
X0Y1733D02*
X13Y1733D01*
X2529Y1733D02*
X2536Y1733D01*
X0Y1732D02*
X13Y1732D01*
X2529Y1732D02*
X2536Y1732D01*
X0Y1731D02*
X13Y1731D01*
X2529Y1731D02*
X2536Y1731D01*
X0Y1730D02*
X13Y1730D01*
X2529Y1730D02*
X2536Y1730D01*
X0Y1729D02*
X13Y1729D01*
X2529Y1729D02*
X2536Y1729D01*
X0Y1728D02*
X13Y1728D01*
X2529Y1728D02*
X2536Y1728D01*
X0Y1727D02*
X13Y1727D01*
X2529Y1727D02*
X2536Y1727D01*
X0Y1726D02*
X13Y1726D01*
X2529Y1726D02*
X2536Y1726D01*
X0Y1725D02*
X13Y1725D01*
X2529Y1725D02*
X2536Y1725D01*
X0Y1724D02*
X13Y1724D01*
X2529Y1724D02*
X2536Y1724D01*
X0Y1723D02*
X13Y1723D01*
X2529Y1723D02*
X2536Y1723D01*
X0Y1722D02*
X13Y1722D01*
X2529Y1722D02*
X2536Y1722D01*
X0Y1721D02*
X13Y1721D01*
X2529Y1721D02*
X2536Y1721D01*
X0Y1720D02*
X13Y1720D01*
X2529Y1720D02*
X2536Y1720D01*
X0Y1719D02*
X13Y1719D01*
X2529Y1719D02*
X2536Y1719D01*
X0Y1718D02*
X13Y1718D01*
X2529Y1718D02*
X2536Y1718D01*
X0Y1717D02*
X13Y1717D01*
X2529Y1717D02*
X2536Y1717D01*
X0Y1716D02*
X13Y1716D01*
X2529Y1716D02*
X2536Y1716D01*
X0Y1715D02*
X13Y1715D01*
X2529Y1715D02*
X2536Y1715D01*
X0Y1714D02*
X13Y1714D01*
X2529Y1714D02*
X2536Y1714D01*
X0Y1713D02*
X13Y1713D01*
X2529Y1713D02*
X2536Y1713D01*
X0Y1712D02*
X13Y1712D01*
X2529Y1712D02*
X2536Y1712D01*
X0Y1711D02*
X13Y1711D01*
X2529Y1711D02*
X2536Y1711D01*
X0Y1710D02*
X13Y1710D01*
X2529Y1710D02*
X2536Y1710D01*
X0Y1709D02*
X13Y1709D01*
X2529Y1709D02*
X2536Y1709D01*
X0Y1708D02*
X13Y1708D01*
X2529Y1708D02*
X2536Y1708D01*
X0Y1707D02*
X13Y1707D01*
X2529Y1707D02*
X2536Y1707D01*
X0Y1706D02*
X13Y1706D01*
X2529Y1706D02*
X2536Y1706D01*
X0Y1705D02*
X13Y1705D01*
X2529Y1705D02*
X2536Y1705D01*
X0Y1704D02*
X13Y1704D01*
X2529Y1704D02*
X2536Y1704D01*
X0Y1703D02*
X13Y1703D01*
X2529Y1703D02*
X2536Y1703D01*
X0Y1702D02*
X13Y1702D01*
X2529Y1702D02*
X2536Y1702D01*
X0Y1701D02*
X13Y1701D01*
X2529Y1701D02*
X2536Y1701D01*
X0Y1700D02*
X13Y1700D01*
X2529Y1700D02*
X2536Y1700D01*
X0Y1699D02*
X13Y1699D01*
X2529Y1699D02*
X2536Y1699D01*
X0Y1698D02*
X13Y1698D01*
X2529Y1698D02*
X2536Y1698D01*
X0Y1697D02*
X13Y1697D01*
X2529Y1697D02*
X2536Y1697D01*
X0Y1696D02*
X13Y1696D01*
X2529Y1696D02*
X2536Y1696D01*
X0Y1695D02*
X13Y1695D01*
X2529Y1695D02*
X2536Y1695D01*
X0Y1694D02*
X13Y1694D01*
X2529Y1694D02*
X2536Y1694D01*
X0Y1693D02*
X13Y1693D01*
X2529Y1693D02*
X2536Y1693D01*
X0Y1692D02*
X13Y1692D01*
X2529Y1692D02*
X2536Y1692D01*
X0Y1691D02*
X13Y1691D01*
X2529Y1691D02*
X2536Y1691D01*
X0Y1690D02*
X13Y1690D01*
X2529Y1690D02*
X2536Y1690D01*
X0Y1689D02*
X13Y1689D01*
X2529Y1689D02*
X2536Y1689D01*
X0Y1688D02*
X13Y1688D01*
X2529Y1688D02*
X2536Y1688D01*
X0Y1687D02*
X13Y1687D01*
X2529Y1687D02*
X2536Y1687D01*
X0Y1686D02*
X13Y1686D01*
X2529Y1686D02*
X2536Y1686D01*
X0Y1685D02*
X13Y1685D01*
X2529Y1685D02*
X2536Y1685D01*
X0Y1684D02*
X13Y1684D01*
X2529Y1684D02*
X2536Y1684D01*
X0Y1683D02*
X13Y1683D01*
X2529Y1683D02*
X2536Y1683D01*
X0Y1682D02*
X13Y1682D01*
X2529Y1682D02*
X2536Y1682D01*
X0Y1681D02*
X13Y1681D01*
X2529Y1681D02*
X2536Y1681D01*
X0Y1680D02*
X13Y1680D01*
X2529Y1680D02*
X2536Y1680D01*
X0Y1679D02*
X13Y1679D01*
X2529Y1679D02*
X2536Y1679D01*
X0Y1678D02*
X13Y1678D01*
X2529Y1678D02*
X2536Y1678D01*
X0Y1677D02*
X13Y1677D01*
X2529Y1677D02*
X2536Y1677D01*
X0Y1676D02*
X13Y1676D01*
X2529Y1676D02*
X2536Y1676D01*
X0Y1675D02*
X13Y1675D01*
X2529Y1675D02*
X2536Y1675D01*
X0Y1674D02*
X13Y1674D01*
X2529Y1674D02*
X2536Y1674D01*
X0Y1673D02*
X13Y1673D01*
X2529Y1673D02*
X2536Y1673D01*
X0Y1672D02*
X13Y1672D01*
X2529Y1672D02*
X2536Y1672D01*
X0Y1671D02*
X13Y1671D01*
X2529Y1671D02*
X2536Y1671D01*
X0Y1670D02*
X13Y1670D01*
X2529Y1670D02*
X2536Y1670D01*
X0Y1669D02*
X13Y1669D01*
X2529Y1669D02*
X2536Y1669D01*
X0Y1668D02*
X13Y1668D01*
X2529Y1668D02*
X2536Y1668D01*
X0Y1667D02*
X13Y1667D01*
X2529Y1667D02*
X2536Y1667D01*
X0Y1666D02*
X13Y1666D01*
X2529Y1666D02*
X2536Y1666D01*
X0Y1665D02*
X13Y1665D01*
X2529Y1665D02*
X2536Y1665D01*
X0Y1664D02*
X13Y1664D01*
X2529Y1664D02*
X2536Y1664D01*
X0Y1663D02*
X13Y1663D01*
X2529Y1663D02*
X2536Y1663D01*
X0Y1662D02*
X13Y1662D01*
X2529Y1662D02*
X2536Y1662D01*
X0Y1661D02*
X13Y1661D01*
X2529Y1661D02*
X2536Y1661D01*
X0Y1660D02*
X13Y1660D01*
X2529Y1660D02*
X2536Y1660D01*
X0Y1659D02*
X13Y1659D01*
X2529Y1659D02*
X2536Y1659D01*
X0Y1658D02*
X13Y1658D01*
X2529Y1658D02*
X2536Y1658D01*
X0Y1657D02*
X13Y1657D01*
X2529Y1657D02*
X2536Y1657D01*
X0Y1656D02*
X13Y1656D01*
X2529Y1656D02*
X2536Y1656D01*
X0Y1655D02*
X13Y1655D01*
X2529Y1655D02*
X2536Y1655D01*
X0Y1654D02*
X13Y1654D01*
X2529Y1654D02*
X2536Y1654D01*
X0Y1653D02*
X13Y1653D01*
X2529Y1653D02*
X2536Y1653D01*
X0Y1652D02*
X13Y1652D01*
X2529Y1652D02*
X2536Y1652D01*
X0Y1651D02*
X13Y1651D01*
X2529Y1651D02*
X2536Y1651D01*
X0Y1650D02*
X13Y1650D01*
X2529Y1650D02*
X2536Y1650D01*
X0Y1649D02*
X13Y1649D01*
X2529Y1649D02*
X2536Y1649D01*
X0Y1648D02*
X13Y1648D01*
X2529Y1648D02*
X2536Y1648D01*
X0Y1647D02*
X13Y1647D01*
X2529Y1647D02*
X2536Y1647D01*
X0Y1646D02*
X13Y1646D01*
X2529Y1646D02*
X2536Y1646D01*
X0Y1645D02*
X13Y1645D01*
X2529Y1645D02*
X2536Y1645D01*
X0Y1644D02*
X13Y1644D01*
X2529Y1644D02*
X2536Y1644D01*
X0Y1643D02*
X13Y1643D01*
X2529Y1643D02*
X2536Y1643D01*
X0Y1642D02*
X13Y1642D01*
X2529Y1642D02*
X2536Y1642D01*
X0Y1641D02*
X13Y1641D01*
X2529Y1641D02*
X2536Y1641D01*
X0Y1640D02*
X13Y1640D01*
X2529Y1640D02*
X2536Y1640D01*
X0Y1639D02*
X13Y1639D01*
X2529Y1639D02*
X2536Y1639D01*
X0Y1638D02*
X13Y1638D01*
X2529Y1638D02*
X2536Y1638D01*
X0Y1637D02*
X13Y1637D01*
X2529Y1637D02*
X2536Y1637D01*
X0Y1636D02*
X13Y1636D01*
X2529Y1636D02*
X2536Y1636D01*
X0Y1635D02*
X13Y1635D01*
X2529Y1635D02*
X2536Y1635D01*
X0Y1634D02*
X13Y1634D01*
X2529Y1634D02*
X2536Y1634D01*
X0Y1633D02*
X13Y1633D01*
X2529Y1633D02*
X2536Y1633D01*
X0Y1632D02*
X13Y1632D01*
X2529Y1632D02*
X2536Y1632D01*
X0Y1631D02*
X13Y1631D01*
X2529Y1631D02*
X2536Y1631D01*
X0Y1630D02*
X13Y1630D01*
X2529Y1630D02*
X2536Y1630D01*
X0Y1629D02*
X13Y1629D01*
X2529Y1629D02*
X2536Y1629D01*
X0Y1628D02*
X13Y1628D01*
X2529Y1628D02*
X2536Y1628D01*
X0Y1627D02*
X13Y1627D01*
X2529Y1627D02*
X2536Y1627D01*
X0Y1626D02*
X13Y1626D01*
X2529Y1626D02*
X2536Y1626D01*
X0Y1625D02*
X13Y1625D01*
X2529Y1625D02*
X2536Y1625D01*
X0Y1624D02*
X13Y1624D01*
X2529Y1624D02*
X2536Y1624D01*
X0Y1623D02*
X13Y1623D01*
X2529Y1623D02*
X2536Y1623D01*
X0Y1622D02*
X13Y1622D01*
X2529Y1622D02*
X2536Y1622D01*
X0Y1621D02*
X13Y1621D01*
X2529Y1621D02*
X2536Y1621D01*
X0Y1620D02*
X13Y1620D01*
X2529Y1620D02*
X2536Y1620D01*
X0Y1619D02*
X13Y1619D01*
X2529Y1619D02*
X2536Y1619D01*
X0Y1618D02*
X13Y1618D01*
X2529Y1618D02*
X2536Y1618D01*
X0Y1617D02*
X13Y1617D01*
X2529Y1617D02*
X2536Y1617D01*
X0Y1616D02*
X13Y1616D01*
X2529Y1616D02*
X2536Y1616D01*
X0Y1615D02*
X13Y1615D01*
X2529Y1615D02*
X2536Y1615D01*
X0Y1614D02*
X13Y1614D01*
X2529Y1614D02*
X2536Y1614D01*
X0Y1613D02*
X13Y1613D01*
X2529Y1613D02*
X2536Y1613D01*
X0Y1612D02*
X13Y1612D01*
X2529Y1612D02*
X2536Y1612D01*
X0Y1611D02*
X13Y1611D01*
X2529Y1611D02*
X2536Y1611D01*
X0Y1610D02*
X13Y1610D01*
X2529Y1610D02*
X2536Y1610D01*
X0Y1609D02*
X13Y1609D01*
X2529Y1609D02*
X2536Y1609D01*
X0Y1608D02*
X13Y1608D01*
X2529Y1608D02*
X2536Y1608D01*
X0Y1607D02*
X13Y1607D01*
X2529Y1607D02*
X2536Y1607D01*
X0Y1606D02*
X13Y1606D01*
X2529Y1606D02*
X2536Y1606D01*
X0Y1605D02*
X13Y1605D01*
X2529Y1605D02*
X2536Y1605D01*
X0Y1604D02*
X13Y1604D01*
X2529Y1604D02*
X2536Y1604D01*
X0Y1603D02*
X13Y1603D01*
X2529Y1603D02*
X2536Y1603D01*
X0Y1602D02*
X13Y1602D01*
X2529Y1602D02*
X2536Y1602D01*
X0Y1601D02*
X13Y1601D01*
X2529Y1601D02*
X2536Y1601D01*
X0Y1600D02*
X13Y1600D01*
X2529Y1600D02*
X2536Y1600D01*
X0Y1599D02*
X13Y1599D01*
X2529Y1599D02*
X2536Y1599D01*
X0Y1598D02*
X13Y1598D01*
X2529Y1598D02*
X2536Y1598D01*
X0Y1597D02*
X13Y1597D01*
X2529Y1597D02*
X2536Y1597D01*
X0Y1596D02*
X13Y1596D01*
X2529Y1596D02*
X2536Y1596D01*
X0Y1595D02*
X13Y1595D01*
X2529Y1595D02*
X2536Y1595D01*
X0Y1594D02*
X13Y1594D01*
X2529Y1594D02*
X2536Y1594D01*
X0Y1593D02*
X13Y1593D01*
X2529Y1593D02*
X2536Y1593D01*
X0Y1592D02*
X13Y1592D01*
X2529Y1592D02*
X2536Y1592D01*
X0Y1591D02*
X13Y1591D01*
X2529Y1591D02*
X2536Y1591D01*
X0Y1590D02*
X13Y1590D01*
X2529Y1590D02*
X2536Y1590D01*
X0Y1589D02*
X13Y1589D01*
X2529Y1589D02*
X2536Y1589D01*
X0Y1588D02*
X13Y1588D01*
X2529Y1588D02*
X2536Y1588D01*
X0Y1587D02*
X13Y1587D01*
X2529Y1587D02*
X2536Y1587D01*
X0Y1586D02*
X13Y1586D01*
X2529Y1586D02*
X2536Y1586D01*
X0Y1585D02*
X13Y1585D01*
X2529Y1585D02*
X2536Y1585D01*
X0Y1584D02*
X13Y1584D01*
X2529Y1584D02*
X2536Y1584D01*
X0Y1583D02*
X13Y1583D01*
X2529Y1583D02*
X2536Y1583D01*
X0Y1582D02*
X13Y1582D01*
X2529Y1582D02*
X2536Y1582D01*
X0Y1581D02*
X13Y1581D01*
X2529Y1581D02*
X2536Y1581D01*
X0Y1580D02*
X13Y1580D01*
X2529Y1580D02*
X2536Y1580D01*
X0Y1579D02*
X13Y1579D01*
X2529Y1579D02*
X2536Y1579D01*
X0Y1578D02*
X13Y1578D01*
X2529Y1578D02*
X2536Y1578D01*
X0Y1577D02*
X13Y1577D01*
X2529Y1577D02*
X2536Y1577D01*
X0Y1576D02*
X13Y1576D01*
X2529Y1576D02*
X2536Y1576D01*
X0Y1575D02*
X13Y1575D01*
X2529Y1575D02*
X2536Y1575D01*
X0Y1574D02*
X13Y1574D01*
X2529Y1574D02*
X2536Y1574D01*
X0Y1573D02*
X13Y1573D01*
X2529Y1573D02*
X2536Y1573D01*
X0Y1572D02*
X13Y1572D01*
X2529Y1572D02*
X2536Y1572D01*
X0Y1571D02*
X13Y1571D01*
X2529Y1571D02*
X2536Y1571D01*
X0Y1570D02*
X13Y1570D01*
X2529Y1570D02*
X2536Y1570D01*
X0Y1569D02*
X13Y1569D01*
X2529Y1569D02*
X2536Y1569D01*
X0Y1568D02*
X13Y1568D01*
X2529Y1568D02*
X2536Y1568D01*
X0Y1567D02*
X13Y1567D01*
X2529Y1567D02*
X2536Y1567D01*
X0Y1566D02*
X13Y1566D01*
X2529Y1566D02*
X2536Y1566D01*
X0Y1565D02*
X13Y1565D01*
X2529Y1565D02*
X2536Y1565D01*
X0Y1564D02*
X13Y1564D01*
X2529Y1564D02*
X2536Y1564D01*
X0Y1563D02*
X13Y1563D01*
X2529Y1563D02*
X2536Y1563D01*
X0Y1562D02*
X13Y1562D01*
X2529Y1562D02*
X2536Y1562D01*
X0Y1561D02*
X13Y1561D01*
X2529Y1561D02*
X2536Y1561D01*
X0Y1560D02*
X13Y1560D01*
X2529Y1560D02*
X2536Y1560D01*
X0Y1559D02*
X13Y1559D01*
X2529Y1559D02*
X2536Y1559D01*
X0Y1558D02*
X13Y1558D01*
X2529Y1558D02*
X2536Y1558D01*
X0Y1557D02*
X13Y1557D01*
X2529Y1557D02*
X2536Y1557D01*
X0Y1556D02*
X13Y1556D01*
X2529Y1556D02*
X2536Y1556D01*
X0Y1555D02*
X13Y1555D01*
X2529Y1555D02*
X2536Y1555D01*
X0Y1554D02*
X13Y1554D01*
X2529Y1554D02*
X2536Y1554D01*
X0Y1553D02*
X13Y1553D01*
X2529Y1553D02*
X2536Y1553D01*
X0Y1552D02*
X13Y1552D01*
X2529Y1552D02*
X2536Y1552D01*
X0Y1551D02*
X13Y1551D01*
X2529Y1551D02*
X2536Y1551D01*
X0Y1550D02*
X13Y1550D01*
X2529Y1550D02*
X2536Y1550D01*
X0Y1549D02*
X13Y1549D01*
X2529Y1549D02*
X2536Y1549D01*
X0Y1548D02*
X13Y1548D01*
X2529Y1548D02*
X2536Y1548D01*
X0Y1547D02*
X13Y1547D01*
X2529Y1547D02*
X2536Y1547D01*
X0Y1546D02*
X13Y1546D01*
X2529Y1546D02*
X2536Y1546D01*
X0Y1545D02*
X13Y1545D01*
X2529Y1545D02*
X2536Y1545D01*
X0Y1544D02*
X13Y1544D01*
X2529Y1544D02*
X2536Y1544D01*
X0Y1543D02*
X13Y1543D01*
X2529Y1543D02*
X2536Y1543D01*
X0Y1542D02*
X13Y1542D01*
X2529Y1542D02*
X2536Y1542D01*
X0Y1541D02*
X13Y1541D01*
X2529Y1541D02*
X2536Y1541D01*
X0Y1540D02*
X13Y1540D01*
X2529Y1540D02*
X2536Y1540D01*
X0Y1539D02*
X13Y1539D01*
X2529Y1539D02*
X2536Y1539D01*
X0Y1538D02*
X13Y1538D01*
X2529Y1538D02*
X2536Y1538D01*
X0Y1537D02*
X13Y1537D01*
X2529Y1537D02*
X2536Y1537D01*
X0Y1536D02*
X13Y1536D01*
X2529Y1536D02*
X2536Y1536D01*
X0Y1535D02*
X13Y1535D01*
X2529Y1535D02*
X2536Y1535D01*
X0Y1534D02*
X13Y1534D01*
X2529Y1534D02*
X2536Y1534D01*
X0Y1533D02*
X13Y1533D01*
X2529Y1533D02*
X2536Y1533D01*
X0Y1532D02*
X13Y1532D01*
X2529Y1532D02*
X2536Y1532D01*
X0Y1531D02*
X13Y1531D01*
X2529Y1531D02*
X2536Y1531D01*
X0Y1530D02*
X13Y1530D01*
X2529Y1530D02*
X2536Y1530D01*
X0Y1529D02*
X13Y1529D01*
X2529Y1529D02*
X2536Y1529D01*
X0Y1528D02*
X13Y1528D01*
X2529Y1528D02*
X2536Y1528D01*
X0Y1527D02*
X13Y1527D01*
X2529Y1527D02*
X2536Y1527D01*
X0Y1526D02*
X13Y1526D01*
X2529Y1526D02*
X2536Y1526D01*
X0Y1525D02*
X13Y1525D01*
X2529Y1525D02*
X2536Y1525D01*
X0Y1524D02*
X13Y1524D01*
X2529Y1524D02*
X2536Y1524D01*
X0Y1523D02*
X13Y1523D01*
X2529Y1523D02*
X2536Y1523D01*
X0Y1522D02*
X13Y1522D01*
X2529Y1522D02*
X2536Y1522D01*
X0Y1521D02*
X13Y1521D01*
X2529Y1521D02*
X2536Y1521D01*
X0Y1520D02*
X13Y1520D01*
X2529Y1520D02*
X2536Y1520D01*
X0Y1519D02*
X13Y1519D01*
X2529Y1519D02*
X2536Y1519D01*
X0Y1518D02*
X13Y1518D01*
X2529Y1518D02*
X2536Y1518D01*
X0Y1517D02*
X13Y1517D01*
X2529Y1517D02*
X2536Y1517D01*
X0Y1516D02*
X13Y1516D01*
X2529Y1516D02*
X2536Y1516D01*
X0Y1515D02*
X13Y1515D01*
X2529Y1515D02*
X2536Y1515D01*
X0Y1514D02*
X13Y1514D01*
X2529Y1514D02*
X2536Y1514D01*
X0Y1513D02*
X13Y1513D01*
X2529Y1513D02*
X2536Y1513D01*
X0Y1512D02*
X13Y1512D01*
X2529Y1512D02*
X2536Y1512D01*
X0Y1511D02*
X13Y1511D01*
X2529Y1511D02*
X2536Y1511D01*
X0Y1510D02*
X13Y1510D01*
X2529Y1510D02*
X2536Y1510D01*
X0Y1509D02*
X13Y1509D01*
X2529Y1509D02*
X2536Y1509D01*
X0Y1508D02*
X13Y1508D01*
X2529Y1508D02*
X2536Y1508D01*
X0Y1507D02*
X13Y1507D01*
X2529Y1507D02*
X2536Y1507D01*
X0Y1506D02*
X13Y1506D01*
X2529Y1506D02*
X2536Y1506D01*
X0Y1505D02*
X13Y1505D01*
X2529Y1505D02*
X2536Y1505D01*
X0Y1504D02*
X13Y1504D01*
X2529Y1504D02*
X2536Y1504D01*
X0Y1503D02*
X13Y1503D01*
X2529Y1503D02*
X2536Y1503D01*
X0Y1502D02*
X13Y1502D01*
X2529Y1502D02*
X2536Y1502D01*
X0Y1501D02*
X13Y1501D01*
X2529Y1501D02*
X2536Y1501D01*
X0Y1500D02*
X13Y1500D01*
X2529Y1500D02*
X2536Y1500D01*
X0Y1499D02*
X13Y1499D01*
X2529Y1499D02*
X2536Y1499D01*
X0Y1498D02*
X13Y1498D01*
X2529Y1498D02*
X2536Y1498D01*
X0Y1497D02*
X13Y1497D01*
X2529Y1497D02*
X2536Y1497D01*
X0Y1496D02*
X13Y1496D01*
X2529Y1496D02*
X2536Y1496D01*
X0Y1495D02*
X13Y1495D01*
X2529Y1495D02*
X2536Y1495D01*
X0Y1494D02*
X13Y1494D01*
X2529Y1494D02*
X2536Y1494D01*
X0Y1493D02*
X13Y1493D01*
X2529Y1493D02*
X2536Y1493D01*
X0Y1492D02*
X13Y1492D01*
X2529Y1492D02*
X2536Y1492D01*
X0Y1491D02*
X13Y1491D01*
X2529Y1491D02*
X2536Y1491D01*
X0Y1490D02*
X13Y1490D01*
X2529Y1490D02*
X2536Y1490D01*
X0Y1489D02*
X13Y1489D01*
X2529Y1489D02*
X2536Y1489D01*
X0Y1488D02*
X13Y1488D01*
X2529Y1488D02*
X2536Y1488D01*
X0Y1487D02*
X13Y1487D01*
X2529Y1487D02*
X2536Y1487D01*
X0Y1486D02*
X13Y1486D01*
X2529Y1486D02*
X2536Y1486D01*
X0Y1485D02*
X13Y1485D01*
X2529Y1485D02*
X2536Y1485D01*
X0Y1484D02*
X13Y1484D01*
X2529Y1484D02*
X2536Y1484D01*
X0Y1483D02*
X13Y1483D01*
X2529Y1483D02*
X2536Y1483D01*
X0Y1482D02*
X13Y1482D01*
X2529Y1482D02*
X2536Y1482D01*
X0Y1481D02*
X13Y1481D01*
X2529Y1481D02*
X2536Y1481D01*
X0Y1480D02*
X13Y1480D01*
X2529Y1480D02*
X2536Y1480D01*
X0Y1479D02*
X13Y1479D01*
X2529Y1479D02*
X2536Y1479D01*
X0Y1478D02*
X13Y1478D01*
X2529Y1478D02*
X2536Y1478D01*
X0Y1477D02*
X13Y1477D01*
X2529Y1477D02*
X2536Y1477D01*
X0Y1476D02*
X13Y1476D01*
X2529Y1476D02*
X2536Y1476D01*
X0Y1475D02*
X13Y1475D01*
X2529Y1475D02*
X2536Y1475D01*
X0Y1474D02*
X13Y1474D01*
X2529Y1474D02*
X2536Y1474D01*
X0Y1473D02*
X13Y1473D01*
X2529Y1473D02*
X2536Y1473D01*
X0Y1472D02*
X13Y1472D01*
X2529Y1472D02*
X2536Y1472D01*
X0Y1471D02*
X13Y1471D01*
X2529Y1471D02*
X2536Y1471D01*
X0Y1470D02*
X13Y1470D01*
X2122Y1470D02*
X2141Y1470D01*
X2529Y1470D02*
X2536Y1470D01*
X0Y1469D02*
X13Y1469D01*
X2121Y1469D02*
X2143Y1469D01*
X2529Y1469D02*
X2536Y1469D01*
X0Y1468D02*
X13Y1468D01*
X2120Y1468D02*
X2143Y1468D01*
X2529Y1468D02*
X2536Y1468D01*
X0Y1467D02*
X13Y1467D01*
X2120Y1467D02*
X2144Y1467D01*
X2529Y1467D02*
X2536Y1467D01*
X0Y1466D02*
X13Y1466D01*
X2120Y1466D02*
X2144Y1466D01*
X2529Y1466D02*
X2536Y1466D01*
X0Y1465D02*
X13Y1465D01*
X2120Y1465D02*
X2144Y1465D01*
X2529Y1465D02*
X2536Y1465D01*
X0Y1464D02*
X13Y1464D01*
X2121Y1464D02*
X2144Y1464D01*
X2529Y1464D02*
X2536Y1464D01*
X0Y1463D02*
X13Y1463D01*
X2137Y1463D02*
X2144Y1463D01*
X2529Y1463D02*
X2536Y1463D01*
X0Y1462D02*
X13Y1462D01*
X2138Y1462D02*
X2144Y1462D01*
X2529Y1462D02*
X2536Y1462D01*
X0Y1461D02*
X13Y1461D01*
X2138Y1461D02*
X2144Y1461D01*
X2529Y1461D02*
X2536Y1461D01*
X0Y1460D02*
X13Y1460D01*
X2138Y1460D02*
X2144Y1460D01*
X2529Y1460D02*
X2536Y1460D01*
X0Y1459D02*
X13Y1459D01*
X2138Y1459D02*
X2144Y1459D01*
X2529Y1459D02*
X2536Y1459D01*
X0Y1458D02*
X13Y1458D01*
X2138Y1458D02*
X2144Y1458D01*
X2529Y1458D02*
X2536Y1458D01*
X0Y1457D02*
X13Y1457D01*
X2138Y1457D02*
X2144Y1457D01*
X2529Y1457D02*
X2536Y1457D01*
X0Y1456D02*
X13Y1456D01*
X2090Y1456D02*
X2144Y1456D01*
X2529Y1456D02*
X2536Y1456D01*
X0Y1455D02*
X13Y1455D01*
X2090Y1455D02*
X2144Y1455D01*
X2529Y1455D02*
X2536Y1455D01*
X0Y1454D02*
X13Y1454D01*
X2090Y1454D02*
X2144Y1454D01*
X2529Y1454D02*
X2536Y1454D01*
X0Y1453D02*
X13Y1453D01*
X2090Y1453D02*
X2144Y1453D01*
X2529Y1453D02*
X2536Y1453D01*
X0Y1452D02*
X13Y1452D01*
X2090Y1452D02*
X2144Y1452D01*
X2529Y1452D02*
X2536Y1452D01*
X0Y1451D02*
X13Y1451D01*
X2090Y1451D02*
X2144Y1451D01*
X2529Y1451D02*
X2536Y1451D01*
X0Y1450D02*
X13Y1450D01*
X2090Y1450D02*
X2144Y1450D01*
X2529Y1450D02*
X2536Y1450D01*
X0Y1449D02*
X13Y1449D01*
X2090Y1449D02*
X2096Y1449D01*
X2138Y1449D02*
X2144Y1449D01*
X2529Y1449D02*
X2536Y1449D01*
X0Y1448D02*
X13Y1448D01*
X2090Y1448D02*
X2096Y1448D01*
X2138Y1448D02*
X2144Y1448D01*
X2529Y1448D02*
X2536Y1448D01*
X0Y1447D02*
X13Y1447D01*
X2090Y1447D02*
X2096Y1447D01*
X2138Y1447D02*
X2144Y1447D01*
X2529Y1447D02*
X2536Y1447D01*
X0Y1446D02*
X13Y1446D01*
X2090Y1446D02*
X2096Y1446D01*
X2138Y1446D02*
X2144Y1446D01*
X2529Y1446D02*
X2536Y1446D01*
X0Y1445D02*
X13Y1445D01*
X2090Y1445D02*
X2096Y1445D01*
X2138Y1445D02*
X2144Y1445D01*
X2529Y1445D02*
X2536Y1445D01*
X0Y1444D02*
X13Y1444D01*
X2090Y1444D02*
X2096Y1444D01*
X2138Y1444D02*
X2144Y1444D01*
X2529Y1444D02*
X2536Y1444D01*
X0Y1443D02*
X13Y1443D01*
X2090Y1443D02*
X2096Y1443D01*
X2138Y1443D02*
X2144Y1443D01*
X2529Y1443D02*
X2536Y1443D01*
X0Y1442D02*
X13Y1442D01*
X2090Y1442D02*
X2096Y1442D01*
X2138Y1442D02*
X2144Y1442D01*
X2529Y1442D02*
X2536Y1442D01*
X0Y1441D02*
X13Y1441D01*
X2090Y1441D02*
X2096Y1441D01*
X2138Y1441D02*
X2144Y1441D01*
X2529Y1441D02*
X2536Y1441D01*
X0Y1440D02*
X13Y1440D01*
X2090Y1440D02*
X2096Y1440D01*
X2138Y1440D02*
X2144Y1440D01*
X2529Y1440D02*
X2536Y1440D01*
X0Y1439D02*
X13Y1439D01*
X2090Y1439D02*
X2096Y1439D01*
X2138Y1439D02*
X2144Y1439D01*
X2529Y1439D02*
X2536Y1439D01*
X0Y1438D02*
X13Y1438D01*
X2091Y1438D02*
X2096Y1438D01*
X2138Y1438D02*
X2143Y1438D01*
X2529Y1438D02*
X2536Y1438D01*
X0Y1437D02*
X13Y1437D01*
X2091Y1437D02*
X2096Y1437D01*
X2138Y1437D02*
X2143Y1437D01*
X2529Y1437D02*
X2536Y1437D01*
X0Y1436D02*
X13Y1436D01*
X2093Y1436D02*
X2094Y1436D01*
X2140Y1436D02*
X2141Y1436D01*
X2529Y1436D02*
X2536Y1436D01*
X0Y1435D02*
X13Y1435D01*
X2529Y1435D02*
X2536Y1435D01*
X0Y1434D02*
X13Y1434D01*
X2529Y1434D02*
X2536Y1434D01*
X0Y1433D02*
X13Y1433D01*
X2529Y1433D02*
X2536Y1433D01*
X0Y1432D02*
X13Y1432D01*
X2529Y1432D02*
X2536Y1432D01*
X0Y1431D02*
X13Y1431D01*
X2529Y1431D02*
X2536Y1431D01*
X0Y1430D02*
X13Y1430D01*
X2529Y1430D02*
X2536Y1430D01*
X0Y1429D02*
X13Y1429D01*
X2529Y1429D02*
X2536Y1429D01*
X0Y1428D02*
X13Y1428D01*
X2529Y1428D02*
X2536Y1428D01*
X0Y1427D02*
X13Y1427D01*
X2529Y1427D02*
X2536Y1427D01*
X0Y1426D02*
X13Y1426D01*
X2529Y1426D02*
X2536Y1426D01*
X0Y1425D02*
X13Y1425D01*
X2529Y1425D02*
X2536Y1425D01*
X0Y1424D02*
X13Y1424D01*
X2529Y1424D02*
X2536Y1424D01*
X0Y1423D02*
X13Y1423D01*
X2529Y1423D02*
X2536Y1423D01*
X0Y1422D02*
X13Y1422D01*
X2529Y1422D02*
X2536Y1422D01*
X0Y1421D02*
X13Y1421D01*
X2529Y1421D02*
X2536Y1421D01*
X0Y1420D02*
X13Y1420D01*
X2134Y1420D02*
X2136Y1420D01*
X2529Y1420D02*
X2536Y1420D01*
X0Y1419D02*
X13Y1419D01*
X2133Y1419D02*
X2138Y1419D01*
X2529Y1419D02*
X2536Y1419D01*
X0Y1418D02*
X13Y1418D01*
X2132Y1418D02*
X2140Y1418D01*
X2529Y1418D02*
X2536Y1418D01*
X0Y1417D02*
X13Y1417D01*
X2132Y1417D02*
X2141Y1417D01*
X2529Y1417D02*
X2536Y1417D01*
X0Y1416D02*
X13Y1416D01*
X2107Y1416D02*
X2110Y1416D01*
X2132Y1416D02*
X2142Y1416D01*
X2529Y1416D02*
X2536Y1416D01*
X0Y1415D02*
X13Y1415D01*
X2106Y1415D02*
X2111Y1415D01*
X2132Y1415D02*
X2142Y1415D01*
X2529Y1415D02*
X2536Y1415D01*
X0Y1414D02*
X13Y1414D01*
X2105Y1414D02*
X2111Y1414D01*
X2133Y1414D02*
X2143Y1414D01*
X2529Y1414D02*
X2536Y1414D01*
X0Y1413D02*
X13Y1413D01*
X2105Y1413D02*
X2111Y1413D01*
X2135Y1413D02*
X2143Y1413D01*
X2529Y1413D02*
X2536Y1413D01*
X0Y1412D02*
X13Y1412D01*
X2105Y1412D02*
X2111Y1412D01*
X2137Y1412D02*
X2143Y1412D01*
X2529Y1412D02*
X2536Y1412D01*
X0Y1411D02*
X13Y1411D01*
X2105Y1411D02*
X2111Y1411D01*
X2137Y1411D02*
X2144Y1411D01*
X2529Y1411D02*
X2536Y1411D01*
X0Y1410D02*
X13Y1410D01*
X2105Y1410D02*
X2111Y1410D01*
X2138Y1410D02*
X2144Y1410D01*
X2529Y1410D02*
X2536Y1410D01*
X0Y1409D02*
X13Y1409D01*
X2105Y1409D02*
X2111Y1409D01*
X2138Y1409D02*
X2144Y1409D01*
X2529Y1409D02*
X2536Y1409D01*
X0Y1408D02*
X13Y1408D01*
X2105Y1408D02*
X2111Y1408D01*
X2138Y1408D02*
X2144Y1408D01*
X2529Y1408D02*
X2536Y1408D01*
X0Y1407D02*
X13Y1407D01*
X2105Y1407D02*
X2111Y1407D01*
X2138Y1407D02*
X2144Y1407D01*
X2529Y1407D02*
X2536Y1407D01*
X0Y1406D02*
X13Y1406D01*
X2105Y1406D02*
X2111Y1406D01*
X2138Y1406D02*
X2144Y1406D01*
X2529Y1406D02*
X2536Y1406D01*
X0Y1405D02*
X13Y1405D01*
X2105Y1405D02*
X2111Y1405D01*
X2138Y1405D02*
X2144Y1405D01*
X2529Y1405D02*
X2536Y1405D01*
X0Y1404D02*
X13Y1404D01*
X2105Y1404D02*
X2111Y1404D01*
X2138Y1404D02*
X2144Y1404D01*
X2529Y1404D02*
X2536Y1404D01*
X0Y1403D02*
X13Y1403D01*
X2105Y1403D02*
X2111Y1403D01*
X2138Y1403D02*
X2144Y1403D01*
X2529Y1403D02*
X2536Y1403D01*
X0Y1402D02*
X13Y1402D01*
X2105Y1402D02*
X2111Y1402D01*
X2137Y1402D02*
X2144Y1402D01*
X2529Y1402D02*
X2536Y1402D01*
X0Y1401D02*
X13Y1401D01*
X2105Y1401D02*
X2111Y1401D01*
X2137Y1401D02*
X2143Y1401D01*
X2529Y1401D02*
X2536Y1401D01*
X0Y1400D02*
X13Y1400D01*
X2105Y1400D02*
X2111Y1400D01*
X2136Y1400D02*
X2143Y1400D01*
X2529Y1400D02*
X2536Y1400D01*
X0Y1399D02*
X13Y1399D01*
X2095Y1399D02*
X2143Y1399D01*
X2529Y1399D02*
X2536Y1399D01*
X0Y1398D02*
X13Y1398D01*
X2094Y1398D02*
X2142Y1398D01*
X2529Y1398D02*
X2536Y1398D01*
X0Y1397D02*
X13Y1397D01*
X2093Y1397D02*
X2142Y1397D01*
X2529Y1397D02*
X2536Y1397D01*
X0Y1396D02*
X13Y1396D01*
X2093Y1396D02*
X2141Y1396D01*
X2529Y1396D02*
X2536Y1396D01*
X0Y1395D02*
X13Y1395D01*
X2094Y1395D02*
X2140Y1395D01*
X2529Y1395D02*
X2536Y1395D01*
X0Y1394D02*
X13Y1394D01*
X2094Y1394D02*
X2138Y1394D01*
X2529Y1394D02*
X2536Y1394D01*
X0Y1393D02*
X13Y1393D01*
X2095Y1393D02*
X2136Y1393D01*
X2529Y1393D02*
X2536Y1393D01*
X0Y1392D02*
X13Y1392D01*
X2105Y1392D02*
X2111Y1392D01*
X2529Y1392D02*
X2536Y1392D01*
X0Y1391D02*
X13Y1391D01*
X2105Y1391D02*
X2111Y1391D01*
X2529Y1391D02*
X2536Y1391D01*
X0Y1390D02*
X13Y1390D01*
X2105Y1390D02*
X2111Y1390D01*
X2529Y1390D02*
X2536Y1390D01*
X0Y1389D02*
X13Y1389D01*
X2105Y1389D02*
X2111Y1389D01*
X2529Y1389D02*
X2536Y1389D01*
X0Y1388D02*
X13Y1388D01*
X2105Y1388D02*
X2111Y1388D01*
X2529Y1388D02*
X2536Y1388D01*
X0Y1387D02*
X13Y1387D01*
X2106Y1387D02*
X2110Y1387D01*
X2529Y1387D02*
X2536Y1387D01*
X0Y1386D02*
X13Y1386D01*
X2107Y1386D02*
X2109Y1386D01*
X2529Y1386D02*
X2536Y1386D01*
X0Y1385D02*
X13Y1385D01*
X2529Y1385D02*
X2536Y1385D01*
X0Y1384D02*
X13Y1384D01*
X2529Y1384D02*
X2536Y1384D01*
X0Y1383D02*
X13Y1383D01*
X2529Y1383D02*
X2536Y1383D01*
X0Y1382D02*
X13Y1382D01*
X2529Y1382D02*
X2536Y1382D01*
X0Y1381D02*
X13Y1381D01*
X2529Y1381D02*
X2536Y1381D01*
X0Y1380D02*
X13Y1380D01*
X2529Y1380D02*
X2536Y1380D01*
X0Y1379D02*
X13Y1379D01*
X2529Y1379D02*
X2536Y1379D01*
X0Y1378D02*
X13Y1378D01*
X2529Y1378D02*
X2536Y1378D01*
X0Y1377D02*
X13Y1377D01*
X2529Y1377D02*
X2536Y1377D01*
X0Y1376D02*
X13Y1376D01*
X2529Y1376D02*
X2536Y1376D01*
X0Y1375D02*
X13Y1375D01*
X2529Y1375D02*
X2536Y1375D01*
X0Y1374D02*
X13Y1374D01*
X2529Y1374D02*
X2536Y1374D01*
X0Y1373D02*
X13Y1373D01*
X2529Y1373D02*
X2536Y1373D01*
X0Y1372D02*
X13Y1372D01*
X2529Y1372D02*
X2536Y1372D01*
X0Y1371D02*
X13Y1371D01*
X2529Y1371D02*
X2536Y1371D01*
X0Y1370D02*
X13Y1370D01*
X2113Y1370D02*
X2118Y1370D01*
X2529Y1370D02*
X2536Y1370D01*
X0Y1369D02*
X13Y1369D01*
X2111Y1369D02*
X2119Y1369D01*
X2529Y1369D02*
X2536Y1369D01*
X0Y1368D02*
X13Y1368D01*
X2109Y1368D02*
X2120Y1368D01*
X2529Y1368D02*
X2536Y1368D01*
X0Y1367D02*
X13Y1367D01*
X2108Y1367D02*
X2120Y1367D01*
X2529Y1367D02*
X2536Y1367D01*
X0Y1366D02*
X13Y1366D01*
X2107Y1366D02*
X2120Y1366D01*
X2529Y1366D02*
X2536Y1366D01*
X0Y1365D02*
X13Y1365D01*
X2107Y1365D02*
X2119Y1365D01*
X2529Y1365D02*
X2536Y1365D01*
X0Y1364D02*
X13Y1364D01*
X2106Y1364D02*
X2119Y1364D01*
X2529Y1364D02*
X2536Y1364D01*
X0Y1363D02*
X13Y1363D01*
X2106Y1363D02*
X2113Y1363D01*
X2529Y1363D02*
X2536Y1363D01*
X0Y1362D02*
X13Y1362D01*
X2105Y1362D02*
X2112Y1362D01*
X2529Y1362D02*
X2536Y1362D01*
X0Y1361D02*
X13Y1361D01*
X2105Y1361D02*
X2111Y1361D01*
X2529Y1361D02*
X2536Y1361D01*
X0Y1360D02*
X13Y1360D01*
X2105Y1360D02*
X2111Y1360D01*
X2529Y1360D02*
X2536Y1360D01*
X0Y1359D02*
X13Y1359D01*
X2105Y1359D02*
X2111Y1359D01*
X2529Y1359D02*
X2536Y1359D01*
X0Y1358D02*
X13Y1358D01*
X2105Y1358D02*
X2111Y1358D01*
X2529Y1358D02*
X2536Y1358D01*
X0Y1357D02*
X13Y1357D01*
X2105Y1357D02*
X2111Y1357D01*
X2529Y1357D02*
X2536Y1357D01*
X0Y1356D02*
X13Y1356D01*
X2105Y1356D02*
X2111Y1356D01*
X2529Y1356D02*
X2536Y1356D01*
X0Y1355D02*
X13Y1355D01*
X2105Y1355D02*
X2111Y1355D01*
X2529Y1355D02*
X2536Y1355D01*
X0Y1354D02*
X13Y1354D01*
X2105Y1354D02*
X2111Y1354D01*
X2529Y1354D02*
X2536Y1354D01*
X0Y1353D02*
X13Y1353D01*
X2105Y1353D02*
X2112Y1353D01*
X2529Y1353D02*
X2536Y1353D01*
X0Y1352D02*
X13Y1352D01*
X2105Y1352D02*
X2113Y1352D01*
X2529Y1352D02*
X2536Y1352D01*
X0Y1351D02*
X13Y1351D01*
X2106Y1351D02*
X2114Y1351D01*
X2529Y1351D02*
X2536Y1351D01*
X0Y1350D02*
X13Y1350D01*
X2107Y1350D02*
X2115Y1350D01*
X2529Y1350D02*
X2536Y1350D01*
X0Y1349D02*
X13Y1349D01*
X2107Y1349D02*
X2116Y1349D01*
X2529Y1349D02*
X2536Y1349D01*
X0Y1348D02*
X13Y1348D01*
X2108Y1348D02*
X2117Y1348D01*
X2529Y1348D02*
X2536Y1348D01*
X0Y1347D02*
X13Y1347D01*
X2109Y1347D02*
X2117Y1347D01*
X2529Y1347D02*
X2536Y1347D01*
X0Y1346D02*
X13Y1346D01*
X2110Y1346D02*
X2118Y1346D01*
X2529Y1346D02*
X2536Y1346D01*
X0Y1345D02*
X13Y1345D01*
X2111Y1345D02*
X2119Y1345D01*
X2529Y1345D02*
X2536Y1345D01*
X0Y1344D02*
X13Y1344D01*
X2112Y1344D02*
X2120Y1344D01*
X2529Y1344D02*
X2536Y1344D01*
X0Y1343D02*
X13Y1343D01*
X2112Y1343D02*
X2121Y1343D01*
X2529Y1343D02*
X2536Y1343D01*
X0Y1342D02*
X13Y1342D01*
X2107Y1342D02*
X2142Y1342D01*
X2529Y1342D02*
X2536Y1342D01*
X0Y1341D02*
X13Y1341D01*
X2106Y1341D02*
X2143Y1341D01*
X2529Y1341D02*
X2536Y1341D01*
X0Y1340D02*
X13Y1340D01*
X2105Y1340D02*
X2144Y1340D01*
X2529Y1340D02*
X2536Y1340D01*
X0Y1339D02*
X13Y1339D01*
X2105Y1339D02*
X2144Y1339D01*
X2529Y1339D02*
X2536Y1339D01*
X0Y1338D02*
X13Y1338D01*
X2105Y1338D02*
X2143Y1338D01*
X2529Y1338D02*
X2536Y1338D01*
X0Y1337D02*
X13Y1337D01*
X2106Y1337D02*
X2143Y1337D01*
X2529Y1337D02*
X2536Y1337D01*
X0Y1336D02*
X13Y1336D01*
X2107Y1336D02*
X2141Y1336D01*
X2529Y1336D02*
X2536Y1336D01*
X0Y1335D02*
X13Y1335D01*
X2529Y1335D02*
X2536Y1335D01*
X0Y1334D02*
X13Y1334D01*
X2529Y1334D02*
X2536Y1334D01*
X0Y1333D02*
X13Y1333D01*
X2529Y1333D02*
X2536Y1333D01*
X0Y1332D02*
X13Y1332D01*
X2529Y1332D02*
X2536Y1332D01*
X0Y1331D02*
X13Y1331D01*
X2529Y1331D02*
X2536Y1331D01*
X0Y1330D02*
X13Y1330D01*
X2529Y1330D02*
X2536Y1330D01*
X0Y1329D02*
X13Y1329D01*
X2529Y1329D02*
X2536Y1329D01*
X0Y1328D02*
X13Y1328D01*
X2529Y1328D02*
X2536Y1328D01*
X0Y1327D02*
X13Y1327D01*
X2529Y1327D02*
X2536Y1327D01*
X0Y1326D02*
X13Y1326D01*
X2529Y1326D02*
X2536Y1326D01*
X0Y1325D02*
X13Y1325D01*
X2529Y1325D02*
X2536Y1325D01*
X0Y1324D02*
X13Y1324D01*
X2529Y1324D02*
X2536Y1324D01*
X0Y1323D02*
X13Y1323D01*
X2529Y1323D02*
X2536Y1323D01*
X0Y1322D02*
X13Y1322D01*
X2529Y1322D02*
X2536Y1322D01*
X0Y1321D02*
X13Y1321D01*
X2529Y1321D02*
X2536Y1321D01*
X0Y1320D02*
X13Y1320D01*
X2131Y1320D02*
X2142Y1320D01*
X2529Y1320D02*
X2536Y1320D01*
X0Y1319D02*
X13Y1319D01*
X2112Y1319D02*
X2143Y1319D01*
X2529Y1319D02*
X2536Y1319D01*
X0Y1318D02*
X13Y1318D01*
X2110Y1318D02*
X2143Y1318D01*
X2529Y1318D02*
X2536Y1318D01*
X0Y1317D02*
X13Y1317D01*
X2109Y1317D02*
X2144Y1317D01*
X2529Y1317D02*
X2536Y1317D01*
X0Y1316D02*
X13Y1316D01*
X2108Y1316D02*
X2143Y1316D01*
X2529Y1316D02*
X2536Y1316D01*
X0Y1315D02*
X13Y1315D01*
X2107Y1315D02*
X2143Y1315D01*
X2529Y1315D02*
X2536Y1315D01*
X0Y1314D02*
X13Y1314D01*
X2106Y1314D02*
X2142Y1314D01*
X2529Y1314D02*
X2536Y1314D01*
X0Y1313D02*
X13Y1313D01*
X2106Y1313D02*
X2140Y1313D01*
X2529Y1313D02*
X2536Y1313D01*
X0Y1312D02*
X13Y1312D01*
X2106Y1312D02*
X2113Y1312D01*
X2120Y1312D02*
X2127Y1312D01*
X2134Y1312D02*
X2141Y1312D01*
X2529Y1312D02*
X2536Y1312D01*
X0Y1311D02*
X13Y1311D01*
X2105Y1311D02*
X2112Y1311D01*
X2120Y1311D02*
X2126Y1311D01*
X2134Y1311D02*
X2141Y1311D01*
X2529Y1311D02*
X2536Y1311D01*
X0Y1310D02*
X13Y1310D01*
X2105Y1310D02*
X2111Y1310D01*
X2120Y1310D02*
X2126Y1310D01*
X2135Y1310D02*
X2142Y1310D01*
X2529Y1310D02*
X2536Y1310D01*
X0Y1309D02*
X13Y1309D01*
X2105Y1309D02*
X2111Y1309D01*
X2120Y1309D02*
X2126Y1309D01*
X2136Y1309D02*
X2143Y1309D01*
X2529Y1309D02*
X2536Y1309D01*
X0Y1308D02*
X13Y1308D01*
X2105Y1308D02*
X2111Y1308D01*
X2120Y1308D02*
X2126Y1308D01*
X2136Y1308D02*
X2143Y1308D01*
X2529Y1308D02*
X2536Y1308D01*
X0Y1307D02*
X13Y1307D01*
X2105Y1307D02*
X2111Y1307D01*
X2120Y1307D02*
X2126Y1307D01*
X2137Y1307D02*
X2144Y1307D01*
X2529Y1307D02*
X2536Y1307D01*
X0Y1306D02*
X13Y1306D01*
X2105Y1306D02*
X2111Y1306D01*
X2120Y1306D02*
X2126Y1306D01*
X2137Y1306D02*
X2144Y1306D01*
X2529Y1306D02*
X2536Y1306D01*
X0Y1305D02*
X13Y1305D01*
X2105Y1305D02*
X2111Y1305D01*
X2120Y1305D02*
X2126Y1305D01*
X2138Y1305D02*
X2144Y1305D01*
X2529Y1305D02*
X2536Y1305D01*
X0Y1304D02*
X13Y1304D01*
X2105Y1304D02*
X2111Y1304D01*
X2120Y1304D02*
X2126Y1304D01*
X2138Y1304D02*
X2144Y1304D01*
X2529Y1304D02*
X2536Y1304D01*
X0Y1303D02*
X13Y1303D01*
X2105Y1303D02*
X2111Y1303D01*
X2120Y1303D02*
X2126Y1303D01*
X2138Y1303D02*
X2144Y1303D01*
X2529Y1303D02*
X2536Y1303D01*
X0Y1302D02*
X13Y1302D01*
X2105Y1302D02*
X2111Y1302D01*
X2120Y1302D02*
X2126Y1302D01*
X2138Y1302D02*
X2144Y1302D01*
X2529Y1302D02*
X2536Y1302D01*
X0Y1301D02*
X13Y1301D01*
X2105Y1301D02*
X2111Y1301D01*
X2120Y1301D02*
X2126Y1301D01*
X2138Y1301D02*
X2144Y1301D01*
X2529Y1301D02*
X2536Y1301D01*
X0Y1300D02*
X13Y1300D01*
X2105Y1300D02*
X2111Y1300D01*
X2120Y1300D02*
X2126Y1300D01*
X2138Y1300D02*
X2144Y1300D01*
X2529Y1300D02*
X2536Y1300D01*
X0Y1299D02*
X13Y1299D01*
X2105Y1299D02*
X2111Y1299D01*
X2120Y1299D02*
X2126Y1299D01*
X2138Y1299D02*
X2144Y1299D01*
X2529Y1299D02*
X2536Y1299D01*
X0Y1298D02*
X13Y1298D01*
X2105Y1298D02*
X2111Y1298D01*
X2120Y1298D02*
X2126Y1298D01*
X2138Y1298D02*
X2144Y1298D01*
X2529Y1298D02*
X2536Y1298D01*
X0Y1297D02*
X13Y1297D01*
X2105Y1297D02*
X2111Y1297D01*
X2120Y1297D02*
X2126Y1297D01*
X2138Y1297D02*
X2144Y1297D01*
X2529Y1297D02*
X2536Y1297D01*
X0Y1296D02*
X13Y1296D01*
X2105Y1296D02*
X2111Y1296D01*
X2120Y1296D02*
X2126Y1296D01*
X2138Y1296D02*
X2144Y1296D01*
X2529Y1296D02*
X2536Y1296D01*
X0Y1295D02*
X13Y1295D01*
X2105Y1295D02*
X2111Y1295D01*
X2120Y1295D02*
X2126Y1295D01*
X2137Y1295D02*
X2144Y1295D01*
X2529Y1295D02*
X2536Y1295D01*
X0Y1294D02*
X13Y1294D01*
X2106Y1294D02*
X2110Y1294D01*
X2120Y1294D02*
X2127Y1294D01*
X2137Y1294D02*
X2143Y1294D01*
X2529Y1294D02*
X2536Y1294D01*
X0Y1293D02*
X13Y1293D01*
X2107Y1293D02*
X2109Y1293D01*
X2120Y1293D02*
X2128Y1293D01*
X2135Y1293D02*
X2143Y1293D01*
X2529Y1293D02*
X2536Y1293D01*
X0Y1292D02*
X13Y1292D01*
X2121Y1292D02*
X2143Y1292D01*
X2529Y1292D02*
X2536Y1292D01*
X0Y1291D02*
X13Y1291D01*
X2121Y1291D02*
X2142Y1291D01*
X2529Y1291D02*
X2536Y1291D01*
X0Y1290D02*
X13Y1290D01*
X2122Y1290D02*
X2142Y1290D01*
X2529Y1290D02*
X2536Y1290D01*
X0Y1289D02*
X13Y1289D01*
X2123Y1289D02*
X2141Y1289D01*
X2529Y1289D02*
X2536Y1289D01*
X0Y1288D02*
X13Y1288D01*
X2124Y1288D02*
X2140Y1288D01*
X2529Y1288D02*
X2536Y1288D01*
X0Y1287D02*
X13Y1287D01*
X2125Y1287D02*
X2138Y1287D01*
X2529Y1287D02*
X2536Y1287D01*
X0Y1286D02*
X13Y1286D01*
X2128Y1286D02*
X2135Y1286D01*
X2529Y1286D02*
X2536Y1286D01*
X0Y1285D02*
X13Y1285D01*
X2529Y1285D02*
X2536Y1285D01*
X0Y1284D02*
X13Y1284D01*
X2529Y1284D02*
X2536Y1284D01*
X0Y1283D02*
X13Y1283D01*
X2529Y1283D02*
X2536Y1283D01*
X0Y1282D02*
X13Y1282D01*
X2529Y1282D02*
X2536Y1282D01*
X0Y1281D02*
X13Y1281D01*
X2529Y1281D02*
X2536Y1281D01*
X0Y1280D02*
X13Y1280D01*
X2529Y1280D02*
X2536Y1280D01*
X0Y1279D02*
X13Y1279D01*
X2529Y1279D02*
X2536Y1279D01*
X0Y1278D02*
X13Y1278D01*
X2529Y1278D02*
X2536Y1278D01*
X0Y1277D02*
X13Y1277D01*
X2529Y1277D02*
X2536Y1277D01*
X0Y1276D02*
X13Y1276D01*
X2529Y1276D02*
X2536Y1276D01*
X0Y1275D02*
X13Y1275D01*
X2529Y1275D02*
X2536Y1275D01*
X0Y1274D02*
X13Y1274D01*
X2529Y1274D02*
X2536Y1274D01*
X0Y1273D02*
X13Y1273D01*
X2529Y1273D02*
X2536Y1273D01*
X0Y1272D02*
X13Y1272D01*
X2529Y1272D02*
X2536Y1272D01*
X0Y1271D02*
X13Y1271D01*
X2529Y1271D02*
X2536Y1271D01*
X0Y1270D02*
X13Y1270D01*
X2098Y1270D02*
X2115Y1270D01*
X2529Y1270D02*
X2536Y1270D01*
X0Y1269D02*
X13Y1269D01*
X2096Y1269D02*
X2118Y1269D01*
X2529Y1269D02*
X2536Y1269D01*
X0Y1268D02*
X13Y1268D01*
X2094Y1268D02*
X2119Y1268D01*
X2529Y1268D02*
X2536Y1268D01*
X0Y1267D02*
X13Y1267D01*
X2093Y1267D02*
X2120Y1267D01*
X2529Y1267D02*
X2536Y1267D01*
X0Y1266D02*
X13Y1266D01*
X2092Y1266D02*
X2121Y1266D01*
X2529Y1266D02*
X2536Y1266D01*
X0Y1265D02*
X13Y1265D01*
X2092Y1265D02*
X2122Y1265D01*
X2529Y1265D02*
X2536Y1265D01*
X0Y1264D02*
X13Y1264D01*
X2091Y1264D02*
X2122Y1264D01*
X2529Y1264D02*
X2536Y1264D01*
X0Y1263D02*
X13Y1263D01*
X2091Y1263D02*
X2098Y1263D01*
X2115Y1263D02*
X2122Y1263D01*
X2529Y1263D02*
X2536Y1263D01*
X0Y1262D02*
X13Y1262D01*
X2091Y1262D02*
X2097Y1262D01*
X2116Y1262D02*
X2123Y1262D01*
X2529Y1262D02*
X2536Y1262D01*
X0Y1261D02*
X13Y1261D01*
X2091Y1261D02*
X2097Y1261D01*
X2117Y1261D02*
X2123Y1261D01*
X2529Y1261D02*
X2536Y1261D01*
X0Y1260D02*
X13Y1260D01*
X2090Y1260D02*
X2096Y1260D01*
X2117Y1260D02*
X2123Y1260D01*
X2529Y1260D02*
X2536Y1260D01*
X0Y1259D02*
X13Y1259D01*
X2090Y1259D02*
X2096Y1259D01*
X2117Y1259D02*
X2123Y1259D01*
X2529Y1259D02*
X2536Y1259D01*
X0Y1258D02*
X13Y1258D01*
X2090Y1258D02*
X2096Y1258D01*
X2117Y1258D02*
X2123Y1258D01*
X2529Y1258D02*
X2536Y1258D01*
X0Y1257D02*
X13Y1257D01*
X2090Y1257D02*
X2096Y1257D01*
X2117Y1257D02*
X2123Y1257D01*
X2529Y1257D02*
X2536Y1257D01*
X0Y1256D02*
X13Y1256D01*
X2090Y1256D02*
X2096Y1256D01*
X2117Y1256D02*
X2123Y1256D01*
X2529Y1256D02*
X2536Y1256D01*
X0Y1255D02*
X13Y1255D01*
X2090Y1255D02*
X2096Y1255D01*
X2117Y1255D02*
X2123Y1255D01*
X2529Y1255D02*
X2536Y1255D01*
X0Y1254D02*
X13Y1254D01*
X2090Y1254D02*
X2096Y1254D01*
X2117Y1254D02*
X2123Y1254D01*
X2529Y1254D02*
X2536Y1254D01*
X0Y1253D02*
X13Y1253D01*
X2090Y1253D02*
X2096Y1253D01*
X2117Y1253D02*
X2123Y1253D01*
X2529Y1253D02*
X2536Y1253D01*
X0Y1252D02*
X13Y1252D01*
X2090Y1252D02*
X2096Y1252D01*
X2117Y1252D02*
X2123Y1252D01*
X2529Y1252D02*
X2536Y1252D01*
X0Y1251D02*
X13Y1251D01*
X2090Y1251D02*
X2096Y1251D01*
X2117Y1251D02*
X2123Y1251D01*
X2529Y1251D02*
X2536Y1251D01*
X0Y1250D02*
X13Y1250D01*
X2090Y1250D02*
X2096Y1250D01*
X2117Y1250D02*
X2123Y1250D01*
X2529Y1250D02*
X2536Y1250D01*
X0Y1249D02*
X13Y1249D01*
X2090Y1249D02*
X2096Y1249D01*
X2117Y1249D02*
X2123Y1249D01*
X2529Y1249D02*
X2536Y1249D01*
X0Y1248D02*
X13Y1248D01*
X2090Y1248D02*
X2096Y1248D01*
X2117Y1248D02*
X2123Y1248D01*
X2529Y1248D02*
X2536Y1248D01*
X0Y1247D02*
X13Y1247D01*
X2090Y1247D02*
X2096Y1247D01*
X2117Y1247D02*
X2123Y1247D01*
X2529Y1247D02*
X2536Y1247D01*
X0Y1246D02*
X13Y1246D01*
X2090Y1246D02*
X2096Y1246D01*
X2117Y1246D02*
X2123Y1246D01*
X2529Y1246D02*
X2536Y1246D01*
X0Y1245D02*
X13Y1245D01*
X2090Y1245D02*
X2096Y1245D01*
X2117Y1245D02*
X2123Y1245D01*
X2529Y1245D02*
X2536Y1245D01*
X0Y1244D02*
X13Y1244D01*
X2090Y1244D02*
X2096Y1244D01*
X2117Y1244D02*
X2123Y1244D01*
X2529Y1244D02*
X2536Y1244D01*
X0Y1243D02*
X13Y1243D01*
X2090Y1243D02*
X2097Y1243D01*
X2117Y1243D02*
X2123Y1243D01*
X2529Y1243D02*
X2536Y1243D01*
X0Y1242D02*
X13Y1242D01*
X2090Y1242D02*
X2142Y1242D01*
X2529Y1242D02*
X2536Y1242D01*
X0Y1241D02*
X13Y1241D01*
X2090Y1241D02*
X2143Y1241D01*
X2529Y1241D02*
X2536Y1241D01*
X0Y1240D02*
X13Y1240D01*
X2090Y1240D02*
X2144Y1240D01*
X2529Y1240D02*
X2536Y1240D01*
X0Y1239D02*
X13Y1239D01*
X2090Y1239D02*
X2144Y1239D01*
X2529Y1239D02*
X2536Y1239D01*
X0Y1238D02*
X13Y1238D01*
X2090Y1238D02*
X2143Y1238D01*
X2529Y1238D02*
X2536Y1238D01*
X0Y1237D02*
X13Y1237D01*
X2090Y1237D02*
X2143Y1237D01*
X2529Y1237D02*
X2536Y1237D01*
X0Y1236D02*
X13Y1236D01*
X2091Y1236D02*
X2141Y1236D01*
X2529Y1236D02*
X2536Y1236D01*
X0Y1235D02*
X13Y1235D01*
X2529Y1235D02*
X2536Y1235D01*
X0Y1234D02*
X13Y1234D01*
X2529Y1234D02*
X2536Y1234D01*
X0Y1233D02*
X13Y1233D01*
X2529Y1233D02*
X2536Y1233D01*
X0Y1232D02*
X13Y1232D01*
X2529Y1232D02*
X2536Y1232D01*
X0Y1231D02*
X13Y1231D01*
X2529Y1231D02*
X2536Y1231D01*
X0Y1230D02*
X13Y1230D01*
X2529Y1230D02*
X2536Y1230D01*
X0Y1229D02*
X13Y1229D01*
X2529Y1229D02*
X2536Y1229D01*
X0Y1228D02*
X13Y1228D01*
X2529Y1228D02*
X2536Y1228D01*
X0Y1227D02*
X13Y1227D01*
X2529Y1227D02*
X2536Y1227D01*
X0Y1226D02*
X13Y1226D01*
X2529Y1226D02*
X2536Y1226D01*
X0Y1225D02*
X13Y1225D01*
X2529Y1225D02*
X2536Y1225D01*
X0Y1224D02*
X13Y1224D01*
X2529Y1224D02*
X2536Y1224D01*
X0Y1223D02*
X13Y1223D01*
X2529Y1223D02*
X2536Y1223D01*
X0Y1222D02*
X13Y1222D01*
X2529Y1222D02*
X2536Y1222D01*
X0Y1221D02*
X13Y1221D01*
X2529Y1221D02*
X2536Y1221D01*
X0Y1220D02*
X13Y1220D01*
X2529Y1220D02*
X2536Y1220D01*
X0Y1219D02*
X13Y1219D01*
X2529Y1219D02*
X2536Y1219D01*
X0Y1218D02*
X13Y1218D01*
X2529Y1218D02*
X2536Y1218D01*
X0Y1217D02*
X13Y1217D01*
X2529Y1217D02*
X2536Y1217D01*
X0Y1216D02*
X13Y1216D01*
X2529Y1216D02*
X2536Y1216D01*
X0Y1215D02*
X13Y1215D01*
X2529Y1215D02*
X2536Y1215D01*
X0Y1214D02*
X13Y1214D01*
X2529Y1214D02*
X2536Y1214D01*
X0Y1213D02*
X13Y1213D01*
X2529Y1213D02*
X2536Y1213D01*
X0Y1212D02*
X13Y1212D01*
X2529Y1212D02*
X2536Y1212D01*
X0Y1211D02*
X13Y1211D01*
X2529Y1211D02*
X2536Y1211D01*
X0Y1210D02*
X13Y1210D01*
X2529Y1210D02*
X2536Y1210D01*
X0Y1209D02*
X13Y1209D01*
X2529Y1209D02*
X2536Y1209D01*
X0Y1208D02*
X13Y1208D01*
X2529Y1208D02*
X2536Y1208D01*
X0Y1207D02*
X13Y1207D01*
X2529Y1207D02*
X2536Y1207D01*
X0Y1206D02*
X13Y1206D01*
X2529Y1206D02*
X2536Y1206D01*
X0Y1205D02*
X13Y1205D01*
X2529Y1205D02*
X2536Y1205D01*
X0Y1204D02*
X13Y1204D01*
X2529Y1204D02*
X2536Y1204D01*
X0Y1203D02*
X13Y1203D01*
X2529Y1203D02*
X2536Y1203D01*
X0Y1202D02*
X13Y1202D01*
X2529Y1202D02*
X2536Y1202D01*
X0Y1201D02*
X13Y1201D01*
X2529Y1201D02*
X2536Y1201D01*
X0Y1200D02*
X13Y1200D01*
X2529Y1200D02*
X2536Y1200D01*
X0Y1199D02*
X13Y1199D01*
X2529Y1199D02*
X2536Y1199D01*
X0Y1198D02*
X13Y1198D01*
X2529Y1198D02*
X2536Y1198D01*
X0Y1197D02*
X13Y1197D01*
X2529Y1197D02*
X2536Y1197D01*
X0Y1196D02*
X13Y1196D01*
X2529Y1196D02*
X2536Y1196D01*
X0Y1195D02*
X13Y1195D01*
X2529Y1195D02*
X2536Y1195D01*
X0Y1194D02*
X13Y1194D01*
X2529Y1194D02*
X2536Y1194D01*
X0Y1193D02*
X13Y1193D01*
X2529Y1193D02*
X2536Y1193D01*
X0Y1192D02*
X13Y1192D01*
X2529Y1192D02*
X2536Y1192D01*
X0Y1191D02*
X13Y1191D01*
X2529Y1191D02*
X2536Y1191D01*
X0Y1190D02*
X13Y1190D01*
X2529Y1190D02*
X2536Y1190D01*
X0Y1189D02*
X13Y1189D01*
X2529Y1189D02*
X2536Y1189D01*
X0Y1188D02*
X13Y1188D01*
X2529Y1188D02*
X2536Y1188D01*
X0Y1187D02*
X13Y1187D01*
X2529Y1187D02*
X2536Y1187D01*
X0Y1186D02*
X13Y1186D01*
X2529Y1186D02*
X2536Y1186D01*
X0Y1185D02*
X13Y1185D01*
X2529Y1185D02*
X2536Y1185D01*
X0Y1184D02*
X13Y1184D01*
X2529Y1184D02*
X2536Y1184D01*
X0Y1183D02*
X13Y1183D01*
X2529Y1183D02*
X2536Y1183D01*
X0Y1182D02*
X13Y1182D01*
X2529Y1182D02*
X2536Y1182D01*
X0Y1181D02*
X13Y1181D01*
X2529Y1181D02*
X2536Y1181D01*
X0Y1180D02*
X13Y1180D01*
X2529Y1180D02*
X2536Y1180D01*
X0Y1179D02*
X13Y1179D01*
X2529Y1179D02*
X2536Y1179D01*
X0Y1178D02*
X13Y1178D01*
X2529Y1178D02*
X2536Y1178D01*
X0Y1177D02*
X13Y1177D01*
X2529Y1177D02*
X2536Y1177D01*
X0Y1176D02*
X13Y1176D01*
X2529Y1176D02*
X2536Y1176D01*
X0Y1175D02*
X13Y1175D01*
X2529Y1175D02*
X2536Y1175D01*
X0Y1174D02*
X13Y1174D01*
X2529Y1174D02*
X2536Y1174D01*
X0Y1173D02*
X13Y1173D01*
X2529Y1173D02*
X2536Y1173D01*
X0Y1172D02*
X13Y1172D01*
X2529Y1172D02*
X2536Y1172D01*
X0Y1171D02*
X13Y1171D01*
X2529Y1171D02*
X2536Y1171D01*
X0Y1170D02*
X13Y1170D01*
X2529Y1170D02*
X2536Y1170D01*
X0Y1169D02*
X13Y1169D01*
X2529Y1169D02*
X2536Y1169D01*
X0Y1168D02*
X13Y1168D01*
X2529Y1168D02*
X2536Y1168D01*
X0Y1167D02*
X13Y1167D01*
X2529Y1167D02*
X2536Y1167D01*
X0Y1166D02*
X13Y1166D01*
X2529Y1166D02*
X2536Y1166D01*
X0Y1165D02*
X13Y1165D01*
X2529Y1165D02*
X2536Y1165D01*
X0Y1164D02*
X13Y1164D01*
X2529Y1164D02*
X2536Y1164D01*
X0Y1163D02*
X13Y1163D01*
X2529Y1163D02*
X2536Y1163D01*
X0Y1162D02*
X13Y1162D01*
X2529Y1162D02*
X2536Y1162D01*
X0Y1161D02*
X13Y1161D01*
X2529Y1161D02*
X2536Y1161D01*
X0Y1160D02*
X13Y1160D01*
X583Y1160D02*
X601Y1160D01*
X2529Y1160D02*
X2536Y1160D01*
X0Y1159D02*
X13Y1159D01*
X582Y1159D02*
X603Y1159D01*
X2529Y1159D02*
X2536Y1159D01*
X0Y1158D02*
X13Y1158D01*
X581Y1158D02*
X604Y1158D01*
X2529Y1158D02*
X2536Y1158D01*
X0Y1157D02*
X13Y1157D01*
X581Y1157D02*
X604Y1157D01*
X2529Y1157D02*
X2536Y1157D01*
X0Y1156D02*
X13Y1156D01*
X581Y1156D02*
X604Y1156D01*
X2529Y1156D02*
X2536Y1156D01*
X0Y1155D02*
X13Y1155D01*
X581Y1155D02*
X604Y1155D01*
X2529Y1155D02*
X2536Y1155D01*
X0Y1154D02*
X13Y1154D01*
X582Y1154D02*
X604Y1154D01*
X2529Y1154D02*
X2536Y1154D01*
X0Y1153D02*
X13Y1153D01*
X598Y1153D02*
X604Y1153D01*
X2529Y1153D02*
X2536Y1153D01*
X0Y1152D02*
X13Y1152D01*
X598Y1152D02*
X604Y1152D01*
X2529Y1152D02*
X2536Y1152D01*
X0Y1151D02*
X13Y1151D01*
X598Y1151D02*
X604Y1151D01*
X2529Y1151D02*
X2536Y1151D01*
X0Y1150D02*
X13Y1150D01*
X598Y1150D02*
X604Y1150D01*
X2529Y1150D02*
X2536Y1150D01*
X0Y1149D02*
X13Y1149D01*
X598Y1149D02*
X604Y1149D01*
X2529Y1149D02*
X2536Y1149D01*
X0Y1148D02*
X13Y1148D01*
X598Y1148D02*
X604Y1148D01*
X2529Y1148D02*
X2536Y1148D01*
X0Y1147D02*
X13Y1147D01*
X598Y1147D02*
X604Y1147D01*
X2529Y1147D02*
X2536Y1147D01*
X0Y1146D02*
X13Y1146D01*
X551Y1146D02*
X604Y1146D01*
X2529Y1146D02*
X2536Y1146D01*
X0Y1145D02*
X13Y1145D01*
X551Y1145D02*
X604Y1145D01*
X2529Y1145D02*
X2536Y1145D01*
X0Y1144D02*
X13Y1144D01*
X551Y1144D02*
X604Y1144D01*
X2529Y1144D02*
X2536Y1144D01*
X0Y1143D02*
X13Y1143D01*
X551Y1143D02*
X604Y1143D01*
X2529Y1143D02*
X2536Y1143D01*
X0Y1142D02*
X13Y1142D01*
X551Y1142D02*
X604Y1142D01*
X2529Y1142D02*
X2536Y1142D01*
X0Y1141D02*
X13Y1141D01*
X551Y1141D02*
X604Y1141D01*
X2529Y1141D02*
X2536Y1141D01*
X0Y1140D02*
X13Y1140D01*
X551Y1140D02*
X604Y1140D01*
X2529Y1140D02*
X2536Y1140D01*
X0Y1139D02*
X13Y1139D01*
X551Y1139D02*
X557Y1139D01*
X598Y1139D02*
X604Y1139D01*
X2529Y1139D02*
X2536Y1139D01*
X0Y1138D02*
X13Y1138D01*
X551Y1138D02*
X557Y1138D01*
X598Y1138D02*
X604Y1138D01*
X2529Y1138D02*
X2536Y1138D01*
X0Y1137D02*
X13Y1137D01*
X551Y1137D02*
X557Y1137D01*
X598Y1137D02*
X604Y1137D01*
X2529Y1137D02*
X2536Y1137D01*
X0Y1136D02*
X13Y1136D01*
X551Y1136D02*
X557Y1136D01*
X598Y1136D02*
X604Y1136D01*
X2529Y1136D02*
X2536Y1136D01*
X0Y1135D02*
X13Y1135D01*
X551Y1135D02*
X557Y1135D01*
X598Y1135D02*
X604Y1135D01*
X2529Y1135D02*
X2536Y1135D01*
X0Y1134D02*
X13Y1134D01*
X551Y1134D02*
X557Y1134D01*
X598Y1134D02*
X604Y1134D01*
X2529Y1134D02*
X2536Y1134D01*
X0Y1133D02*
X13Y1133D01*
X551Y1133D02*
X557Y1133D01*
X598Y1133D02*
X604Y1133D01*
X2529Y1133D02*
X2536Y1133D01*
X0Y1132D02*
X13Y1132D01*
X551Y1132D02*
X557Y1132D01*
X598Y1132D02*
X604Y1132D01*
X2529Y1132D02*
X2536Y1132D01*
X0Y1131D02*
X13Y1131D01*
X551Y1131D02*
X557Y1131D01*
X598Y1131D02*
X604Y1131D01*
X2529Y1131D02*
X2536Y1131D01*
X0Y1130D02*
X13Y1130D01*
X551Y1130D02*
X557Y1130D01*
X598Y1130D02*
X604Y1130D01*
X2529Y1130D02*
X2536Y1130D01*
X0Y1129D02*
X13Y1129D01*
X551Y1129D02*
X557Y1129D01*
X598Y1129D02*
X604Y1129D01*
X2529Y1129D02*
X2536Y1129D01*
X0Y1128D02*
X13Y1128D01*
X551Y1128D02*
X557Y1128D01*
X598Y1128D02*
X604Y1128D01*
X2529Y1128D02*
X2536Y1128D01*
X0Y1127D02*
X13Y1127D01*
X552Y1127D02*
X556Y1127D01*
X599Y1127D02*
X604Y1127D01*
X2529Y1127D02*
X2536Y1127D01*
X0Y1126D02*
X13Y1126D01*
X553Y1126D02*
X555Y1126D01*
X600Y1126D02*
X603Y1126D01*
X2529Y1126D02*
X2536Y1126D01*
X0Y1125D02*
X13Y1125D01*
X2529Y1125D02*
X2536Y1125D01*
X0Y1124D02*
X13Y1124D01*
X2529Y1124D02*
X2536Y1124D01*
X0Y1123D02*
X13Y1123D01*
X2529Y1123D02*
X2536Y1123D01*
X0Y1122D02*
X13Y1122D01*
X2529Y1122D02*
X2536Y1122D01*
X0Y1121D02*
X13Y1121D01*
X2529Y1121D02*
X2536Y1121D01*
X0Y1120D02*
X13Y1120D01*
X2529Y1120D02*
X2536Y1120D01*
X0Y1119D02*
X13Y1119D01*
X2529Y1119D02*
X2536Y1119D01*
X0Y1118D02*
X13Y1118D01*
X2529Y1118D02*
X2536Y1118D01*
X0Y1117D02*
X13Y1117D01*
X2529Y1117D02*
X2536Y1117D01*
X0Y1116D02*
X13Y1116D01*
X2529Y1116D02*
X2536Y1116D01*
X0Y1115D02*
X13Y1115D01*
X2529Y1115D02*
X2536Y1115D01*
X0Y1114D02*
X13Y1114D01*
X2529Y1114D02*
X2536Y1114D01*
X0Y1113D02*
X13Y1113D01*
X2529Y1113D02*
X2536Y1113D01*
X0Y1112D02*
X13Y1112D01*
X2529Y1112D02*
X2536Y1112D01*
X0Y1111D02*
X13Y1111D01*
X2529Y1111D02*
X2536Y1111D01*
X0Y1110D02*
X13Y1110D01*
X2529Y1110D02*
X2536Y1110D01*
X0Y1109D02*
X13Y1109D01*
X2529Y1109D02*
X2536Y1109D01*
X0Y1108D02*
X13Y1108D01*
X2529Y1108D02*
X2536Y1108D01*
X0Y1107D02*
X13Y1107D01*
X2529Y1107D02*
X2536Y1107D01*
X0Y1106D02*
X13Y1106D01*
X553Y1106D02*
X597Y1106D01*
X2529Y1106D02*
X2536Y1106D01*
X0Y1105D02*
X13Y1105D01*
X552Y1105D02*
X599Y1105D01*
X2529Y1105D02*
X2536Y1105D01*
X0Y1104D02*
X13Y1104D01*
X551Y1104D02*
X601Y1104D01*
X2529Y1104D02*
X2536Y1104D01*
X0Y1103D02*
X13Y1103D01*
X551Y1103D02*
X602Y1103D01*
X2529Y1103D02*
X2536Y1103D01*
X0Y1102D02*
X13Y1102D01*
X551Y1102D02*
X602Y1102D01*
X2529Y1102D02*
X2536Y1102D01*
X0Y1101D02*
X13Y1101D01*
X552Y1101D02*
X603Y1101D01*
X2529Y1101D02*
X2536Y1101D01*
X0Y1100D02*
X13Y1100D01*
X553Y1100D02*
X603Y1100D01*
X2529Y1100D02*
X2536Y1100D01*
X0Y1099D02*
X13Y1099D01*
X597Y1099D02*
X604Y1099D01*
X2529Y1099D02*
X2536Y1099D01*
X0Y1098D02*
X13Y1098D01*
X598Y1098D02*
X604Y1098D01*
X2529Y1098D02*
X2536Y1098D01*
X0Y1097D02*
X13Y1097D01*
X598Y1097D02*
X604Y1097D01*
X2529Y1097D02*
X2536Y1097D01*
X0Y1096D02*
X13Y1096D01*
X598Y1096D02*
X604Y1096D01*
X2529Y1096D02*
X2536Y1096D01*
X0Y1095D02*
X13Y1095D01*
X598Y1095D02*
X604Y1095D01*
X2529Y1095D02*
X2536Y1095D01*
X0Y1094D02*
X13Y1094D01*
X598Y1094D02*
X604Y1094D01*
X2529Y1094D02*
X2536Y1094D01*
X0Y1093D02*
X13Y1093D01*
X598Y1093D02*
X604Y1093D01*
X2529Y1093D02*
X2536Y1093D01*
X0Y1092D02*
X13Y1092D01*
X598Y1092D02*
X604Y1092D01*
X2529Y1092D02*
X2536Y1092D01*
X0Y1091D02*
X13Y1091D01*
X598Y1091D02*
X604Y1091D01*
X2529Y1091D02*
X2536Y1091D01*
X0Y1090D02*
X13Y1090D01*
X598Y1090D02*
X604Y1090D01*
X2529Y1090D02*
X2536Y1090D01*
X0Y1089D02*
X13Y1089D01*
X598Y1089D02*
X604Y1089D01*
X2529Y1089D02*
X2536Y1089D01*
X0Y1088D02*
X13Y1088D01*
X598Y1088D02*
X604Y1088D01*
X2529Y1088D02*
X2536Y1088D01*
X0Y1087D02*
X13Y1087D01*
X597Y1087D02*
X604Y1087D01*
X2529Y1087D02*
X2536Y1087D01*
X0Y1086D02*
X13Y1086D01*
X595Y1086D02*
X604Y1086D01*
X2529Y1086D02*
X2536Y1086D01*
X0Y1085D02*
X13Y1085D01*
X582Y1085D02*
X603Y1085D01*
X2529Y1085D02*
X2536Y1085D01*
X0Y1084D02*
X13Y1084D01*
X581Y1084D02*
X603Y1084D01*
X2529Y1084D02*
X2536Y1084D01*
X0Y1083D02*
X13Y1083D01*
X581Y1083D02*
X602Y1083D01*
X2529Y1083D02*
X2536Y1083D01*
X0Y1082D02*
X13Y1082D01*
X581Y1082D02*
X601Y1082D01*
X2529Y1082D02*
X2536Y1082D01*
X0Y1081D02*
X13Y1081D01*
X581Y1081D02*
X600Y1081D01*
X2529Y1081D02*
X2536Y1081D01*
X0Y1080D02*
X13Y1080D01*
X582Y1080D02*
X598Y1080D01*
X2529Y1080D02*
X2536Y1080D01*
X0Y1079D02*
X13Y1079D01*
X583Y1079D02*
X595Y1079D01*
X2529Y1079D02*
X2536Y1079D01*
X0Y1078D02*
X13Y1078D01*
X2529Y1078D02*
X2536Y1078D01*
X0Y1077D02*
X13Y1077D01*
X2529Y1077D02*
X2536Y1077D01*
X0Y1076D02*
X13Y1076D01*
X2529Y1076D02*
X2536Y1076D01*
X0Y1075D02*
X13Y1075D01*
X2529Y1075D02*
X2536Y1075D01*
X0Y1074D02*
X13Y1074D01*
X2529Y1074D02*
X2536Y1074D01*
X0Y1073D02*
X13Y1073D01*
X2529Y1073D02*
X2536Y1073D01*
X0Y1072D02*
X13Y1072D01*
X2529Y1072D02*
X2536Y1072D01*
X0Y1071D02*
X13Y1071D01*
X2529Y1071D02*
X2536Y1071D01*
X0Y1070D02*
X13Y1070D01*
X2529Y1070D02*
X2536Y1070D01*
X0Y1069D02*
X13Y1069D01*
X2529Y1069D02*
X2536Y1069D01*
X0Y1068D02*
X13Y1068D01*
X2529Y1068D02*
X2536Y1068D01*
X0Y1067D02*
X13Y1067D01*
X2529Y1067D02*
X2536Y1067D01*
X0Y1066D02*
X13Y1066D01*
X2529Y1066D02*
X2536Y1066D01*
X0Y1065D02*
X13Y1065D01*
X2529Y1065D02*
X2536Y1065D01*
X0Y1064D02*
X13Y1064D01*
X2529Y1064D02*
X2536Y1064D01*
X0Y1063D02*
X13Y1063D01*
X2529Y1063D02*
X2536Y1063D01*
X0Y1062D02*
X13Y1062D01*
X2529Y1062D02*
X2536Y1062D01*
X0Y1061D02*
X13Y1061D01*
X2529Y1061D02*
X2536Y1061D01*
X0Y1060D02*
X13Y1060D01*
X2529Y1060D02*
X2536Y1060D01*
X0Y1059D02*
X13Y1059D01*
X2529Y1059D02*
X2536Y1059D01*
X0Y1058D02*
X13Y1058D01*
X2529Y1058D02*
X2536Y1058D01*
X0Y1057D02*
X13Y1057D01*
X2529Y1057D02*
X2536Y1057D01*
X0Y1056D02*
X13Y1056D01*
X2529Y1056D02*
X2536Y1056D01*
X0Y1055D02*
X13Y1055D01*
X2529Y1055D02*
X2536Y1055D01*
X0Y1054D02*
X13Y1054D01*
X2529Y1054D02*
X2536Y1054D01*
X0Y1053D02*
X13Y1053D01*
X2529Y1053D02*
X2536Y1053D01*
X0Y1052D02*
X13Y1052D01*
X2529Y1052D02*
X2536Y1052D01*
X0Y1051D02*
X13Y1051D01*
X2529Y1051D02*
X2536Y1051D01*
X0Y1050D02*
X13Y1050D01*
X2529Y1050D02*
X2536Y1050D01*
X0Y1049D02*
X13Y1049D01*
X2529Y1049D02*
X2536Y1049D01*
X0Y1048D02*
X13Y1048D01*
X2529Y1048D02*
X2536Y1048D01*
X0Y1047D02*
X13Y1047D01*
X2529Y1047D02*
X2536Y1047D01*
X0Y1046D02*
X13Y1046D01*
X2529Y1046D02*
X2536Y1046D01*
X0Y1045D02*
X13Y1045D01*
X2529Y1045D02*
X2536Y1045D01*
X0Y1044D02*
X13Y1044D01*
X2529Y1044D02*
X2536Y1044D01*
X0Y1043D02*
X13Y1043D01*
X2529Y1043D02*
X2536Y1043D01*
X0Y1042D02*
X13Y1042D01*
X2529Y1042D02*
X2536Y1042D01*
X0Y1041D02*
X13Y1041D01*
X2529Y1041D02*
X2536Y1041D01*
X0Y1040D02*
X13Y1040D01*
X2529Y1040D02*
X2536Y1040D01*
X0Y1039D02*
X13Y1039D01*
X2529Y1039D02*
X2536Y1039D01*
X0Y1038D02*
X13Y1038D01*
X2529Y1038D02*
X2536Y1038D01*
X0Y1037D02*
X13Y1037D01*
X2529Y1037D02*
X2536Y1037D01*
X0Y1036D02*
X13Y1036D01*
X2529Y1036D02*
X2536Y1036D01*
X0Y1035D02*
X13Y1035D01*
X2529Y1035D02*
X2536Y1035D01*
X0Y1034D02*
X13Y1034D01*
X2529Y1034D02*
X2536Y1034D01*
X0Y1033D02*
X13Y1033D01*
X2529Y1033D02*
X2536Y1033D01*
X0Y1032D02*
X13Y1032D01*
X2529Y1032D02*
X2536Y1032D01*
X0Y1031D02*
X13Y1031D01*
X2529Y1031D02*
X2536Y1031D01*
X0Y1030D02*
X13Y1030D01*
X2529Y1030D02*
X2536Y1030D01*
X0Y1029D02*
X13Y1029D01*
X2529Y1029D02*
X2536Y1029D01*
X0Y1028D02*
X13Y1028D01*
X2529Y1028D02*
X2536Y1028D01*
X0Y1027D02*
X13Y1027D01*
X2529Y1027D02*
X2536Y1027D01*
X0Y1026D02*
X13Y1026D01*
X2529Y1026D02*
X2536Y1026D01*
X0Y1025D02*
X13Y1025D01*
X2529Y1025D02*
X2536Y1025D01*
X0Y1024D02*
X13Y1024D01*
X2529Y1024D02*
X2536Y1024D01*
X0Y1023D02*
X13Y1023D01*
X2529Y1023D02*
X2536Y1023D01*
X0Y1022D02*
X13Y1022D01*
X2529Y1022D02*
X2536Y1022D01*
X0Y1021D02*
X13Y1021D01*
X2529Y1021D02*
X2536Y1021D01*
X0Y1020D02*
X13Y1020D01*
X2529Y1020D02*
X2536Y1020D01*
X0Y1019D02*
X13Y1019D01*
X2529Y1019D02*
X2536Y1019D01*
X0Y1018D02*
X13Y1018D01*
X2529Y1018D02*
X2536Y1018D01*
X0Y1017D02*
X13Y1017D01*
X2529Y1017D02*
X2536Y1017D01*
X0Y1016D02*
X13Y1016D01*
X2529Y1016D02*
X2536Y1016D01*
X0Y1015D02*
X13Y1015D01*
X2529Y1015D02*
X2536Y1015D01*
X0Y1014D02*
X13Y1014D01*
X2529Y1014D02*
X2536Y1014D01*
X0Y1013D02*
X13Y1013D01*
X2529Y1013D02*
X2536Y1013D01*
X0Y1012D02*
X13Y1012D01*
X2529Y1012D02*
X2536Y1012D01*
X0Y1011D02*
X13Y1011D01*
X2529Y1011D02*
X2536Y1011D01*
X0Y1010D02*
X13Y1010D01*
X2529Y1010D02*
X2536Y1010D01*
X0Y1009D02*
X13Y1009D01*
X2529Y1009D02*
X2536Y1009D01*
X0Y1008D02*
X13Y1008D01*
X2529Y1008D02*
X2536Y1008D01*
X0Y1007D02*
X13Y1007D01*
X2529Y1007D02*
X2536Y1007D01*
X0Y1006D02*
X13Y1006D01*
X2529Y1006D02*
X2536Y1006D01*
X0Y1005D02*
X13Y1005D01*
X2529Y1005D02*
X2536Y1005D01*
X0Y1004D02*
X13Y1004D01*
X2529Y1004D02*
X2536Y1004D01*
X0Y1003D02*
X13Y1003D01*
X2529Y1003D02*
X2536Y1003D01*
X0Y1002D02*
X13Y1002D01*
X2529Y1002D02*
X2536Y1002D01*
X0Y1001D02*
X13Y1001D01*
X2529Y1001D02*
X2536Y1001D01*
X0Y1000D02*
X13Y1000D01*
X2529Y1000D02*
X2536Y1000D01*
X0Y999D02*
X13Y999D01*
X2529Y999D02*
X2536Y999D01*
X0Y998D02*
X13Y998D01*
X2529Y998D02*
X2536Y998D01*
X0Y997D02*
X13Y997D01*
X2529Y997D02*
X2536Y997D01*
X0Y996D02*
X13Y996D01*
X2529Y996D02*
X2536Y996D01*
X0Y995D02*
X13Y995D01*
X2529Y995D02*
X2536Y995D01*
X0Y994D02*
X13Y994D01*
X2529Y994D02*
X2536Y994D01*
X0Y993D02*
X13Y993D01*
X2529Y993D02*
X2536Y993D01*
X0Y992D02*
X13Y992D01*
X2529Y992D02*
X2536Y992D01*
X0Y991D02*
X13Y991D01*
X2529Y991D02*
X2536Y991D01*
X0Y990D02*
X13Y990D01*
X2529Y990D02*
X2536Y990D01*
X0Y989D02*
X13Y989D01*
X2529Y989D02*
X2536Y989D01*
X0Y988D02*
X13Y988D01*
X2529Y988D02*
X2536Y988D01*
X0Y987D02*
X13Y987D01*
X2529Y987D02*
X2536Y987D01*
X0Y986D02*
X13Y986D01*
X2529Y986D02*
X2536Y986D01*
X0Y985D02*
X13Y985D01*
X2529Y985D02*
X2536Y985D01*
X0Y984D02*
X13Y984D01*
X652Y984D02*
X652Y984D01*
X2529Y984D02*
X2536Y984D01*
X0Y983D02*
X13Y983D01*
X651Y983D02*
X653Y983D01*
X2529Y983D02*
X2536Y983D01*
X0Y982D02*
X13Y982D01*
X650Y982D02*
X654Y982D01*
X2529Y982D02*
X2536Y982D01*
X0Y981D02*
X13Y981D01*
X649Y981D02*
X655Y981D01*
X2529Y981D02*
X2536Y981D01*
X0Y980D02*
X13Y980D01*
X650Y980D02*
X656Y980D01*
X2529Y980D02*
X2536Y980D01*
X0Y979D02*
X13Y979D01*
X651Y979D02*
X656Y979D01*
X2529Y979D02*
X2536Y979D01*
X0Y978D02*
X13Y978D01*
X652Y978D02*
X656Y978D01*
X2529Y978D02*
X2536Y978D01*
X0Y977D02*
X13Y977D01*
X653Y977D02*
X656Y977D01*
X2529Y977D02*
X2536Y977D01*
X0Y976D02*
X13Y976D01*
X654Y976D02*
X656Y976D01*
X2529Y976D02*
X2536Y976D01*
X0Y975D02*
X13Y975D01*
X655Y975D02*
X656Y975D01*
X2529Y975D02*
X2536Y975D01*
X0Y974D02*
X13Y974D01*
X656Y974D02*
X656Y974D01*
X2529Y974D02*
X2536Y974D01*
X0Y973D02*
X13Y973D01*
X2529Y973D02*
X2536Y973D01*
X0Y972D02*
X13Y972D01*
X2529Y972D02*
X2536Y972D01*
X0Y971D02*
X13Y971D01*
X2529Y971D02*
X2536Y971D01*
X0Y970D02*
X13Y970D01*
X2529Y970D02*
X2536Y970D01*
X0Y969D02*
X13Y969D01*
X2529Y969D02*
X2536Y969D01*
X0Y968D02*
X13Y968D01*
X2529Y968D02*
X2536Y968D01*
X0Y967D02*
X13Y967D01*
X2529Y967D02*
X2536Y967D01*
X0Y966D02*
X13Y966D01*
X2529Y966D02*
X2536Y966D01*
X0Y965D02*
X13Y965D01*
X2529Y965D02*
X2536Y965D01*
X0Y964D02*
X13Y964D01*
X2529Y964D02*
X2536Y964D01*
X0Y963D02*
X13Y963D01*
X2529Y963D02*
X2536Y963D01*
X0Y962D02*
X13Y962D01*
X2529Y962D02*
X2536Y962D01*
X0Y961D02*
X13Y961D01*
X2529Y961D02*
X2536Y961D01*
X0Y960D02*
X13Y960D01*
X2529Y960D02*
X2536Y960D01*
X0Y959D02*
X13Y959D01*
X2529Y959D02*
X2536Y959D01*
X0Y958D02*
X13Y958D01*
X2529Y958D02*
X2536Y958D01*
X0Y957D02*
X13Y957D01*
X2529Y957D02*
X2536Y957D01*
X0Y956D02*
X13Y956D01*
X2529Y956D02*
X2536Y956D01*
X0Y955D02*
X13Y955D01*
X496Y955D02*
X505Y955D01*
X2529Y955D02*
X2536Y955D01*
X0Y954D02*
X13Y954D01*
X496Y954D02*
X505Y954D01*
X2529Y954D02*
X2536Y954D01*
X0Y953D02*
X13Y953D01*
X496Y953D02*
X505Y953D01*
X677Y953D02*
X683Y953D01*
X2529Y953D02*
X2536Y953D01*
X0Y952D02*
X13Y952D01*
X496Y952D02*
X505Y952D01*
X678Y952D02*
X684Y952D01*
X2529Y952D02*
X2536Y952D01*
X0Y951D02*
X13Y951D01*
X496Y951D02*
X505Y951D01*
X679Y951D02*
X685Y951D01*
X2529Y951D02*
X2536Y951D01*
X0Y950D02*
X13Y950D01*
X496Y950D02*
X505Y950D01*
X680Y950D02*
X686Y950D01*
X2529Y950D02*
X2536Y950D01*
X0Y949D02*
X13Y949D01*
X496Y949D02*
X505Y949D01*
X681Y949D02*
X686Y949D01*
X2529Y949D02*
X2536Y949D01*
X0Y948D02*
X13Y948D01*
X496Y948D02*
X505Y948D01*
X682Y948D02*
X685Y948D01*
X2529Y948D02*
X2536Y948D01*
X0Y947D02*
X13Y947D01*
X496Y947D02*
X505Y947D01*
X683Y947D02*
X684Y947D01*
X2529Y947D02*
X2536Y947D01*
X0Y946D02*
X13Y946D01*
X496Y946D02*
X505Y946D01*
X2529Y946D02*
X2536Y946D01*
X0Y945D02*
X13Y945D01*
X496Y945D02*
X505Y945D01*
X2529Y945D02*
X2536Y945D01*
X0Y944D02*
X13Y944D01*
X496Y944D02*
X505Y944D01*
X2529Y944D02*
X2536Y944D01*
X0Y943D02*
X13Y943D01*
X496Y943D02*
X505Y943D01*
X2529Y943D02*
X2536Y943D01*
X0Y942D02*
X13Y942D01*
X496Y942D02*
X505Y942D01*
X2529Y942D02*
X2536Y942D01*
X0Y941D02*
X13Y941D01*
X496Y941D02*
X505Y941D01*
X2529Y941D02*
X2536Y941D01*
X0Y940D02*
X13Y940D01*
X496Y940D02*
X505Y940D01*
X2529Y940D02*
X2536Y940D01*
X0Y939D02*
X13Y939D01*
X496Y939D02*
X505Y939D01*
X2529Y939D02*
X2536Y939D01*
X0Y938D02*
X13Y938D01*
X496Y938D02*
X505Y938D01*
X2529Y938D02*
X2536Y938D01*
X0Y937D02*
X13Y937D01*
X496Y937D02*
X505Y937D01*
X2529Y937D02*
X2536Y937D01*
X0Y936D02*
X13Y936D01*
X496Y936D02*
X505Y936D01*
X2529Y936D02*
X2536Y936D01*
X0Y935D02*
X13Y935D01*
X496Y935D02*
X505Y935D01*
X2529Y935D02*
X2536Y935D01*
X0Y934D02*
X13Y934D01*
X496Y934D02*
X505Y934D01*
X2529Y934D02*
X2536Y934D01*
X0Y933D02*
X13Y933D01*
X496Y933D02*
X505Y933D01*
X2529Y933D02*
X2536Y933D01*
X0Y932D02*
X13Y932D01*
X496Y932D02*
X505Y932D01*
X2529Y932D02*
X2536Y932D01*
X0Y931D02*
X13Y931D01*
X496Y931D02*
X505Y931D01*
X2529Y931D02*
X2536Y931D01*
X0Y930D02*
X13Y930D01*
X496Y930D02*
X505Y930D01*
X2529Y930D02*
X2536Y930D01*
X0Y929D02*
X13Y929D01*
X496Y929D02*
X505Y929D01*
X2529Y929D02*
X2536Y929D01*
X0Y928D02*
X13Y928D01*
X496Y928D02*
X505Y928D01*
X2529Y928D02*
X2536Y928D01*
X0Y927D02*
X13Y927D01*
X496Y927D02*
X505Y927D01*
X2529Y927D02*
X2536Y927D01*
X0Y926D02*
X13Y926D01*
X496Y926D02*
X505Y926D01*
X2529Y926D02*
X2536Y926D01*
X0Y925D02*
X13Y925D01*
X496Y925D02*
X505Y925D01*
X2529Y925D02*
X2536Y925D01*
X0Y924D02*
X13Y924D01*
X496Y924D02*
X505Y924D01*
X2529Y924D02*
X2536Y924D01*
X0Y923D02*
X13Y923D01*
X496Y923D02*
X505Y923D01*
X2529Y923D02*
X2536Y923D01*
X0Y922D02*
X13Y922D01*
X496Y922D02*
X505Y922D01*
X2529Y922D02*
X2536Y922D01*
X0Y921D02*
X13Y921D01*
X496Y921D02*
X505Y921D01*
X2529Y921D02*
X2536Y921D01*
X0Y920D02*
X13Y920D01*
X496Y920D02*
X505Y920D01*
X2529Y920D02*
X2536Y920D01*
X0Y919D02*
X13Y919D01*
X496Y919D02*
X505Y919D01*
X2529Y919D02*
X2536Y919D01*
X0Y918D02*
X13Y918D01*
X496Y918D02*
X505Y918D01*
X2529Y918D02*
X2536Y918D01*
X0Y917D02*
X13Y917D01*
X496Y917D02*
X505Y917D01*
X2529Y917D02*
X2536Y917D01*
X0Y916D02*
X13Y916D01*
X496Y916D02*
X505Y916D01*
X2529Y916D02*
X2536Y916D01*
X0Y915D02*
X13Y915D01*
X496Y915D02*
X505Y915D01*
X2529Y915D02*
X2536Y915D01*
X0Y914D02*
X13Y914D01*
X496Y914D02*
X505Y914D01*
X2529Y914D02*
X2536Y914D01*
X0Y913D02*
X13Y913D01*
X496Y913D02*
X505Y913D01*
X2529Y913D02*
X2536Y913D01*
X0Y912D02*
X13Y912D01*
X496Y912D02*
X505Y912D01*
X2529Y912D02*
X2536Y912D01*
X0Y911D02*
X13Y911D01*
X496Y911D02*
X505Y911D01*
X2529Y911D02*
X2536Y911D01*
X0Y910D02*
X13Y910D01*
X496Y910D02*
X505Y910D01*
X2529Y910D02*
X2536Y910D01*
X0Y909D02*
X13Y909D01*
X496Y909D02*
X505Y909D01*
X2529Y909D02*
X2536Y909D01*
X0Y908D02*
X13Y908D01*
X496Y908D02*
X505Y908D01*
X2529Y908D02*
X2536Y908D01*
X0Y907D02*
X13Y907D01*
X496Y907D02*
X505Y907D01*
X2529Y907D02*
X2536Y907D01*
X0Y906D02*
X13Y906D01*
X496Y906D02*
X505Y906D01*
X2529Y906D02*
X2536Y906D01*
X0Y905D02*
X13Y905D01*
X496Y905D02*
X505Y905D01*
X2529Y905D02*
X2536Y905D01*
X0Y904D02*
X13Y904D01*
X496Y904D02*
X505Y904D01*
X2529Y904D02*
X2536Y904D01*
X0Y903D02*
X13Y903D01*
X496Y903D02*
X505Y903D01*
X2529Y903D02*
X2536Y903D01*
X0Y902D02*
X13Y902D01*
X496Y902D02*
X505Y902D01*
X2529Y902D02*
X2536Y902D01*
X0Y901D02*
X13Y901D01*
X496Y901D02*
X505Y901D01*
X2529Y901D02*
X2536Y901D01*
X0Y900D02*
X13Y900D01*
X496Y900D02*
X505Y900D01*
X2529Y900D02*
X2536Y900D01*
X0Y899D02*
X13Y899D01*
X496Y899D02*
X505Y899D01*
X2529Y899D02*
X2536Y899D01*
X0Y898D02*
X13Y898D01*
X496Y898D02*
X505Y898D01*
X2529Y898D02*
X2536Y898D01*
X0Y897D02*
X13Y897D01*
X496Y897D02*
X505Y897D01*
X2529Y897D02*
X2536Y897D01*
X0Y896D02*
X13Y896D01*
X496Y896D02*
X505Y896D01*
X2529Y896D02*
X2536Y896D01*
X0Y895D02*
X13Y895D01*
X496Y895D02*
X505Y895D01*
X2529Y895D02*
X2536Y895D01*
X0Y894D02*
X13Y894D01*
X496Y894D02*
X505Y894D01*
X2529Y894D02*
X2536Y894D01*
X0Y893D02*
X13Y893D01*
X496Y893D02*
X505Y893D01*
X2529Y893D02*
X2536Y893D01*
X0Y892D02*
X13Y892D01*
X496Y892D02*
X505Y892D01*
X2529Y892D02*
X2536Y892D01*
X0Y891D02*
X13Y891D01*
X496Y891D02*
X505Y891D01*
X2529Y891D02*
X2536Y891D01*
X0Y890D02*
X13Y890D01*
X496Y890D02*
X505Y890D01*
X2529Y890D02*
X2536Y890D01*
X0Y889D02*
X13Y889D01*
X496Y889D02*
X505Y889D01*
X2529Y889D02*
X2536Y889D01*
X0Y888D02*
X13Y888D01*
X2529Y888D02*
X2536Y888D01*
X0Y887D02*
X13Y887D01*
X2529Y887D02*
X2536Y887D01*
X0Y886D02*
X13Y886D01*
X2529Y886D02*
X2536Y886D01*
X0Y885D02*
X13Y885D01*
X2529Y885D02*
X2536Y885D01*
X0Y884D02*
X13Y884D01*
X2529Y884D02*
X2536Y884D01*
X0Y883D02*
X13Y883D01*
X2529Y883D02*
X2536Y883D01*
X0Y882D02*
X13Y882D01*
X2529Y882D02*
X2536Y882D01*
X0Y881D02*
X13Y881D01*
X2529Y881D02*
X2536Y881D01*
X0Y880D02*
X13Y880D01*
X2529Y880D02*
X2536Y880D01*
X0Y879D02*
X13Y879D01*
X2529Y879D02*
X2536Y879D01*
X0Y878D02*
X13Y878D01*
X2529Y878D02*
X2536Y878D01*
X0Y877D02*
X13Y877D01*
X2529Y877D02*
X2536Y877D01*
X0Y876D02*
X13Y876D01*
X2529Y876D02*
X2536Y876D01*
X0Y875D02*
X13Y875D01*
X2529Y875D02*
X2536Y875D01*
X0Y874D02*
X13Y874D01*
X2529Y874D02*
X2536Y874D01*
X0Y873D02*
X13Y873D01*
X2529Y873D02*
X2536Y873D01*
X0Y872D02*
X13Y872D01*
X2529Y872D02*
X2536Y872D01*
X0Y871D02*
X13Y871D01*
X2529Y871D02*
X2536Y871D01*
X0Y870D02*
X13Y870D01*
X2529Y870D02*
X2536Y870D01*
X0Y869D02*
X13Y869D01*
X2529Y869D02*
X2536Y869D01*
X0Y868D02*
X13Y868D01*
X2529Y868D02*
X2536Y868D01*
X0Y867D02*
X13Y867D01*
X2529Y867D02*
X2536Y867D01*
X0Y866D02*
X13Y866D01*
X2529Y866D02*
X2536Y866D01*
X0Y865D02*
X13Y865D01*
X2529Y865D02*
X2536Y865D01*
X0Y864D02*
X13Y864D01*
X2529Y864D02*
X2536Y864D01*
X0Y863D02*
X13Y863D01*
X2529Y863D02*
X2536Y863D01*
X0Y862D02*
X13Y862D01*
X2529Y862D02*
X2536Y862D01*
X0Y861D02*
X13Y861D01*
X2529Y861D02*
X2536Y861D01*
X0Y860D02*
X13Y860D01*
X2529Y860D02*
X2536Y860D01*
X0Y859D02*
X13Y859D01*
X2529Y859D02*
X2536Y859D01*
X0Y858D02*
X13Y858D01*
X2529Y858D02*
X2536Y858D01*
X0Y857D02*
X13Y857D01*
X2529Y857D02*
X2536Y857D01*
X0Y856D02*
X13Y856D01*
X2529Y856D02*
X2536Y856D01*
X0Y855D02*
X13Y855D01*
X2529Y855D02*
X2536Y855D01*
X0Y854D02*
X13Y854D01*
X2529Y854D02*
X2536Y854D01*
X0Y853D02*
X13Y853D01*
X2529Y853D02*
X2536Y853D01*
X0Y852D02*
X13Y852D01*
X2529Y852D02*
X2536Y852D01*
X0Y851D02*
X13Y851D01*
X2529Y851D02*
X2536Y851D01*
X0Y850D02*
X13Y850D01*
X2529Y850D02*
X2536Y850D01*
X0Y849D02*
X13Y849D01*
X2529Y849D02*
X2536Y849D01*
X0Y848D02*
X13Y848D01*
X2529Y848D02*
X2536Y848D01*
X0Y847D02*
X13Y847D01*
X2529Y847D02*
X2536Y847D01*
X0Y846D02*
X13Y846D01*
X2529Y846D02*
X2536Y846D01*
X0Y845D02*
X13Y845D01*
X2529Y845D02*
X2536Y845D01*
X0Y844D02*
X13Y844D01*
X2529Y844D02*
X2536Y844D01*
X0Y843D02*
X13Y843D01*
X2529Y843D02*
X2536Y843D01*
X0Y842D02*
X13Y842D01*
X2529Y842D02*
X2536Y842D01*
X0Y841D02*
X13Y841D01*
X2529Y841D02*
X2536Y841D01*
X0Y840D02*
X13Y840D01*
X2529Y840D02*
X2536Y840D01*
X0Y839D02*
X13Y839D01*
X2529Y839D02*
X2536Y839D01*
X0Y838D02*
X13Y838D01*
X2529Y838D02*
X2536Y838D01*
X0Y837D02*
X13Y837D01*
X2529Y837D02*
X2536Y837D01*
X0Y836D02*
X13Y836D01*
X2529Y836D02*
X2536Y836D01*
X0Y835D02*
X13Y835D01*
X2529Y835D02*
X2536Y835D01*
X0Y834D02*
X13Y834D01*
X2529Y834D02*
X2536Y834D01*
X0Y833D02*
X13Y833D01*
X2529Y833D02*
X2536Y833D01*
X0Y832D02*
X13Y832D01*
X2529Y832D02*
X2536Y832D01*
X0Y831D02*
X13Y831D01*
X2529Y831D02*
X2536Y831D01*
X0Y830D02*
X13Y830D01*
X2529Y830D02*
X2536Y830D01*
X0Y829D02*
X13Y829D01*
X2529Y829D02*
X2536Y829D01*
X0Y828D02*
X13Y828D01*
X2529Y828D02*
X2536Y828D01*
X0Y827D02*
X13Y827D01*
X2529Y827D02*
X2536Y827D01*
X0Y826D02*
X13Y826D01*
X2529Y826D02*
X2536Y826D01*
X0Y825D02*
X13Y825D01*
X2529Y825D02*
X2536Y825D01*
X0Y824D02*
X13Y824D01*
X2529Y824D02*
X2536Y824D01*
X0Y823D02*
X13Y823D01*
X2529Y823D02*
X2536Y823D01*
X0Y822D02*
X13Y822D01*
X2529Y822D02*
X2536Y822D01*
X0Y821D02*
X13Y821D01*
X2529Y821D02*
X2536Y821D01*
X0Y820D02*
X13Y820D01*
X2529Y820D02*
X2536Y820D01*
X0Y819D02*
X13Y819D01*
X2529Y819D02*
X2536Y819D01*
X0Y818D02*
X13Y818D01*
X2529Y818D02*
X2536Y818D01*
X0Y817D02*
X13Y817D01*
X2529Y817D02*
X2536Y817D01*
X0Y816D02*
X13Y816D01*
X2529Y816D02*
X2536Y816D01*
X0Y815D02*
X13Y815D01*
X2529Y815D02*
X2536Y815D01*
X0Y814D02*
X13Y814D01*
X2529Y814D02*
X2536Y814D01*
X0Y813D02*
X13Y813D01*
X2529Y813D02*
X2536Y813D01*
X0Y812D02*
X13Y812D01*
X2529Y812D02*
X2536Y812D01*
X0Y811D02*
X13Y811D01*
X2529Y811D02*
X2536Y811D01*
X0Y810D02*
X13Y810D01*
X2529Y810D02*
X2536Y810D01*
X0Y809D02*
X13Y809D01*
X2529Y809D02*
X2536Y809D01*
X0Y808D02*
X13Y808D01*
X2529Y808D02*
X2536Y808D01*
X0Y807D02*
X13Y807D01*
X2529Y807D02*
X2536Y807D01*
X0Y806D02*
X13Y806D01*
X2529Y806D02*
X2536Y806D01*
X0Y805D02*
X13Y805D01*
X2529Y805D02*
X2536Y805D01*
X0Y804D02*
X13Y804D01*
X2529Y804D02*
X2536Y804D01*
X0Y803D02*
X13Y803D01*
X2529Y803D02*
X2536Y803D01*
X0Y802D02*
X13Y802D01*
X2529Y802D02*
X2536Y802D01*
X0Y801D02*
X13Y801D01*
X2529Y801D02*
X2536Y801D01*
X0Y800D02*
X13Y800D01*
X2529Y800D02*
X2536Y800D01*
X0Y799D02*
X13Y799D01*
X2529Y799D02*
X2536Y799D01*
X0Y798D02*
X13Y798D01*
X2529Y798D02*
X2536Y798D01*
X0Y797D02*
X13Y797D01*
X2529Y797D02*
X2536Y797D01*
X0Y796D02*
X13Y796D01*
X2529Y796D02*
X2536Y796D01*
X0Y795D02*
X13Y795D01*
X2529Y795D02*
X2536Y795D01*
X0Y794D02*
X13Y794D01*
X2529Y794D02*
X2536Y794D01*
X0Y793D02*
X13Y793D01*
X2529Y793D02*
X2536Y793D01*
X0Y792D02*
X13Y792D01*
X2529Y792D02*
X2536Y792D01*
X0Y791D02*
X13Y791D01*
X2529Y791D02*
X2536Y791D01*
X0Y790D02*
X13Y790D01*
X2529Y790D02*
X2536Y790D01*
X0Y789D02*
X13Y789D01*
X2529Y789D02*
X2536Y789D01*
X0Y788D02*
X13Y788D01*
X2529Y788D02*
X2536Y788D01*
X0Y787D02*
X13Y787D01*
X2529Y787D02*
X2536Y787D01*
X0Y786D02*
X13Y786D01*
X2529Y786D02*
X2536Y786D01*
X0Y785D02*
X13Y785D01*
X2529Y785D02*
X2536Y785D01*
X0Y784D02*
X13Y784D01*
X2529Y784D02*
X2536Y784D01*
X0Y783D02*
X13Y783D01*
X2529Y783D02*
X2536Y783D01*
X0Y782D02*
X13Y782D01*
X2529Y782D02*
X2536Y782D01*
X0Y781D02*
X13Y781D01*
X2529Y781D02*
X2536Y781D01*
X0Y780D02*
X13Y780D01*
X2529Y780D02*
X2536Y780D01*
X0Y779D02*
X13Y779D01*
X2529Y779D02*
X2536Y779D01*
X0Y778D02*
X13Y778D01*
X2529Y778D02*
X2536Y778D01*
X0Y777D02*
X13Y777D01*
X2529Y777D02*
X2536Y777D01*
X0Y776D02*
X13Y776D01*
X2529Y776D02*
X2536Y776D01*
X0Y775D02*
X13Y775D01*
X2529Y775D02*
X2536Y775D01*
X0Y774D02*
X13Y774D01*
X2529Y774D02*
X2536Y774D01*
X0Y773D02*
X13Y773D01*
X2529Y773D02*
X2536Y773D01*
X0Y772D02*
X13Y772D01*
X2529Y772D02*
X2536Y772D01*
X0Y771D02*
X13Y771D01*
X2529Y771D02*
X2536Y771D01*
X0Y770D02*
X13Y770D01*
X2529Y770D02*
X2536Y770D01*
X0Y769D02*
X13Y769D01*
X2529Y769D02*
X2536Y769D01*
X0Y768D02*
X13Y768D01*
X2529Y768D02*
X2536Y768D01*
X0Y767D02*
X13Y767D01*
X2529Y767D02*
X2536Y767D01*
X0Y766D02*
X13Y766D01*
X2529Y766D02*
X2536Y766D01*
X0Y765D02*
X13Y765D01*
X2529Y765D02*
X2536Y765D01*
X0Y764D02*
X13Y764D01*
X2529Y764D02*
X2536Y764D01*
X0Y763D02*
X13Y763D01*
X2529Y763D02*
X2536Y763D01*
X0Y762D02*
X13Y762D01*
X2529Y762D02*
X2536Y762D01*
X0Y761D02*
X13Y761D01*
X2529Y761D02*
X2536Y761D01*
X0Y760D02*
X13Y760D01*
X2529Y760D02*
X2536Y760D01*
X0Y759D02*
X13Y759D01*
X2529Y759D02*
X2536Y759D01*
X0Y758D02*
X13Y758D01*
X2529Y758D02*
X2536Y758D01*
X0Y757D02*
X13Y757D01*
X2529Y757D02*
X2536Y757D01*
X0Y756D02*
X13Y756D01*
X2529Y756D02*
X2536Y756D01*
X0Y755D02*
X13Y755D01*
X2529Y755D02*
X2536Y755D01*
X0Y754D02*
X13Y754D01*
X2529Y754D02*
X2536Y754D01*
X0Y753D02*
X13Y753D01*
X2529Y753D02*
X2536Y753D01*
X0Y752D02*
X13Y752D01*
X2529Y752D02*
X2536Y752D01*
X0Y751D02*
X13Y751D01*
X2529Y751D02*
X2536Y751D01*
X0Y750D02*
X13Y750D01*
X2529Y750D02*
X2536Y750D01*
X0Y749D02*
X13Y749D01*
X2529Y749D02*
X2536Y749D01*
X0Y748D02*
X13Y748D01*
X2529Y748D02*
X2536Y748D01*
X0Y747D02*
X13Y747D01*
X2529Y747D02*
X2536Y747D01*
X0Y746D02*
X13Y746D01*
X2529Y746D02*
X2536Y746D01*
X0Y745D02*
X13Y745D01*
X2529Y745D02*
X2536Y745D01*
X0Y744D02*
X13Y744D01*
X2529Y744D02*
X2536Y744D01*
X0Y743D02*
X13Y743D01*
X2529Y743D02*
X2536Y743D01*
X0Y742D02*
X13Y742D01*
X2529Y742D02*
X2536Y742D01*
X0Y741D02*
X13Y741D01*
X2529Y741D02*
X2536Y741D01*
X0Y740D02*
X13Y740D01*
X2529Y740D02*
X2536Y740D01*
X0Y739D02*
X13Y739D01*
X2529Y739D02*
X2536Y739D01*
X0Y738D02*
X13Y738D01*
X2529Y738D02*
X2536Y738D01*
X0Y737D02*
X13Y737D01*
X2529Y737D02*
X2536Y737D01*
X0Y736D02*
X13Y736D01*
X2529Y736D02*
X2536Y736D01*
X0Y735D02*
X13Y735D01*
X2529Y735D02*
X2536Y735D01*
X0Y734D02*
X13Y734D01*
X2529Y734D02*
X2536Y734D01*
X0Y733D02*
X13Y733D01*
X2529Y733D02*
X2536Y733D01*
X0Y732D02*
X13Y732D01*
X2529Y732D02*
X2536Y732D01*
X0Y731D02*
X13Y731D01*
X2529Y731D02*
X2536Y731D01*
X0Y730D02*
X13Y730D01*
X2529Y730D02*
X2536Y730D01*
X0Y729D02*
X13Y729D01*
X2529Y729D02*
X2536Y729D01*
X0Y728D02*
X13Y728D01*
X2529Y728D02*
X2536Y728D01*
X0Y727D02*
X13Y727D01*
X2529Y727D02*
X2536Y727D01*
X0Y726D02*
X13Y726D01*
X2529Y726D02*
X2536Y726D01*
X0Y725D02*
X13Y725D01*
X2529Y725D02*
X2536Y725D01*
X0Y724D02*
X13Y724D01*
X2529Y724D02*
X2536Y724D01*
X0Y723D02*
X13Y723D01*
X2529Y723D02*
X2536Y723D01*
X0Y722D02*
X13Y722D01*
X2529Y722D02*
X2536Y722D01*
X0Y721D02*
X13Y721D01*
X2529Y721D02*
X2536Y721D01*
X0Y720D02*
X13Y720D01*
X1546Y720D02*
X1573Y720D01*
X1597Y720D02*
X1616Y720D01*
X2529Y720D02*
X2536Y720D01*
X0Y719D02*
X13Y719D01*
X1546Y719D02*
X1575Y719D01*
X1597Y719D02*
X1616Y719D01*
X2529Y719D02*
X2536Y719D01*
X0Y718D02*
X13Y718D01*
X1546Y718D02*
X1576Y718D01*
X1596Y718D02*
X1616Y718D01*
X2529Y718D02*
X2536Y718D01*
X0Y717D02*
X13Y717D01*
X1546Y717D02*
X1577Y717D01*
X1596Y717D02*
X1616Y717D01*
X2529Y717D02*
X2536Y717D01*
X0Y716D02*
X13Y716D01*
X1546Y716D02*
X1578Y716D01*
X1596Y716D02*
X1616Y716D01*
X2529Y716D02*
X2536Y716D01*
X0Y715D02*
X13Y715D01*
X1546Y715D02*
X1578Y715D01*
X1597Y715D02*
X1616Y715D01*
X2529Y715D02*
X2536Y715D01*
X0Y714D02*
X13Y714D01*
X1546Y714D02*
X1579Y714D01*
X1598Y714D02*
X1616Y714D01*
X2529Y714D02*
X2536Y714D01*
X0Y713D02*
X13Y713D01*
X1546Y713D02*
X1552Y713D01*
X1572Y713D02*
X1579Y713D01*
X1610Y713D02*
X1616Y713D01*
X2529Y713D02*
X2536Y713D01*
X0Y712D02*
X13Y712D01*
X1546Y712D02*
X1552Y712D01*
X1573Y712D02*
X1579Y712D01*
X1610Y712D02*
X1616Y712D01*
X2529Y712D02*
X2536Y712D01*
X0Y711D02*
X13Y711D01*
X1546Y711D02*
X1552Y711D01*
X1573Y711D02*
X1580Y711D01*
X1610Y711D02*
X1616Y711D01*
X2529Y711D02*
X2536Y711D01*
X0Y710D02*
X13Y710D01*
X1546Y710D02*
X1552Y710D01*
X1574Y710D02*
X1580Y710D01*
X1610Y710D02*
X1616Y710D01*
X2529Y710D02*
X2536Y710D01*
X0Y709D02*
X13Y709D01*
X1546Y709D02*
X1552Y709D01*
X1574Y709D02*
X1580Y709D01*
X1610Y709D02*
X1616Y709D01*
X2529Y709D02*
X2536Y709D01*
X0Y708D02*
X13Y708D01*
X1546Y708D02*
X1552Y708D01*
X1574Y708D02*
X1580Y708D01*
X1610Y708D02*
X1616Y708D01*
X2529Y708D02*
X2536Y708D01*
X0Y707D02*
X13Y707D01*
X1546Y707D02*
X1552Y707D01*
X1574Y707D02*
X1580Y707D01*
X1610Y707D02*
X1616Y707D01*
X2529Y707D02*
X2536Y707D01*
X0Y706D02*
X13Y706D01*
X1546Y706D02*
X1552Y706D01*
X1574Y706D02*
X1580Y706D01*
X1610Y706D02*
X1616Y706D01*
X2529Y706D02*
X2536Y706D01*
X0Y705D02*
X13Y705D01*
X1546Y705D02*
X1552Y705D01*
X1573Y705D02*
X1579Y705D01*
X1610Y705D02*
X1616Y705D01*
X2529Y705D02*
X2536Y705D01*
X0Y704D02*
X13Y704D01*
X1546Y704D02*
X1552Y704D01*
X1572Y704D02*
X1579Y704D01*
X1610Y704D02*
X1616Y704D01*
X2529Y704D02*
X2536Y704D01*
X0Y703D02*
X13Y703D01*
X1546Y703D02*
X1552Y703D01*
X1570Y703D02*
X1579Y703D01*
X1610Y703D02*
X1616Y703D01*
X2529Y703D02*
X2536Y703D01*
X0Y702D02*
X13Y702D01*
X1546Y702D02*
X1579Y702D01*
X1610Y702D02*
X1616Y702D01*
X2529Y702D02*
X2536Y702D01*
X0Y701D02*
X13Y701D01*
X1546Y701D02*
X1578Y701D01*
X1610Y701D02*
X1616Y701D01*
X2529Y701D02*
X2536Y701D01*
X0Y700D02*
X13Y700D01*
X1546Y700D02*
X1577Y700D01*
X1610Y700D02*
X1616Y700D01*
X2529Y700D02*
X2536Y700D01*
X0Y699D02*
X13Y699D01*
X1546Y699D02*
X1576Y699D01*
X1610Y699D02*
X1616Y699D01*
X2529Y699D02*
X2536Y699D01*
X0Y698D02*
X13Y698D01*
X1546Y698D02*
X1575Y698D01*
X1610Y698D02*
X1616Y698D01*
X2529Y698D02*
X2536Y698D01*
X0Y697D02*
X13Y697D01*
X1546Y697D02*
X1574Y697D01*
X1610Y697D02*
X1616Y697D01*
X2529Y697D02*
X2536Y697D01*
X0Y696D02*
X13Y696D01*
X1546Y696D02*
X1570Y696D01*
X1610Y696D02*
X1616Y696D01*
X2529Y696D02*
X2536Y696D01*
X0Y695D02*
X13Y695D01*
X1546Y695D02*
X1552Y695D01*
X1558Y695D02*
X1566Y695D01*
X1610Y695D02*
X1616Y695D01*
X2529Y695D02*
X2536Y695D01*
X0Y694D02*
X13Y694D01*
X1546Y694D02*
X1552Y694D01*
X1559Y694D02*
X1566Y694D01*
X1610Y694D02*
X1616Y694D01*
X2529Y694D02*
X2536Y694D01*
X0Y693D02*
X13Y693D01*
X1546Y693D02*
X1552Y693D01*
X1560Y693D02*
X1567Y693D01*
X1610Y693D02*
X1616Y693D01*
X2529Y693D02*
X2536Y693D01*
X0Y692D02*
X13Y692D01*
X1546Y692D02*
X1552Y692D01*
X1560Y692D02*
X1567Y692D01*
X1610Y692D02*
X1616Y692D01*
X2529Y692D02*
X2536Y692D01*
X0Y691D02*
X13Y691D01*
X1546Y691D02*
X1552Y691D01*
X1561Y691D02*
X1568Y691D01*
X1610Y691D02*
X1616Y691D01*
X1626Y691D02*
X1627Y691D01*
X2529Y691D02*
X2536Y691D01*
X0Y690D02*
X13Y690D01*
X1546Y690D02*
X1552Y690D01*
X1561Y690D02*
X1569Y690D01*
X1610Y690D02*
X1616Y690D01*
X1624Y690D02*
X1629Y690D01*
X2529Y690D02*
X2536Y690D01*
X0Y689D02*
X13Y689D01*
X1546Y689D02*
X1552Y689D01*
X1562Y689D02*
X1569Y689D01*
X1610Y689D02*
X1616Y689D01*
X1624Y689D02*
X1629Y689D01*
X2529Y689D02*
X2536Y689D01*
X0Y688D02*
X13Y688D01*
X496Y688D02*
X505Y688D01*
X1546Y688D02*
X1552Y688D01*
X1562Y688D02*
X1570Y688D01*
X1610Y688D02*
X1616Y688D01*
X1624Y688D02*
X1630Y688D01*
X2529Y688D02*
X2536Y688D01*
X0Y687D02*
X13Y687D01*
X496Y687D02*
X505Y687D01*
X1546Y687D02*
X1552Y687D01*
X1563Y687D02*
X1570Y687D01*
X1610Y687D02*
X1616Y687D01*
X1624Y687D02*
X1630Y687D01*
X2529Y687D02*
X2536Y687D01*
X0Y686D02*
X13Y686D01*
X496Y686D02*
X505Y686D01*
X1546Y686D02*
X1552Y686D01*
X1564Y686D02*
X1571Y686D01*
X1610Y686D02*
X1616Y686D01*
X1624Y686D02*
X1630Y686D01*
X2529Y686D02*
X2536Y686D01*
X0Y685D02*
X13Y685D01*
X496Y685D02*
X505Y685D01*
X1546Y685D02*
X1552Y685D01*
X1564Y685D02*
X1571Y685D01*
X1610Y685D02*
X1616Y685D01*
X1624Y685D02*
X1630Y685D01*
X2529Y685D02*
X2536Y685D01*
X0Y684D02*
X13Y684D01*
X496Y684D02*
X505Y684D01*
X1546Y684D02*
X1552Y684D01*
X1565Y684D02*
X1572Y684D01*
X1610Y684D02*
X1616Y684D01*
X1624Y684D02*
X1630Y684D01*
X2529Y684D02*
X2536Y684D01*
X0Y683D02*
X13Y683D01*
X496Y683D02*
X505Y683D01*
X1546Y683D02*
X1552Y683D01*
X1565Y683D02*
X1573Y683D01*
X1610Y683D02*
X1616Y683D01*
X1624Y683D02*
X1630Y683D01*
X2529Y683D02*
X2536Y683D01*
X0Y682D02*
X13Y682D01*
X496Y682D02*
X505Y682D01*
X1546Y682D02*
X1552Y682D01*
X1566Y682D02*
X1573Y682D01*
X1610Y682D02*
X1616Y682D01*
X1624Y682D02*
X1630Y682D01*
X2529Y682D02*
X2536Y682D01*
X0Y681D02*
X13Y681D01*
X496Y681D02*
X505Y681D01*
X1546Y681D02*
X1552Y681D01*
X1567Y681D02*
X1574Y681D01*
X1610Y681D02*
X1616Y681D01*
X1624Y681D02*
X1630Y681D01*
X2529Y681D02*
X2536Y681D01*
X0Y680D02*
X13Y680D01*
X496Y680D02*
X505Y680D01*
X1546Y680D02*
X1552Y680D01*
X1567Y680D02*
X1574Y680D01*
X1610Y680D02*
X1616Y680D01*
X1624Y680D02*
X1630Y680D01*
X2529Y680D02*
X2536Y680D01*
X0Y679D02*
X13Y679D01*
X496Y679D02*
X505Y679D01*
X1546Y679D02*
X1552Y679D01*
X1568Y679D02*
X1575Y679D01*
X1610Y679D02*
X1616Y679D01*
X1624Y679D02*
X1630Y679D01*
X2529Y679D02*
X2536Y679D01*
X0Y678D02*
X13Y678D01*
X496Y678D02*
X505Y678D01*
X1546Y678D02*
X1552Y678D01*
X1568Y678D02*
X1576Y678D01*
X1610Y678D02*
X1616Y678D01*
X1624Y678D02*
X1630Y678D01*
X2529Y678D02*
X2536Y678D01*
X0Y677D02*
X13Y677D01*
X496Y677D02*
X505Y677D01*
X1546Y677D02*
X1552Y677D01*
X1569Y677D02*
X1576Y677D01*
X1610Y677D02*
X1616Y677D01*
X1624Y677D02*
X1630Y677D01*
X2529Y677D02*
X2536Y677D01*
X0Y676D02*
X13Y676D01*
X496Y676D02*
X505Y676D01*
X1546Y676D02*
X1552Y676D01*
X1569Y676D02*
X1577Y676D01*
X1610Y676D02*
X1616Y676D01*
X1624Y676D02*
X1630Y676D01*
X2529Y676D02*
X2536Y676D01*
X0Y675D02*
X13Y675D01*
X496Y675D02*
X505Y675D01*
X1546Y675D02*
X1552Y675D01*
X1570Y675D02*
X1577Y675D01*
X1610Y675D02*
X1616Y675D01*
X1624Y675D02*
X1630Y675D01*
X2529Y675D02*
X2536Y675D01*
X0Y674D02*
X13Y674D01*
X496Y674D02*
X505Y674D01*
X1546Y674D02*
X1552Y674D01*
X1571Y674D02*
X1578Y674D01*
X1610Y674D02*
X1616Y674D01*
X1624Y674D02*
X1630Y674D01*
X2529Y674D02*
X2536Y674D01*
X0Y673D02*
X13Y673D01*
X496Y673D02*
X505Y673D01*
X1546Y673D02*
X1552Y673D01*
X1571Y673D02*
X1578Y673D01*
X1598Y673D02*
X1630Y673D01*
X2529Y673D02*
X2536Y673D01*
X0Y672D02*
X13Y672D01*
X496Y672D02*
X505Y672D01*
X1546Y672D02*
X1552Y672D01*
X1572Y672D02*
X1579Y672D01*
X1597Y672D02*
X1630Y672D01*
X2529Y672D02*
X2536Y672D01*
X0Y671D02*
X13Y671D01*
X496Y671D02*
X505Y671D01*
X1546Y671D02*
X1552Y671D01*
X1572Y671D02*
X1579Y671D01*
X1596Y671D02*
X1630Y671D01*
X2529Y671D02*
X2536Y671D01*
X0Y670D02*
X13Y670D01*
X496Y670D02*
X505Y670D01*
X1546Y670D02*
X1552Y670D01*
X1573Y670D02*
X1580Y670D01*
X1596Y670D02*
X1630Y670D01*
X2529Y670D02*
X2536Y670D01*
X0Y669D02*
X13Y669D01*
X496Y669D02*
X505Y669D01*
X1546Y669D02*
X1552Y669D01*
X1574Y669D02*
X1579Y669D01*
X1596Y669D02*
X1629Y669D01*
X2529Y669D02*
X2536Y669D01*
X0Y668D02*
X13Y668D01*
X496Y668D02*
X505Y668D01*
X1547Y668D02*
X1551Y668D01*
X1574Y668D02*
X1579Y668D01*
X1597Y668D02*
X1629Y668D01*
X2529Y668D02*
X2536Y668D01*
X0Y667D02*
X13Y667D01*
X496Y667D02*
X505Y667D01*
X1548Y667D02*
X1550Y667D01*
X1575Y667D02*
X1578Y667D01*
X1598Y667D02*
X1628Y667D01*
X2529Y667D02*
X2536Y667D01*
X0Y666D02*
X13Y666D01*
X496Y666D02*
X505Y666D01*
X2529Y666D02*
X2536Y666D01*
X0Y665D02*
X13Y665D01*
X496Y665D02*
X505Y665D01*
X2529Y665D02*
X2536Y665D01*
X0Y664D02*
X13Y664D01*
X496Y664D02*
X505Y664D01*
X2529Y664D02*
X2536Y664D01*
X0Y663D02*
X13Y663D01*
X496Y663D02*
X505Y663D01*
X2529Y663D02*
X2536Y663D01*
X0Y662D02*
X13Y662D01*
X496Y662D02*
X505Y662D01*
X2529Y662D02*
X2536Y662D01*
X0Y661D02*
X13Y661D01*
X496Y661D02*
X505Y661D01*
X2529Y661D02*
X2536Y661D01*
X0Y660D02*
X13Y660D01*
X496Y660D02*
X505Y660D01*
X2529Y660D02*
X2536Y660D01*
X0Y659D02*
X13Y659D01*
X496Y659D02*
X505Y659D01*
X2529Y659D02*
X2536Y659D01*
X0Y658D02*
X13Y658D01*
X496Y658D02*
X505Y658D01*
X2529Y658D02*
X2536Y658D01*
X0Y657D02*
X13Y657D01*
X496Y657D02*
X505Y657D01*
X2529Y657D02*
X2536Y657D01*
X0Y656D02*
X13Y656D01*
X496Y656D02*
X505Y656D01*
X2529Y656D02*
X2536Y656D01*
X0Y655D02*
X13Y655D01*
X496Y655D02*
X505Y655D01*
X2529Y655D02*
X2536Y655D01*
X0Y654D02*
X13Y654D01*
X496Y654D02*
X505Y654D01*
X2529Y654D02*
X2536Y654D01*
X0Y653D02*
X13Y653D01*
X496Y653D02*
X505Y653D01*
X2529Y653D02*
X2536Y653D01*
X0Y652D02*
X13Y652D01*
X496Y652D02*
X505Y652D01*
X2529Y652D02*
X2536Y652D01*
X0Y651D02*
X13Y651D01*
X496Y651D02*
X505Y651D01*
X2529Y651D02*
X2536Y651D01*
X0Y650D02*
X13Y650D01*
X496Y650D02*
X505Y650D01*
X2529Y650D02*
X2536Y650D01*
X0Y649D02*
X13Y649D01*
X496Y649D02*
X505Y649D01*
X2529Y649D02*
X2536Y649D01*
X0Y648D02*
X13Y648D01*
X496Y648D02*
X505Y648D01*
X2529Y648D02*
X2536Y648D01*
X0Y647D02*
X13Y647D01*
X496Y647D02*
X505Y647D01*
X2529Y647D02*
X2536Y647D01*
X0Y646D02*
X13Y646D01*
X496Y646D02*
X505Y646D01*
X2529Y646D02*
X2536Y646D01*
X0Y645D02*
X13Y645D01*
X496Y645D02*
X505Y645D01*
X2529Y645D02*
X2536Y645D01*
X0Y644D02*
X13Y644D01*
X496Y644D02*
X505Y644D01*
X2529Y644D02*
X2536Y644D01*
X0Y643D02*
X13Y643D01*
X496Y643D02*
X505Y643D01*
X2529Y643D02*
X2536Y643D01*
X0Y642D02*
X13Y642D01*
X496Y642D02*
X505Y642D01*
X2529Y642D02*
X2536Y642D01*
X0Y641D02*
X13Y641D01*
X496Y641D02*
X505Y641D01*
X2529Y641D02*
X2536Y641D01*
X0Y640D02*
X13Y640D01*
X2529Y640D02*
X2536Y640D01*
X0Y639D02*
X13Y639D01*
X2529Y639D02*
X2536Y639D01*
X0Y638D02*
X13Y638D01*
X2529Y638D02*
X2536Y638D01*
X0Y637D02*
X13Y637D01*
X2529Y637D02*
X2536Y637D01*
X0Y636D02*
X13Y636D01*
X2529Y636D02*
X2536Y636D01*
X0Y635D02*
X13Y635D01*
X2529Y635D02*
X2536Y635D01*
X0Y634D02*
X13Y634D01*
X2529Y634D02*
X2536Y634D01*
X0Y633D02*
X13Y633D01*
X2529Y633D02*
X2536Y633D01*
X0Y632D02*
X13Y632D01*
X2529Y632D02*
X2536Y632D01*
X0Y631D02*
X13Y631D01*
X2529Y631D02*
X2536Y631D01*
X0Y630D02*
X13Y630D01*
X2529Y630D02*
X2536Y630D01*
X0Y629D02*
X13Y629D01*
X2529Y629D02*
X2536Y629D01*
X0Y628D02*
X13Y628D01*
X2529Y628D02*
X2536Y628D01*
X0Y627D02*
X13Y627D01*
X2529Y627D02*
X2536Y627D01*
X0Y626D02*
X13Y626D01*
X2529Y626D02*
X2536Y626D01*
X0Y625D02*
X13Y625D01*
X2529Y625D02*
X2536Y625D01*
X0Y624D02*
X13Y624D01*
X2529Y624D02*
X2536Y624D01*
X0Y623D02*
X13Y623D01*
X2529Y623D02*
X2536Y623D01*
X0Y622D02*
X13Y622D01*
X2529Y622D02*
X2536Y622D01*
X0Y621D02*
X13Y621D01*
X2529Y621D02*
X2536Y621D01*
X0Y620D02*
X13Y620D01*
X2529Y620D02*
X2536Y620D01*
X0Y619D02*
X13Y619D01*
X2529Y619D02*
X2536Y619D01*
X0Y618D02*
X13Y618D01*
X2529Y618D02*
X2536Y618D01*
X0Y617D02*
X13Y617D01*
X2529Y617D02*
X2536Y617D01*
X0Y616D02*
X13Y616D01*
X2529Y616D02*
X2536Y616D01*
X0Y615D02*
X13Y615D01*
X2529Y615D02*
X2536Y615D01*
X0Y614D02*
X13Y614D01*
X2529Y614D02*
X2536Y614D01*
X0Y613D02*
X13Y613D01*
X2529Y613D02*
X2536Y613D01*
X0Y612D02*
X13Y612D01*
X2529Y612D02*
X2536Y612D01*
X0Y611D02*
X13Y611D01*
X2529Y611D02*
X2536Y611D01*
X0Y610D02*
X13Y610D01*
X2529Y610D02*
X2536Y610D01*
X0Y609D02*
X13Y609D01*
X2529Y609D02*
X2536Y609D01*
X0Y608D02*
X13Y608D01*
X2529Y608D02*
X2536Y608D01*
X0Y607D02*
X13Y607D01*
X2529Y607D02*
X2536Y607D01*
X0Y606D02*
X13Y606D01*
X2529Y606D02*
X2536Y606D01*
X0Y605D02*
X13Y605D01*
X2529Y605D02*
X2536Y605D01*
X0Y604D02*
X13Y604D01*
X2529Y604D02*
X2536Y604D01*
X0Y603D02*
X13Y603D01*
X2529Y603D02*
X2536Y603D01*
X0Y602D02*
X13Y602D01*
X1143Y602D02*
X1209Y602D01*
X1410Y602D02*
X1457Y602D01*
X2529Y602D02*
X2536Y602D01*
X0Y601D02*
X13Y601D01*
X1143Y601D02*
X1209Y601D01*
X1410Y601D02*
X1457Y601D01*
X2529Y601D02*
X2536Y601D01*
X0Y600D02*
X13Y600D01*
X1143Y600D02*
X1209Y600D01*
X1410Y600D02*
X1457Y600D01*
X2529Y600D02*
X2536Y600D01*
X0Y599D02*
X13Y599D01*
X1143Y599D02*
X1209Y599D01*
X1410Y599D02*
X1457Y599D01*
X2529Y599D02*
X2536Y599D01*
X0Y598D02*
X13Y598D01*
X1143Y598D02*
X1209Y598D01*
X1410Y598D02*
X1457Y598D01*
X2529Y598D02*
X2536Y598D01*
X0Y597D02*
X13Y597D01*
X1143Y597D02*
X1209Y597D01*
X1410Y597D02*
X1457Y597D01*
X2529Y597D02*
X2536Y597D01*
X0Y596D02*
X13Y596D01*
X1143Y596D02*
X1209Y596D01*
X1410Y596D02*
X1457Y596D01*
X2529Y596D02*
X2536Y596D01*
X0Y595D02*
X13Y595D01*
X1143Y595D02*
X1209Y595D01*
X1410Y595D02*
X1457Y595D01*
X2529Y595D02*
X2536Y595D01*
X0Y594D02*
X13Y594D01*
X1143Y594D02*
X1209Y594D01*
X1410Y594D02*
X1457Y594D01*
X2529Y594D02*
X2536Y594D01*
X0Y593D02*
X13Y593D01*
X1143Y593D02*
X1209Y593D01*
X1410Y593D02*
X1458Y593D01*
X2529Y593D02*
X2536Y593D01*
X0Y592D02*
X13Y592D01*
X2529Y592D02*
X2536Y592D01*
X0Y591D02*
X13Y591D01*
X2529Y591D02*
X2536Y591D01*
X0Y590D02*
X13Y590D01*
X2529Y590D02*
X2536Y590D01*
X0Y589D02*
X13Y589D01*
X2529Y589D02*
X2536Y589D01*
X0Y588D02*
X13Y588D01*
X2529Y588D02*
X2536Y588D01*
X0Y587D02*
X13Y587D01*
X2529Y587D02*
X2536Y587D01*
X0Y586D02*
X13Y586D01*
X2529Y586D02*
X2536Y586D01*
X0Y585D02*
X13Y585D01*
X2529Y585D02*
X2536Y585D01*
X0Y584D02*
X13Y584D01*
X2529Y584D02*
X2536Y584D01*
X0Y583D02*
X13Y583D01*
X2529Y583D02*
X2536Y583D01*
X0Y582D02*
X13Y582D01*
X2529Y582D02*
X2536Y582D01*
X0Y581D02*
X13Y581D01*
X2529Y581D02*
X2536Y581D01*
X0Y580D02*
X13Y580D01*
X2529Y580D02*
X2536Y580D01*
X0Y579D02*
X13Y579D01*
X2529Y579D02*
X2536Y579D01*
X0Y578D02*
X13Y578D01*
X2529Y578D02*
X2536Y578D01*
X0Y577D02*
X13Y577D01*
X2529Y577D02*
X2536Y577D01*
X0Y576D02*
X13Y576D01*
X2529Y576D02*
X2536Y576D01*
X0Y575D02*
X13Y575D01*
X2529Y575D02*
X2536Y575D01*
X0Y574D02*
X13Y574D01*
X2529Y574D02*
X2536Y574D01*
X0Y573D02*
X13Y573D01*
X2529Y573D02*
X2536Y573D01*
X0Y572D02*
X13Y572D01*
X2529Y572D02*
X2536Y572D01*
X0Y571D02*
X13Y571D01*
X2529Y571D02*
X2536Y571D01*
X0Y570D02*
X13Y570D01*
X2529Y570D02*
X2536Y570D01*
X0Y569D02*
X13Y569D01*
X2529Y569D02*
X2536Y569D01*
X0Y568D02*
X13Y568D01*
X2529Y568D02*
X2536Y568D01*
X0Y567D02*
X13Y567D01*
X2529Y567D02*
X2536Y567D01*
X0Y566D02*
X13Y566D01*
X2529Y566D02*
X2536Y566D01*
X0Y565D02*
X13Y565D01*
X2529Y565D02*
X2536Y565D01*
X0Y564D02*
X13Y564D01*
X2529Y564D02*
X2536Y564D01*
X0Y563D02*
X13Y563D01*
X2529Y563D02*
X2536Y563D01*
X0Y562D02*
X13Y562D01*
X2529Y562D02*
X2536Y562D01*
X0Y561D02*
X13Y561D01*
X2529Y561D02*
X2536Y561D01*
X0Y560D02*
X13Y560D01*
X2529Y560D02*
X2536Y560D01*
X0Y559D02*
X13Y559D01*
X2529Y559D02*
X2536Y559D01*
X0Y558D02*
X13Y558D01*
X2529Y558D02*
X2536Y558D01*
X0Y557D02*
X13Y557D01*
X2529Y557D02*
X2536Y557D01*
X0Y556D02*
X13Y556D01*
X2529Y556D02*
X2536Y556D01*
X0Y555D02*
X13Y555D01*
X2529Y555D02*
X2536Y555D01*
X0Y554D02*
X13Y554D01*
X2529Y554D02*
X2536Y554D01*
X0Y553D02*
X13Y553D01*
X2529Y553D02*
X2536Y553D01*
X0Y552D02*
X13Y552D01*
X571Y552D02*
X623Y552D01*
X2529Y552D02*
X2536Y552D01*
X0Y551D02*
X13Y551D01*
X570Y551D02*
X623Y551D01*
X2529Y551D02*
X2536Y551D01*
X0Y550D02*
X13Y550D01*
X570Y550D02*
X623Y550D01*
X2529Y550D02*
X2536Y550D01*
X0Y549D02*
X13Y549D01*
X570Y549D02*
X623Y549D01*
X2529Y549D02*
X2536Y549D01*
X0Y548D02*
X13Y548D01*
X570Y548D02*
X623Y548D01*
X2529Y548D02*
X2536Y548D01*
X0Y547D02*
X13Y547D01*
X570Y547D02*
X623Y547D01*
X2529Y547D02*
X2536Y547D01*
X0Y546D02*
X13Y546D01*
X571Y546D02*
X623Y546D01*
X2529Y546D02*
X2536Y546D01*
X0Y545D02*
X13Y545D01*
X599Y545D02*
X605Y545D01*
X617Y545D02*
X623Y545D01*
X2529Y545D02*
X2536Y545D01*
X0Y544D02*
X13Y544D01*
X599Y544D02*
X605Y544D01*
X617Y544D02*
X623Y544D01*
X2529Y544D02*
X2536Y544D01*
X0Y543D02*
X13Y543D01*
X599Y543D02*
X605Y543D01*
X617Y543D02*
X623Y543D01*
X2529Y543D02*
X2536Y543D01*
X0Y542D02*
X13Y542D01*
X599Y542D02*
X605Y542D01*
X617Y542D02*
X623Y542D01*
X2529Y542D02*
X2536Y542D01*
X0Y541D02*
X13Y541D01*
X599Y541D02*
X605Y541D01*
X617Y541D02*
X623Y541D01*
X2529Y541D02*
X2536Y541D01*
X0Y540D02*
X13Y540D01*
X598Y540D02*
X605Y540D01*
X617Y540D02*
X623Y540D01*
X2529Y540D02*
X2536Y540D01*
X0Y539D02*
X13Y539D01*
X596Y539D02*
X605Y539D01*
X617Y539D02*
X623Y539D01*
X2529Y539D02*
X2536Y539D01*
X0Y538D02*
X13Y538D01*
X594Y538D02*
X605Y538D01*
X617Y538D02*
X623Y538D01*
X2529Y538D02*
X2536Y538D01*
X0Y537D02*
X13Y537D01*
X593Y537D02*
X605Y537D01*
X617Y537D02*
X623Y537D01*
X2529Y537D02*
X2536Y537D01*
X0Y536D02*
X13Y536D01*
X591Y536D02*
X605Y536D01*
X617Y536D02*
X623Y536D01*
X2529Y536D02*
X2536Y536D01*
X0Y535D02*
X13Y535D01*
X589Y535D02*
X605Y535D01*
X617Y535D02*
X623Y535D01*
X2529Y535D02*
X2536Y535D01*
X0Y534D02*
X13Y534D01*
X588Y534D02*
X605Y534D01*
X617Y534D02*
X623Y534D01*
X2529Y534D02*
X2536Y534D01*
X0Y533D02*
X13Y533D01*
X586Y533D02*
X605Y533D01*
X617Y533D02*
X623Y533D01*
X2529Y533D02*
X2536Y533D01*
X0Y532D02*
X13Y532D01*
X584Y532D02*
X597Y532D01*
X599Y532D02*
X605Y532D01*
X617Y532D02*
X623Y532D01*
X2529Y532D02*
X2536Y532D01*
X0Y531D02*
X13Y531D01*
X582Y531D02*
X595Y531D01*
X599Y531D02*
X605Y531D01*
X617Y531D02*
X623Y531D01*
X2529Y531D02*
X2536Y531D01*
X0Y530D02*
X13Y530D01*
X581Y530D02*
X594Y530D01*
X599Y530D02*
X605Y530D01*
X617Y530D02*
X623Y530D01*
X2529Y530D02*
X2536Y530D01*
X0Y529D02*
X13Y529D01*
X579Y529D02*
X592Y529D01*
X599Y529D02*
X605Y529D01*
X617Y529D02*
X623Y529D01*
X2529Y529D02*
X2536Y529D01*
X0Y528D02*
X13Y528D01*
X577Y528D02*
X590Y528D01*
X599Y528D02*
X605Y528D01*
X617Y528D02*
X623Y528D01*
X2529Y528D02*
X2536Y528D01*
X0Y527D02*
X13Y527D01*
X576Y527D02*
X589Y527D01*
X599Y527D02*
X605Y527D01*
X616Y527D02*
X623Y527D01*
X2529Y527D02*
X2536Y527D01*
X0Y526D02*
X13Y526D01*
X574Y526D02*
X587Y526D01*
X599Y526D02*
X606Y526D01*
X616Y526D02*
X622Y526D01*
X2529Y526D02*
X2536Y526D01*
X0Y525D02*
X13Y525D01*
X572Y525D02*
X585Y525D01*
X600Y525D02*
X608Y525D01*
X614Y525D02*
X622Y525D01*
X2529Y525D02*
X2536Y525D01*
X0Y524D02*
X13Y524D01*
X571Y524D02*
X583Y524D01*
X600Y524D02*
X622Y524D01*
X2529Y524D02*
X2536Y524D01*
X0Y523D02*
X13Y523D01*
X570Y523D02*
X582Y523D01*
X601Y523D02*
X621Y523D01*
X2529Y523D02*
X2536Y523D01*
X0Y522D02*
X13Y522D01*
X570Y522D02*
X580Y522D01*
X601Y522D02*
X620Y522D01*
X2529Y522D02*
X2536Y522D01*
X0Y521D02*
X13Y521D01*
X570Y521D02*
X578Y521D01*
X602Y521D02*
X620Y521D01*
X2529Y521D02*
X2536Y521D01*
X0Y520D02*
X13Y520D01*
X570Y520D02*
X577Y520D01*
X603Y520D02*
X618Y520D01*
X2529Y520D02*
X2536Y520D01*
X0Y519D02*
X13Y519D01*
X571Y519D02*
X575Y519D01*
X605Y519D02*
X617Y519D01*
X2529Y519D02*
X2536Y519D01*
X0Y518D02*
X13Y518D01*
X573Y518D02*
X573Y518D01*
X609Y518D02*
X613Y518D01*
X2529Y518D02*
X2536Y518D01*
X0Y517D02*
X13Y517D01*
X2529Y517D02*
X2536Y517D01*
X0Y516D02*
X13Y516D01*
X2529Y516D02*
X2536Y516D01*
X0Y515D02*
X13Y515D01*
X2529Y515D02*
X2536Y515D01*
X0Y514D02*
X13Y514D01*
X2529Y514D02*
X2536Y514D01*
X0Y513D02*
X13Y513D01*
X2529Y513D02*
X2536Y513D01*
X0Y512D02*
X13Y512D01*
X2529Y512D02*
X2536Y512D01*
X0Y511D02*
X13Y511D01*
X2529Y511D02*
X2536Y511D01*
X0Y510D02*
X13Y510D01*
X2529Y510D02*
X2536Y510D01*
X0Y509D02*
X13Y509D01*
X2529Y509D02*
X2536Y509D01*
X0Y508D02*
X13Y508D01*
X2529Y508D02*
X2536Y508D01*
X0Y507D02*
X13Y507D01*
X2529Y507D02*
X2536Y507D01*
X0Y506D02*
X13Y506D01*
X2529Y506D02*
X2536Y506D01*
X0Y505D02*
X13Y505D01*
X2529Y505D02*
X2536Y505D01*
X0Y504D02*
X13Y504D01*
X2529Y504D02*
X2536Y504D01*
X0Y503D02*
X13Y503D01*
X2529Y503D02*
X2536Y503D01*
X0Y502D02*
X13Y502D01*
X570Y502D02*
X595Y502D01*
X618Y502D02*
X621Y502D01*
X2529Y502D02*
X2536Y502D01*
X0Y501D02*
X13Y501D01*
X570Y501D02*
X597Y501D01*
X617Y501D02*
X622Y501D01*
X2529Y501D02*
X2536Y501D01*
X0Y500D02*
X13Y500D01*
X570Y500D02*
X598Y500D01*
X617Y500D02*
X623Y500D01*
X2529Y500D02*
X2536Y500D01*
X0Y499D02*
X13Y499D01*
X570Y499D02*
X598Y499D01*
X617Y499D02*
X623Y499D01*
X2529Y499D02*
X2536Y499D01*
X0Y498D02*
X13Y498D01*
X570Y498D02*
X599Y498D01*
X617Y498D02*
X623Y498D01*
X2529Y498D02*
X2536Y498D01*
X0Y497D02*
X13Y497D01*
X570Y497D02*
X599Y497D01*
X617Y497D02*
X623Y497D01*
X2529Y497D02*
X2536Y497D01*
X0Y496D02*
X13Y496D01*
X570Y496D02*
X599Y496D01*
X617Y496D02*
X623Y496D01*
X2529Y496D02*
X2536Y496D01*
X0Y495D02*
X13Y495D01*
X570Y495D02*
X576Y495D01*
X593Y495D02*
X599Y495D01*
X617Y495D02*
X623Y495D01*
X2529Y495D02*
X2536Y495D01*
X0Y494D02*
X13Y494D01*
X570Y494D02*
X576Y494D01*
X593Y494D02*
X599Y494D01*
X617Y494D02*
X623Y494D01*
X2529Y494D02*
X2536Y494D01*
X0Y493D02*
X13Y493D01*
X570Y493D02*
X576Y493D01*
X593Y493D02*
X599Y493D01*
X617Y493D02*
X623Y493D01*
X2529Y493D02*
X2536Y493D01*
X0Y492D02*
X13Y492D01*
X570Y492D02*
X576Y492D01*
X593Y492D02*
X599Y492D01*
X617Y492D02*
X623Y492D01*
X2529Y492D02*
X2536Y492D01*
X0Y491D02*
X13Y491D01*
X570Y491D02*
X576Y491D01*
X593Y491D02*
X599Y491D01*
X617Y491D02*
X623Y491D01*
X2529Y491D02*
X2536Y491D01*
X0Y490D02*
X13Y490D01*
X570Y490D02*
X576Y490D01*
X593Y490D02*
X599Y490D01*
X617Y490D02*
X623Y490D01*
X2529Y490D02*
X2536Y490D01*
X0Y489D02*
X13Y489D01*
X570Y489D02*
X576Y489D01*
X593Y489D02*
X599Y489D01*
X617Y489D02*
X623Y489D01*
X2529Y489D02*
X2536Y489D01*
X0Y488D02*
X13Y488D01*
X570Y488D02*
X576Y488D01*
X593Y488D02*
X599Y488D01*
X617Y488D02*
X623Y488D01*
X2529Y488D02*
X2536Y488D01*
X0Y487D02*
X13Y487D01*
X570Y487D02*
X576Y487D01*
X593Y487D02*
X599Y487D01*
X617Y487D02*
X623Y487D01*
X2529Y487D02*
X2536Y487D01*
X0Y486D02*
X13Y486D01*
X570Y486D02*
X576Y486D01*
X593Y486D02*
X599Y486D01*
X617Y486D02*
X623Y486D01*
X2529Y486D02*
X2536Y486D01*
X0Y485D02*
X13Y485D01*
X570Y485D02*
X576Y485D01*
X593Y485D02*
X599Y485D01*
X617Y485D02*
X623Y485D01*
X2529Y485D02*
X2536Y485D01*
X0Y484D02*
X13Y484D01*
X570Y484D02*
X576Y484D01*
X593Y484D02*
X599Y484D01*
X617Y484D02*
X623Y484D01*
X2529Y484D02*
X2536Y484D01*
X0Y483D02*
X13Y483D01*
X570Y483D02*
X576Y483D01*
X593Y483D02*
X599Y483D01*
X617Y483D02*
X623Y483D01*
X2529Y483D02*
X2536Y483D01*
X0Y482D02*
X13Y482D01*
X570Y482D02*
X576Y482D01*
X593Y482D02*
X599Y482D01*
X617Y482D02*
X623Y482D01*
X2529Y482D02*
X2536Y482D01*
X0Y481D02*
X13Y481D01*
X570Y481D02*
X576Y481D01*
X593Y481D02*
X599Y481D01*
X617Y481D02*
X623Y481D01*
X2529Y481D02*
X2536Y481D01*
X0Y480D02*
X13Y480D01*
X570Y480D02*
X576Y480D01*
X593Y480D02*
X599Y480D01*
X617Y480D02*
X623Y480D01*
X2529Y480D02*
X2536Y480D01*
X0Y479D02*
X13Y479D01*
X570Y479D02*
X576Y479D01*
X593Y479D02*
X599Y479D01*
X617Y479D02*
X623Y479D01*
X2529Y479D02*
X2536Y479D01*
X0Y478D02*
X13Y478D01*
X570Y478D02*
X576Y478D01*
X593Y478D02*
X599Y478D01*
X617Y478D02*
X623Y478D01*
X2529Y478D02*
X2536Y478D01*
X0Y477D02*
X13Y477D01*
X570Y477D02*
X576Y477D01*
X593Y477D02*
X599Y477D01*
X617Y477D02*
X623Y477D01*
X2529Y477D02*
X2536Y477D01*
X0Y476D02*
X13Y476D01*
X570Y476D02*
X576Y476D01*
X593Y476D02*
X599Y476D01*
X617Y476D02*
X623Y476D01*
X2529Y476D02*
X2536Y476D01*
X0Y475D02*
X13Y475D01*
X570Y475D02*
X576Y475D01*
X593Y475D02*
X600Y475D01*
X616Y475D02*
X623Y475D01*
X2529Y475D02*
X2536Y475D01*
X0Y474D02*
X13Y474D01*
X570Y474D02*
X576Y474D01*
X593Y474D02*
X623Y474D01*
X2529Y474D02*
X2536Y474D01*
X0Y473D02*
X13Y473D01*
X570Y473D02*
X576Y473D01*
X594Y473D02*
X622Y473D01*
X2529Y473D02*
X2536Y473D01*
X0Y472D02*
X13Y472D01*
X570Y472D02*
X576Y472D01*
X594Y472D02*
X622Y472D01*
X2529Y472D02*
X2536Y472D01*
X0Y471D02*
X13Y471D01*
X570Y471D02*
X576Y471D01*
X595Y471D02*
X621Y471D01*
X2529Y471D02*
X2536Y471D01*
X0Y470D02*
X13Y470D01*
X570Y470D02*
X575Y470D01*
X595Y470D02*
X621Y470D01*
X2529Y470D02*
X2536Y470D01*
X0Y469D02*
X13Y469D01*
X571Y469D02*
X575Y469D01*
X597Y469D02*
X619Y469D01*
X2529Y469D02*
X2536Y469D01*
X0Y468D02*
X13Y468D01*
X600Y468D02*
X616Y468D01*
X2529Y468D02*
X2536Y468D01*
X0Y467D02*
X13Y467D01*
X2529Y467D02*
X2536Y467D01*
X0Y466D02*
X13Y466D01*
X2529Y466D02*
X2536Y466D01*
X0Y465D02*
X13Y465D01*
X2529Y465D02*
X2536Y465D01*
X0Y464D02*
X13Y464D01*
X2529Y464D02*
X2536Y464D01*
X0Y463D02*
X13Y463D01*
X2529Y463D02*
X2536Y463D01*
X0Y462D02*
X13Y462D01*
X2529Y462D02*
X2536Y462D01*
X0Y461D02*
X13Y461D01*
X2529Y461D02*
X2536Y461D01*
X0Y460D02*
X13Y460D01*
X2529Y460D02*
X2536Y460D01*
X0Y459D02*
X13Y459D01*
X2529Y459D02*
X2536Y459D01*
X0Y458D02*
X13Y458D01*
X2529Y458D02*
X2536Y458D01*
X0Y457D02*
X13Y457D01*
X2529Y457D02*
X2536Y457D01*
X0Y456D02*
X13Y456D01*
X2529Y456D02*
X2536Y456D01*
X0Y455D02*
X13Y455D01*
X2529Y455D02*
X2536Y455D01*
X0Y454D02*
X13Y454D01*
X2529Y454D02*
X2536Y454D01*
X0Y453D02*
X13Y453D01*
X2529Y453D02*
X2536Y453D01*
X0Y452D02*
X13Y452D01*
X2529Y452D02*
X2536Y452D01*
X0Y451D02*
X13Y451D01*
X2529Y451D02*
X2536Y451D01*
X0Y450D02*
X13Y450D01*
X2529Y450D02*
X2536Y450D01*
X0Y449D02*
X13Y449D01*
X2529Y449D02*
X2536Y449D01*
X0Y448D02*
X13Y448D01*
X2529Y448D02*
X2536Y448D01*
X0Y447D02*
X13Y447D01*
X2529Y447D02*
X2536Y447D01*
X0Y446D02*
X13Y446D01*
X2529Y446D02*
X2536Y446D01*
X0Y445D02*
X13Y445D01*
X2529Y445D02*
X2536Y445D01*
X0Y444D02*
X13Y444D01*
X2529Y444D02*
X2536Y444D01*
X0Y443D02*
X13Y443D01*
X2529Y443D02*
X2536Y443D01*
X0Y442D02*
X13Y442D01*
X2529Y442D02*
X2536Y442D01*
X0Y441D02*
X13Y441D01*
X2529Y441D02*
X2536Y441D01*
X0Y440D02*
X13Y440D01*
X2529Y440D02*
X2536Y440D01*
X0Y439D02*
X13Y439D01*
X2529Y439D02*
X2536Y439D01*
X0Y438D02*
X13Y438D01*
X2529Y438D02*
X2536Y438D01*
X0Y437D02*
X13Y437D01*
X2529Y437D02*
X2536Y437D01*
X0Y436D02*
X13Y436D01*
X2529Y436D02*
X2536Y436D01*
X0Y435D02*
X13Y435D01*
X2529Y435D02*
X2536Y435D01*
X0Y434D02*
X13Y434D01*
X2529Y434D02*
X2536Y434D01*
X0Y433D02*
X13Y433D01*
X2529Y433D02*
X2536Y433D01*
X0Y432D02*
X13Y432D01*
X2529Y432D02*
X2536Y432D01*
X0Y431D02*
X13Y431D01*
X2529Y431D02*
X2536Y431D01*
X0Y430D02*
X13Y430D01*
X2529Y430D02*
X2536Y430D01*
X0Y429D02*
X13Y429D01*
X2529Y429D02*
X2536Y429D01*
X0Y428D02*
X13Y428D01*
X2529Y428D02*
X2536Y428D01*
X0Y427D02*
X13Y427D01*
X2529Y427D02*
X2536Y427D01*
X0Y426D02*
X13Y426D01*
X2529Y426D02*
X2536Y426D01*
X0Y425D02*
X13Y425D01*
X2529Y425D02*
X2536Y425D01*
X0Y424D02*
X13Y424D01*
X2529Y424D02*
X2536Y424D01*
X0Y423D02*
X13Y423D01*
X2529Y423D02*
X2536Y423D01*
X0Y422D02*
X13Y422D01*
X2529Y422D02*
X2536Y422D01*
X0Y421D02*
X13Y421D01*
X2529Y421D02*
X2536Y421D01*
X0Y420D02*
X13Y420D01*
X2529Y420D02*
X2536Y420D01*
X0Y419D02*
X13Y419D01*
X2529Y419D02*
X2536Y419D01*
X0Y418D02*
X13Y418D01*
X2529Y418D02*
X2536Y418D01*
X0Y417D02*
X13Y417D01*
X2529Y417D02*
X2536Y417D01*
X0Y416D02*
X13Y416D01*
X2529Y416D02*
X2536Y416D01*
X0Y415D02*
X13Y415D01*
X2529Y415D02*
X2536Y415D01*
X0Y414D02*
X13Y414D01*
X2529Y414D02*
X2536Y414D01*
X0Y413D02*
X13Y413D01*
X2529Y413D02*
X2536Y413D01*
X0Y412D02*
X13Y412D01*
X2529Y412D02*
X2536Y412D01*
X0Y411D02*
X13Y411D01*
X2529Y411D02*
X2536Y411D01*
X0Y410D02*
X13Y410D01*
X2529Y410D02*
X2536Y410D01*
X0Y409D02*
X13Y409D01*
X2529Y409D02*
X2536Y409D01*
X0Y408D02*
X13Y408D01*
X2529Y408D02*
X2536Y408D01*
X0Y407D02*
X13Y407D01*
X2529Y407D02*
X2536Y407D01*
X0Y406D02*
X13Y406D01*
X2529Y406D02*
X2536Y406D01*
X0Y405D02*
X13Y405D01*
X2529Y405D02*
X2536Y405D01*
X0Y404D02*
X13Y404D01*
X2529Y404D02*
X2536Y404D01*
X0Y403D02*
X13Y403D01*
X2529Y403D02*
X2536Y403D01*
X0Y402D02*
X13Y402D01*
X2529Y402D02*
X2536Y402D01*
X0Y401D02*
X13Y401D01*
X2529Y401D02*
X2536Y401D01*
X0Y400D02*
X13Y400D01*
X2529Y400D02*
X2536Y400D01*
X0Y399D02*
X13Y399D01*
X2529Y399D02*
X2536Y399D01*
X0Y398D02*
X13Y398D01*
X2529Y398D02*
X2536Y398D01*
X0Y397D02*
X13Y397D01*
X2529Y397D02*
X2536Y397D01*
X0Y396D02*
X13Y396D01*
X2529Y396D02*
X2536Y396D01*
X0Y395D02*
X13Y395D01*
X2529Y395D02*
X2536Y395D01*
X0Y394D02*
X13Y394D01*
X2529Y394D02*
X2536Y394D01*
X0Y393D02*
X13Y393D01*
X2529Y393D02*
X2536Y393D01*
X0Y392D02*
X13Y392D01*
X2529Y392D02*
X2536Y392D01*
X0Y391D02*
X13Y391D01*
X2529Y391D02*
X2536Y391D01*
X0Y390D02*
X13Y390D01*
X2529Y390D02*
X2536Y390D01*
X0Y389D02*
X13Y389D01*
X2529Y389D02*
X2536Y389D01*
X0Y388D02*
X13Y388D01*
X2529Y388D02*
X2536Y388D01*
X0Y387D02*
X13Y387D01*
X2529Y387D02*
X2536Y387D01*
X0Y386D02*
X13Y386D01*
X2529Y386D02*
X2536Y386D01*
X0Y385D02*
X13Y385D01*
X2529Y385D02*
X2536Y385D01*
X0Y384D02*
X13Y384D01*
X2529Y384D02*
X2536Y384D01*
X0Y383D02*
X13Y383D01*
X2529Y383D02*
X2536Y383D01*
X0Y382D02*
X13Y382D01*
X2529Y382D02*
X2536Y382D01*
X0Y381D02*
X13Y381D01*
X2529Y381D02*
X2536Y381D01*
X0Y380D02*
X13Y380D01*
X2529Y380D02*
X2536Y380D01*
X0Y379D02*
X13Y379D01*
X2529Y379D02*
X2536Y379D01*
X0Y378D02*
X13Y378D01*
X2529Y378D02*
X2536Y378D01*
X0Y377D02*
X13Y377D01*
X2529Y377D02*
X2536Y377D01*
X0Y376D02*
X13Y376D01*
X2529Y376D02*
X2536Y376D01*
X0Y375D02*
X13Y375D01*
X2529Y375D02*
X2536Y375D01*
X0Y374D02*
X13Y374D01*
X2529Y374D02*
X2536Y374D01*
X0Y373D02*
X13Y373D01*
X2529Y373D02*
X2536Y373D01*
X0Y372D02*
X13Y372D01*
X2529Y372D02*
X2536Y372D01*
X0Y371D02*
X13Y371D01*
X2529Y371D02*
X2536Y371D01*
X0Y370D02*
X13Y370D01*
X2529Y370D02*
X2536Y370D01*
X0Y369D02*
X13Y369D01*
X2529Y369D02*
X2536Y369D01*
X0Y368D02*
X13Y368D01*
X2529Y368D02*
X2536Y368D01*
X0Y367D02*
X13Y367D01*
X2529Y367D02*
X2536Y367D01*
X0Y366D02*
X13Y366D01*
X2529Y366D02*
X2536Y366D01*
X0Y365D02*
X13Y365D01*
X2529Y365D02*
X2536Y365D01*
X0Y364D02*
X13Y364D01*
X2529Y364D02*
X2536Y364D01*
X0Y363D02*
X13Y363D01*
X2529Y363D02*
X2536Y363D01*
X0Y362D02*
X13Y362D01*
X2529Y362D02*
X2536Y362D01*
X0Y361D02*
X13Y361D01*
X2529Y361D02*
X2536Y361D01*
X0Y360D02*
X13Y360D01*
X2529Y360D02*
X2536Y360D01*
X0Y359D02*
X13Y359D01*
X2529Y359D02*
X2536Y359D01*
X0Y358D02*
X13Y358D01*
X2529Y358D02*
X2536Y358D01*
X0Y357D02*
X13Y357D01*
X2529Y357D02*
X2536Y357D01*
X0Y356D02*
X13Y356D01*
X2529Y356D02*
X2536Y356D01*
X0Y355D02*
X13Y355D01*
X2529Y355D02*
X2536Y355D01*
X0Y354D02*
X13Y354D01*
X2529Y354D02*
X2536Y354D01*
X0Y353D02*
X13Y353D01*
X2529Y353D02*
X2536Y353D01*
X0Y352D02*
X13Y352D01*
X2529Y352D02*
X2536Y352D01*
X0Y351D02*
X13Y351D01*
X2529Y351D02*
X2536Y351D01*
X0Y350D02*
X13Y350D01*
X2529Y350D02*
X2536Y350D01*
X0Y349D02*
X13Y349D01*
X2529Y349D02*
X2536Y349D01*
X0Y348D02*
X13Y348D01*
X2529Y348D02*
X2536Y348D01*
X0Y347D02*
X13Y347D01*
X2529Y347D02*
X2536Y347D01*
X0Y346D02*
X13Y346D01*
X2529Y346D02*
X2536Y346D01*
X0Y345D02*
X13Y345D01*
X2529Y345D02*
X2536Y345D01*
X0Y344D02*
X13Y344D01*
X2529Y344D02*
X2536Y344D01*
X0Y343D02*
X13Y343D01*
X2529Y343D02*
X2536Y343D01*
X0Y342D02*
X13Y342D01*
X2529Y342D02*
X2536Y342D01*
X0Y341D02*
X13Y341D01*
X2529Y341D02*
X2536Y341D01*
X0Y340D02*
X13Y340D01*
X2529Y340D02*
X2536Y340D01*
X0Y339D02*
X13Y339D01*
X2529Y339D02*
X2536Y339D01*
X0Y338D02*
X13Y338D01*
X2529Y338D02*
X2536Y338D01*
X0Y337D02*
X13Y337D01*
X2529Y337D02*
X2536Y337D01*
X0Y336D02*
X13Y336D01*
X2529Y336D02*
X2536Y336D01*
X0Y335D02*
X13Y335D01*
X2529Y335D02*
X2536Y335D01*
X0Y334D02*
X13Y334D01*
X2529Y334D02*
X2536Y334D01*
X0Y333D02*
X13Y333D01*
X2529Y333D02*
X2536Y333D01*
X0Y332D02*
X13Y332D01*
X2529Y332D02*
X2536Y332D01*
X0Y331D02*
X13Y331D01*
X2529Y331D02*
X2536Y331D01*
X0Y330D02*
X13Y330D01*
X2529Y330D02*
X2536Y330D01*
X0Y329D02*
X13Y329D01*
X2529Y329D02*
X2536Y329D01*
X0Y328D02*
X13Y328D01*
X2529Y328D02*
X2536Y328D01*
X0Y327D02*
X13Y327D01*
X2529Y327D02*
X2536Y327D01*
X0Y326D02*
X13Y326D01*
X2529Y326D02*
X2536Y326D01*
X0Y325D02*
X13Y325D01*
X2529Y325D02*
X2536Y325D01*
X0Y324D02*
X13Y324D01*
X2529Y324D02*
X2536Y324D01*
X0Y323D02*
X13Y323D01*
X2529Y323D02*
X2536Y323D01*
X0Y322D02*
X13Y322D01*
X2529Y322D02*
X2536Y322D01*
X0Y321D02*
X13Y321D01*
X2529Y321D02*
X2536Y321D01*
X0Y320D02*
X13Y320D01*
X2529Y320D02*
X2536Y320D01*
X0Y319D02*
X13Y319D01*
X2529Y319D02*
X2536Y319D01*
X0Y318D02*
X13Y318D01*
X2529Y318D02*
X2536Y318D01*
X0Y317D02*
X13Y317D01*
X2529Y317D02*
X2536Y317D01*
X0Y316D02*
X13Y316D01*
X2529Y316D02*
X2536Y316D01*
X0Y315D02*
X13Y315D01*
X2529Y315D02*
X2536Y315D01*
X0Y314D02*
X13Y314D01*
X2529Y314D02*
X2536Y314D01*
X0Y313D02*
X13Y313D01*
X2529Y313D02*
X2536Y313D01*
X0Y312D02*
X13Y312D01*
X2529Y312D02*
X2536Y312D01*
X0Y311D02*
X13Y311D01*
X2529Y311D02*
X2536Y311D01*
X0Y310D02*
X13Y310D01*
X2529Y310D02*
X2536Y310D01*
X0Y309D02*
X13Y309D01*
X2529Y309D02*
X2536Y309D01*
X0Y308D02*
X13Y308D01*
X2529Y308D02*
X2536Y308D01*
X0Y307D02*
X13Y307D01*
X2529Y307D02*
X2536Y307D01*
X0Y306D02*
X13Y306D01*
X2529Y306D02*
X2536Y306D01*
X0Y305D02*
X13Y305D01*
X2529Y305D02*
X2536Y305D01*
X0Y304D02*
X13Y304D01*
X2529Y304D02*
X2536Y304D01*
X0Y303D02*
X13Y303D01*
X2529Y303D02*
X2536Y303D01*
X0Y302D02*
X13Y302D01*
X2529Y302D02*
X2536Y302D01*
X0Y301D02*
X13Y301D01*
X2529Y301D02*
X2536Y301D01*
X0Y300D02*
X13Y300D01*
X2529Y300D02*
X2536Y300D01*
X0Y299D02*
X13Y299D01*
X2529Y299D02*
X2536Y299D01*
X0Y298D02*
X13Y298D01*
X2529Y298D02*
X2536Y298D01*
X0Y297D02*
X13Y297D01*
X2529Y297D02*
X2536Y297D01*
X0Y296D02*
X13Y296D01*
X2529Y296D02*
X2536Y296D01*
X0Y295D02*
X13Y295D01*
X2529Y295D02*
X2536Y295D01*
X0Y294D02*
X13Y294D01*
X2529Y294D02*
X2536Y294D01*
X0Y293D02*
X13Y293D01*
X2529Y293D02*
X2536Y293D01*
X0Y292D02*
X13Y292D01*
X2529Y292D02*
X2536Y292D01*
X0Y291D02*
X13Y291D01*
X2529Y291D02*
X2536Y291D01*
X0Y290D02*
X13Y290D01*
X2529Y290D02*
X2536Y290D01*
X0Y289D02*
X13Y289D01*
X2529Y289D02*
X2536Y289D01*
X0Y288D02*
X13Y288D01*
X2529Y288D02*
X2536Y288D01*
X0Y287D02*
X13Y287D01*
X2529Y287D02*
X2536Y287D01*
X0Y286D02*
X13Y286D01*
X2529Y286D02*
X2536Y286D01*
X0Y285D02*
X13Y285D01*
X2529Y285D02*
X2536Y285D01*
X0Y284D02*
X13Y284D01*
X2529Y284D02*
X2536Y284D01*
X0Y283D02*
X13Y283D01*
X2529Y283D02*
X2536Y283D01*
X0Y282D02*
X13Y282D01*
X2529Y282D02*
X2536Y282D01*
X0Y281D02*
X13Y281D01*
X2529Y281D02*
X2536Y281D01*
X0Y280D02*
X13Y280D01*
X2529Y280D02*
X2536Y280D01*
X0Y279D02*
X13Y279D01*
X2529Y279D02*
X2536Y279D01*
X0Y278D02*
X13Y278D01*
X2529Y278D02*
X2536Y278D01*
X0Y277D02*
X13Y277D01*
X2529Y277D02*
X2536Y277D01*
X0Y276D02*
X13Y276D01*
X2529Y276D02*
X2536Y276D01*
X0Y275D02*
X13Y275D01*
X2529Y275D02*
X2536Y275D01*
X0Y274D02*
X13Y274D01*
X2529Y274D02*
X2536Y274D01*
X0Y273D02*
X13Y273D01*
X2529Y273D02*
X2536Y273D01*
X0Y272D02*
X13Y272D01*
X2529Y272D02*
X2536Y272D01*
X0Y271D02*
X13Y271D01*
X2529Y271D02*
X2536Y271D01*
X0Y270D02*
X13Y270D01*
X2529Y270D02*
X2536Y270D01*
X0Y269D02*
X13Y269D01*
X2529Y269D02*
X2536Y269D01*
X0Y268D02*
X13Y268D01*
X2529Y268D02*
X2536Y268D01*
X0Y267D02*
X13Y267D01*
X2529Y267D02*
X2536Y267D01*
X0Y266D02*
X13Y266D01*
X2529Y266D02*
X2536Y266D01*
X0Y265D02*
X13Y265D01*
X2529Y265D02*
X2536Y265D01*
X0Y264D02*
X13Y264D01*
X2529Y264D02*
X2536Y264D01*
X0Y263D02*
X13Y263D01*
X2529Y263D02*
X2536Y263D01*
X0Y262D02*
X13Y262D01*
X2529Y262D02*
X2536Y262D01*
X0Y261D02*
X13Y261D01*
X2529Y261D02*
X2536Y261D01*
X0Y260D02*
X13Y260D01*
X2529Y260D02*
X2536Y260D01*
X0Y259D02*
X13Y259D01*
X2529Y259D02*
X2536Y259D01*
X0Y258D02*
X13Y258D01*
X2529Y258D02*
X2536Y258D01*
X0Y257D02*
X13Y257D01*
X2529Y257D02*
X2536Y257D01*
X0Y256D02*
X13Y256D01*
X2529Y256D02*
X2536Y256D01*
X0Y255D02*
X13Y255D01*
X2529Y255D02*
X2536Y255D01*
X0Y254D02*
X13Y254D01*
X2529Y254D02*
X2536Y254D01*
X0Y253D02*
X13Y253D01*
X2529Y253D02*
X2536Y253D01*
X0Y252D02*
X13Y252D01*
X2529Y252D02*
X2536Y252D01*
X0Y251D02*
X13Y251D01*
X2529Y251D02*
X2536Y251D01*
X0Y250D02*
X13Y250D01*
X2529Y250D02*
X2536Y250D01*
X0Y249D02*
X13Y249D01*
X2529Y249D02*
X2536Y249D01*
X0Y248D02*
X13Y248D01*
X2529Y248D02*
X2536Y248D01*
X0Y247D02*
X13Y247D01*
X2529Y247D02*
X2536Y247D01*
X0Y246D02*
X13Y246D01*
X2529Y246D02*
X2536Y246D01*
X0Y245D02*
X13Y245D01*
X2529Y245D02*
X2536Y245D01*
X0Y244D02*
X13Y244D01*
X2529Y244D02*
X2536Y244D01*
X0Y243D02*
X13Y243D01*
X2529Y243D02*
X2536Y243D01*
X0Y242D02*
X13Y242D01*
X2529Y242D02*
X2536Y242D01*
X0Y241D02*
X13Y241D01*
X2529Y241D02*
X2536Y241D01*
X0Y240D02*
X13Y240D01*
X2529Y240D02*
X2536Y240D01*
X0Y239D02*
X13Y239D01*
X2529Y239D02*
X2536Y239D01*
X0Y238D02*
X13Y238D01*
X2529Y238D02*
X2536Y238D01*
X0Y237D02*
X13Y237D01*
X2529Y237D02*
X2536Y237D01*
X0Y236D02*
X13Y236D01*
X2529Y236D02*
X2536Y236D01*
X0Y235D02*
X13Y235D01*
X2529Y235D02*
X2536Y235D01*
X0Y234D02*
X13Y234D01*
X2529Y234D02*
X2536Y234D01*
X0Y233D02*
X13Y233D01*
X2529Y233D02*
X2536Y233D01*
X0Y232D02*
X13Y232D01*
X2529Y232D02*
X2536Y232D01*
X0Y231D02*
X13Y231D01*
X2529Y231D02*
X2536Y231D01*
X0Y230D02*
X13Y230D01*
X2529Y230D02*
X2536Y230D01*
X0Y229D02*
X13Y229D01*
X2529Y229D02*
X2536Y229D01*
X0Y228D02*
X13Y228D01*
X2529Y228D02*
X2536Y228D01*
X0Y227D02*
X13Y227D01*
X2529Y227D02*
X2536Y227D01*
X0Y226D02*
X13Y226D01*
X2529Y226D02*
X2536Y226D01*
X0Y225D02*
X13Y225D01*
X2529Y225D02*
X2536Y225D01*
X0Y224D02*
X13Y224D01*
X2529Y224D02*
X2536Y224D01*
X0Y223D02*
X13Y223D01*
X2529Y223D02*
X2536Y223D01*
X0Y222D02*
X13Y222D01*
X2529Y222D02*
X2536Y222D01*
X0Y221D02*
X13Y221D01*
X2529Y221D02*
X2536Y221D01*
X0Y220D02*
X13Y220D01*
X2529Y220D02*
X2536Y220D01*
X0Y219D02*
X13Y219D01*
X2529Y219D02*
X2536Y219D01*
X0Y218D02*
X13Y218D01*
X2529Y218D02*
X2536Y218D01*
X0Y217D02*
X13Y217D01*
X2529Y217D02*
X2536Y217D01*
X0Y216D02*
X13Y216D01*
X2529Y216D02*
X2536Y216D01*
X0Y215D02*
X13Y215D01*
X2529Y215D02*
X2536Y215D01*
X0Y214D02*
X13Y214D01*
X2529Y214D02*
X2536Y214D01*
X0Y213D02*
X13Y213D01*
X2529Y213D02*
X2536Y213D01*
X0Y212D02*
X13Y212D01*
X2529Y212D02*
X2536Y212D01*
X0Y211D02*
X13Y211D01*
X2529Y211D02*
X2536Y211D01*
X0Y210D02*
X13Y210D01*
X2529Y210D02*
X2536Y210D01*
X0Y209D02*
X13Y209D01*
X2529Y209D02*
X2536Y209D01*
X0Y208D02*
X13Y208D01*
X2529Y208D02*
X2536Y208D01*
X0Y207D02*
X13Y207D01*
X2529Y207D02*
X2536Y207D01*
X0Y206D02*
X13Y206D01*
X2529Y206D02*
X2536Y206D01*
X0Y205D02*
X13Y205D01*
X2529Y205D02*
X2536Y205D01*
X0Y204D02*
X13Y204D01*
X2529Y204D02*
X2536Y204D01*
X0Y203D02*
X13Y203D01*
X2529Y203D02*
X2536Y203D01*
X0Y202D02*
X13Y202D01*
X2529Y202D02*
X2536Y202D01*
X0Y201D02*
X13Y201D01*
X2529Y201D02*
X2536Y201D01*
X0Y200D02*
X13Y200D01*
X2529Y200D02*
X2536Y200D01*
X0Y199D02*
X13Y199D01*
X2529Y199D02*
X2536Y199D01*
X0Y198D02*
X13Y198D01*
X2529Y198D02*
X2536Y198D01*
X0Y197D02*
X13Y197D01*
X2529Y197D02*
X2536Y197D01*
X0Y196D02*
X13Y196D01*
X2529Y196D02*
X2536Y196D01*
X0Y195D02*
X13Y195D01*
X2529Y195D02*
X2536Y195D01*
X0Y194D02*
X13Y194D01*
X2529Y194D02*
X2536Y194D01*
X0Y193D02*
X13Y193D01*
X2529Y193D02*
X2536Y193D01*
X0Y192D02*
X13Y192D01*
X2529Y192D02*
X2536Y192D01*
X0Y191D02*
X13Y191D01*
X2529Y191D02*
X2536Y191D01*
X0Y190D02*
X13Y190D01*
X2529Y190D02*
X2536Y190D01*
X0Y189D02*
X13Y189D01*
X2529Y189D02*
X2536Y189D01*
X0Y188D02*
X13Y188D01*
X2529Y188D02*
X2536Y188D01*
X0Y187D02*
X13Y187D01*
X2529Y187D02*
X2536Y187D01*
X0Y186D02*
X13Y186D01*
X2529Y186D02*
X2536Y186D01*
X0Y185D02*
X13Y185D01*
X2529Y185D02*
X2536Y185D01*
X0Y184D02*
X13Y184D01*
X2529Y184D02*
X2536Y184D01*
X0Y183D02*
X13Y183D01*
X2529Y183D02*
X2536Y183D01*
X0Y182D02*
X13Y182D01*
X137Y182D02*
X154Y182D01*
X2420Y182D02*
X2437Y182D01*
X2529Y182D02*
X2536Y182D01*
X0Y181D02*
X13Y181D01*
X132Y181D02*
X159Y181D01*
X2415Y181D02*
X2442Y181D01*
X2529Y181D02*
X2536Y181D01*
X0Y180D02*
X13Y180D01*
X129Y180D02*
X163Y180D01*
X2412Y180D02*
X2445Y180D01*
X2529Y180D02*
X2536Y180D01*
X0Y179D02*
X13Y179D01*
X126Y179D02*
X165Y179D01*
X2409Y179D02*
X2448Y179D01*
X2529Y179D02*
X2536Y179D01*
X0Y178D02*
X13Y178D01*
X123Y178D02*
X168Y178D01*
X2406Y178D02*
X2451Y178D01*
X2529Y178D02*
X2536Y178D01*
X0Y177D02*
X13Y177D01*
X121Y177D02*
X170Y177D01*
X2404Y177D02*
X2453Y177D01*
X2529Y177D02*
X2536Y177D01*
X0Y176D02*
X13Y176D01*
X119Y176D02*
X172Y176D01*
X2402Y176D02*
X2455Y176D01*
X2529Y176D02*
X2536Y176D01*
X0Y175D02*
X13Y175D01*
X117Y175D02*
X174Y175D01*
X2400Y175D02*
X2457Y175D01*
X2529Y175D02*
X2536Y175D01*
X0Y174D02*
X13Y174D01*
X116Y174D02*
X176Y174D01*
X2399Y174D02*
X2458Y174D01*
X2529Y174D02*
X2536Y174D01*
X0Y173D02*
X13Y173D01*
X114Y173D02*
X177Y173D01*
X2397Y173D02*
X2460Y173D01*
X2529Y173D02*
X2536Y173D01*
X0Y172D02*
X13Y172D01*
X113Y172D02*
X139Y172D01*
X152Y172D02*
X179Y172D01*
X2396Y172D02*
X2422Y172D01*
X2435Y172D02*
X2461Y172D01*
X2529Y172D02*
X2536Y172D01*
X0Y171D02*
X13Y171D01*
X111Y171D02*
X133Y171D01*
X158Y171D02*
X180Y171D01*
X2394Y171D02*
X2416Y171D01*
X2441Y171D02*
X2463Y171D01*
X2529Y171D02*
X2536Y171D01*
X0Y170D02*
X13Y170D01*
X110Y170D02*
X130Y170D01*
X162Y170D02*
X181Y170D01*
X2393Y170D02*
X2413Y170D01*
X2444Y170D02*
X2464Y170D01*
X2529Y170D02*
X2536Y170D01*
X0Y169D02*
X13Y169D01*
X109Y169D02*
X127Y169D01*
X164Y169D02*
X183Y169D01*
X2392Y169D02*
X2410Y169D01*
X2447Y169D02*
X2465Y169D01*
X2529Y169D02*
X2536Y169D01*
X0Y168D02*
X13Y168D01*
X108Y168D02*
X124Y168D01*
X167Y168D02*
X184Y168D01*
X2390Y168D02*
X2407Y168D01*
X2450Y168D02*
X2467Y168D01*
X2529Y168D02*
X2536Y168D01*
X0Y167D02*
X13Y167D01*
X106Y167D02*
X122Y167D01*
X169Y167D02*
X185Y167D01*
X2389Y167D02*
X2405Y167D01*
X2452Y167D02*
X2468Y167D01*
X2529Y167D02*
X2536Y167D01*
X0Y166D02*
X13Y166D01*
X105Y166D02*
X120Y166D01*
X171Y166D02*
X186Y166D01*
X2388Y166D02*
X2403Y166D01*
X2454Y166D02*
X2469Y166D01*
X2529Y166D02*
X2536Y166D01*
X0Y165D02*
X13Y165D01*
X104Y165D02*
X119Y165D01*
X172Y165D02*
X187Y165D01*
X2387Y165D02*
X2402Y165D01*
X2455Y165D02*
X2470Y165D01*
X2529Y165D02*
X2536Y165D01*
X0Y164D02*
X13Y164D01*
X103Y164D02*
X117Y164D01*
X174Y164D02*
X188Y164D01*
X2386Y164D02*
X2400Y164D01*
X2457Y164D02*
X2471Y164D01*
X2529Y164D02*
X2536Y164D01*
X0Y163D02*
X13Y163D01*
X102Y163D02*
X116Y163D01*
X175Y163D02*
X189Y163D01*
X2385Y163D02*
X2399Y163D01*
X2458Y163D02*
X2472Y163D01*
X2529Y163D02*
X2536Y163D01*
X0Y162D02*
X13Y162D01*
X102Y162D02*
X114Y162D01*
X177Y162D02*
X190Y162D01*
X2384Y162D02*
X2397Y162D01*
X2460Y162D02*
X2473Y162D01*
X2529Y162D02*
X2536Y162D01*
X0Y161D02*
X13Y161D01*
X101Y161D02*
X113Y161D01*
X178Y161D02*
X191Y161D01*
X2384Y161D02*
X2396Y161D01*
X2461Y161D02*
X2473Y161D01*
X2529Y161D02*
X2536Y161D01*
X0Y160D02*
X13Y160D01*
X100Y160D02*
X112Y160D01*
X179Y160D02*
X191Y160D01*
X2383Y160D02*
X2395Y160D01*
X2462Y160D02*
X2474Y160D01*
X2529Y160D02*
X2536Y160D01*
X0Y159D02*
X13Y159D01*
X99Y159D02*
X111Y159D01*
X180Y159D02*
X192Y159D01*
X2382Y159D02*
X2394Y159D01*
X2463Y159D02*
X2475Y159D01*
X2529Y159D02*
X2536Y159D01*
X0Y158D02*
X13Y158D01*
X98Y158D02*
X110Y158D01*
X181Y158D02*
X193Y158D01*
X2381Y158D02*
X2393Y158D01*
X2464Y158D02*
X2476Y158D01*
X2529Y158D02*
X2536Y158D01*
X0Y157D02*
X13Y157D01*
X98Y157D02*
X109Y157D01*
X182Y157D02*
X194Y157D01*
X2380Y157D02*
X2392Y157D01*
X2465Y157D02*
X2477Y157D01*
X2529Y157D02*
X2536Y157D01*
X0Y156D02*
X13Y156D01*
X97Y156D02*
X108Y156D01*
X183Y156D02*
X194Y156D01*
X2380Y156D02*
X2391Y156D01*
X2466Y156D02*
X2477Y156D01*
X2529Y156D02*
X2536Y156D01*
X0Y155D02*
X13Y155D01*
X96Y155D02*
X107Y155D01*
X184Y155D02*
X195Y155D01*
X2379Y155D02*
X2390Y155D01*
X2467Y155D02*
X2478Y155D01*
X2529Y155D02*
X2536Y155D01*
X0Y154D02*
X13Y154D01*
X96Y154D02*
X106Y154D01*
X185Y154D02*
X196Y154D01*
X2379Y154D02*
X2389Y154D01*
X2468Y154D02*
X2478Y154D01*
X2529Y154D02*
X2536Y154D01*
X0Y153D02*
X13Y153D01*
X95Y153D02*
X106Y153D01*
X186Y153D02*
X196Y153D01*
X2378Y153D02*
X2389Y153D01*
X2468Y153D02*
X2479Y153D01*
X2529Y153D02*
X2536Y153D01*
X0Y152D02*
X13Y152D01*
X94Y152D02*
X105Y152D01*
X186Y152D02*
X197Y152D01*
X2377Y152D02*
X2388Y152D01*
X2469Y152D02*
X2480Y152D01*
X2529Y152D02*
X2536Y152D01*
X0Y151D02*
X13Y151D01*
X94Y151D02*
X104Y151D01*
X187Y151D02*
X197Y151D01*
X2377Y151D02*
X2387Y151D01*
X2470Y151D02*
X2480Y151D01*
X2529Y151D02*
X2536Y151D01*
X0Y150D02*
X13Y150D01*
X93Y150D02*
X104Y150D01*
X188Y150D02*
X198Y150D01*
X2376Y150D02*
X2387Y150D01*
X2470Y150D02*
X2481Y150D01*
X2529Y150D02*
X2536Y150D01*
X0Y149D02*
X13Y149D01*
X93Y149D02*
X103Y149D01*
X188Y149D02*
X198Y149D01*
X2376Y149D02*
X2386Y149D01*
X2471Y149D02*
X2481Y149D01*
X2529Y149D02*
X2536Y149D01*
X0Y148D02*
X13Y148D01*
X92Y148D02*
X102Y148D01*
X189Y148D02*
X199Y148D01*
X2375Y148D02*
X2385Y148D01*
X2472Y148D02*
X2482Y148D01*
X2529Y148D02*
X2536Y148D01*
X0Y147D02*
X13Y147D01*
X92Y147D02*
X102Y147D01*
X189Y147D02*
X199Y147D01*
X2375Y147D02*
X2385Y147D01*
X2472Y147D02*
X2482Y147D01*
X2529Y147D02*
X2536Y147D01*
X0Y146D02*
X13Y146D01*
X91Y146D02*
X101Y146D01*
X190Y146D02*
X200Y146D01*
X2374Y146D02*
X2384Y146D01*
X2473Y146D02*
X2483Y146D01*
X2529Y146D02*
X2536Y146D01*
X0Y145D02*
X13Y145D01*
X91Y145D02*
X101Y145D01*
X190Y145D02*
X200Y145D01*
X2374Y145D02*
X2384Y145D01*
X2473Y145D02*
X2483Y145D01*
X2529Y145D02*
X2536Y145D01*
X0Y144D02*
X13Y144D01*
X91Y144D02*
X100Y144D01*
X191Y144D02*
X201Y144D01*
X2374Y144D02*
X2383Y144D01*
X2474Y144D02*
X2483Y144D01*
X2529Y144D02*
X2536Y144D01*
X0Y143D02*
X13Y143D01*
X90Y143D02*
X100Y143D01*
X191Y143D02*
X201Y143D01*
X2373Y143D02*
X2383Y143D01*
X2474Y143D02*
X2484Y143D01*
X2529Y143D02*
X2536Y143D01*
X0Y142D02*
X13Y142D01*
X90Y142D02*
X100Y142D01*
X192Y142D02*
X201Y142D01*
X2373Y142D02*
X2383Y142D01*
X2474Y142D02*
X2484Y142D01*
X2529Y142D02*
X2536Y142D01*
X0Y141D02*
X13Y141D01*
X90Y141D02*
X99Y141D01*
X192Y141D02*
X202Y141D01*
X2372Y141D02*
X2382Y141D01*
X2475Y141D02*
X2485Y141D01*
X2529Y141D02*
X2536Y141D01*
X0Y140D02*
X13Y140D01*
X89Y140D02*
X99Y140D01*
X192Y140D02*
X202Y140D01*
X2372Y140D02*
X2382Y140D01*
X2475Y140D02*
X2485Y140D01*
X2529Y140D02*
X2536Y140D01*
X0Y139D02*
X13Y139D01*
X89Y139D02*
X99Y139D01*
X193Y139D02*
X202Y139D01*
X2372Y139D02*
X2381Y139D01*
X2476Y139D02*
X2485Y139D01*
X2529Y139D02*
X2536Y139D01*
X0Y138D02*
X13Y138D01*
X89Y138D02*
X98Y138D01*
X193Y138D02*
X203Y138D01*
X2372Y138D02*
X2381Y138D01*
X2476Y138D02*
X2485Y138D01*
X2529Y138D02*
X2536Y138D01*
X0Y137D02*
X13Y137D01*
X88Y137D02*
X98Y137D01*
X193Y137D02*
X203Y137D01*
X2371Y137D02*
X2381Y137D01*
X2476Y137D02*
X2486Y137D01*
X2529Y137D02*
X2536Y137D01*
X0Y136D02*
X13Y136D01*
X88Y136D02*
X98Y136D01*
X194Y136D02*
X203Y136D01*
X2371Y136D02*
X2381Y136D01*
X2476Y136D02*
X2486Y136D01*
X2529Y136D02*
X2536Y136D01*
X0Y135D02*
X13Y135D01*
X88Y135D02*
X98Y135D01*
X194Y135D02*
X203Y135D01*
X2371Y135D02*
X2380Y135D01*
X2477Y135D02*
X2486Y135D01*
X2529Y135D02*
X2536Y135D01*
X0Y134D02*
X13Y134D01*
X88Y134D02*
X97Y134D01*
X194Y134D02*
X203Y134D01*
X2371Y134D02*
X2380Y134D01*
X2477Y134D02*
X2486Y134D01*
X2529Y134D02*
X2536Y134D01*
X0Y133D02*
X13Y133D01*
X88Y133D02*
X97Y133D01*
X194Y133D02*
X204Y133D01*
X2370Y133D02*
X2380Y133D01*
X2477Y133D02*
X2486Y133D01*
X2529Y133D02*
X2536Y133D01*
X0Y132D02*
X13Y132D01*
X87Y132D02*
X97Y132D01*
X194Y132D02*
X204Y132D01*
X2370Y132D02*
X2380Y132D01*
X2477Y132D02*
X2487Y132D01*
X2529Y132D02*
X2536Y132D01*
X0Y131D02*
X13Y131D01*
X87Y131D02*
X97Y131D01*
X194Y131D02*
X204Y131D01*
X2370Y131D02*
X2380Y131D01*
X2477Y131D02*
X2487Y131D01*
X2529Y131D02*
X2536Y131D01*
X0Y130D02*
X13Y130D01*
X87Y130D02*
X97Y130D01*
X195Y130D02*
X204Y130D01*
X2370Y130D02*
X2379Y130D01*
X2477Y130D02*
X2487Y130D01*
X2529Y130D02*
X2536Y130D01*
X0Y129D02*
X13Y129D01*
X87Y129D02*
X97Y129D01*
X195Y129D02*
X204Y129D01*
X2370Y129D02*
X2379Y129D01*
X2478Y129D02*
X2487Y129D01*
X2529Y129D02*
X2536Y129D01*
X0Y128D02*
X13Y128D01*
X87Y128D02*
X96Y128D01*
X195Y128D02*
X204Y128D01*
X2370Y128D02*
X2379Y128D01*
X2478Y128D02*
X2487Y128D01*
X2529Y128D02*
X2536Y128D01*
X0Y127D02*
X13Y127D01*
X87Y127D02*
X96Y127D01*
X195Y127D02*
X204Y127D01*
X2370Y127D02*
X2379Y127D01*
X2478Y127D02*
X2487Y127D01*
X2529Y127D02*
X2536Y127D01*
X0Y126D02*
X13Y126D01*
X87Y126D02*
X96Y126D01*
X195Y126D02*
X204Y126D01*
X2370Y126D02*
X2379Y126D01*
X2478Y126D02*
X2487Y126D01*
X2529Y126D02*
X2536Y126D01*
X0Y125D02*
X13Y125D01*
X87Y125D02*
X96Y125D01*
X195Y125D02*
X204Y125D01*
X2370Y125D02*
X2379Y125D01*
X2478Y125D02*
X2487Y125D01*
X2529Y125D02*
X2536Y125D01*
X0Y124D02*
X13Y124D01*
X87Y124D02*
X96Y124D01*
X195Y124D02*
X204Y124D01*
X2370Y124D02*
X2379Y124D01*
X2478Y124D02*
X2487Y124D01*
X2529Y124D02*
X2536Y124D01*
X0Y123D02*
X13Y123D01*
X87Y123D02*
X96Y123D01*
X195Y123D02*
X204Y123D01*
X2370Y123D02*
X2379Y123D01*
X2478Y123D02*
X2487Y123D01*
X2529Y123D02*
X2536Y123D01*
X0Y122D02*
X13Y122D01*
X87Y122D02*
X96Y122D01*
X195Y122D02*
X204Y122D01*
X2370Y122D02*
X2379Y122D01*
X2478Y122D02*
X2487Y122D01*
X2529Y122D02*
X2536Y122D01*
X0Y121D02*
X13Y121D01*
X87Y121D02*
X96Y121D01*
X195Y121D02*
X204Y121D01*
X2370Y121D02*
X2379Y121D01*
X2478Y121D02*
X2487Y121D01*
X2529Y121D02*
X2536Y121D01*
X0Y120D02*
X13Y120D01*
X87Y120D02*
X96Y120D01*
X195Y120D02*
X204Y120D01*
X2370Y120D02*
X2379Y120D01*
X2478Y120D02*
X2487Y120D01*
X2529Y120D02*
X2536Y120D01*
X0Y119D02*
X13Y119D01*
X87Y119D02*
X96Y119D01*
X195Y119D02*
X204Y119D01*
X2370Y119D02*
X2379Y119D01*
X2478Y119D02*
X2487Y119D01*
X2529Y119D02*
X2536Y119D01*
X0Y118D02*
X13Y118D01*
X87Y118D02*
X97Y118D01*
X195Y118D02*
X204Y118D01*
X2370Y118D02*
X2379Y118D01*
X2478Y118D02*
X2487Y118D01*
X2529Y118D02*
X2536Y118D01*
X0Y117D02*
X13Y117D01*
X87Y117D02*
X97Y117D01*
X195Y117D02*
X204Y117D01*
X2370Y117D02*
X2379Y117D01*
X2477Y117D02*
X2487Y117D01*
X2529Y117D02*
X2536Y117D01*
X0Y116D02*
X13Y116D01*
X87Y116D02*
X97Y116D01*
X195Y116D02*
X204Y116D01*
X2370Y116D02*
X2380Y116D01*
X2477Y116D02*
X2487Y116D01*
X2529Y116D02*
X2536Y116D01*
X0Y115D02*
X13Y115D01*
X87Y115D02*
X97Y115D01*
X194Y115D02*
X204Y115D01*
X2370Y115D02*
X2380Y115D01*
X2477Y115D02*
X2487Y115D01*
X2529Y115D02*
X2536Y115D01*
X0Y114D02*
X13Y114D01*
X88Y114D02*
X97Y114D01*
X194Y114D02*
X204Y114D01*
X2370Y114D02*
X2380Y114D01*
X2477Y114D02*
X2486Y114D01*
X2529Y114D02*
X2536Y114D01*
X0Y113D02*
X13Y113D01*
X88Y113D02*
X97Y113D01*
X194Y113D02*
X203Y113D01*
X2371Y113D02*
X2380Y113D01*
X2477Y113D02*
X2486Y113D01*
X2529Y113D02*
X2536Y113D01*
X0Y112D02*
X13Y112D01*
X88Y112D02*
X97Y112D01*
X194Y112D02*
X203Y112D01*
X2371Y112D02*
X2380Y112D01*
X2477Y112D02*
X2486Y112D01*
X2529Y112D02*
X2536Y112D01*
X0Y111D02*
X13Y111D01*
X88Y111D02*
X98Y111D01*
X194Y111D02*
X203Y111D01*
X2371Y111D02*
X2381Y111D01*
X2476Y111D02*
X2486Y111D01*
X2529Y111D02*
X2536Y111D01*
X0Y110D02*
X13Y110D01*
X88Y110D02*
X98Y110D01*
X193Y110D02*
X203Y110D01*
X2371Y110D02*
X2381Y110D01*
X2476Y110D02*
X2486Y110D01*
X2529Y110D02*
X2536Y110D01*
X0Y109D02*
X13Y109D01*
X89Y109D02*
X98Y109D01*
X193Y109D02*
X203Y109D01*
X2372Y109D02*
X2381Y109D01*
X2476Y109D02*
X2485Y109D01*
X2529Y109D02*
X2536Y109D01*
X0Y108D02*
X13Y108D01*
X89Y108D02*
X99Y108D01*
X193Y108D02*
X202Y108D01*
X2372Y108D02*
X2381Y108D01*
X2476Y108D02*
X2485Y108D01*
X2529Y108D02*
X2536Y108D01*
X0Y107D02*
X13Y107D01*
X89Y107D02*
X99Y107D01*
X192Y107D02*
X202Y107D01*
X2372Y107D02*
X2382Y107D01*
X2475Y107D02*
X2485Y107D01*
X2529Y107D02*
X2536Y107D01*
X0Y106D02*
X13Y106D01*
X90Y106D02*
X99Y106D01*
X192Y106D02*
X202Y106D01*
X2372Y106D02*
X2382Y106D01*
X2475Y106D02*
X2485Y106D01*
X2529Y106D02*
X2536Y106D01*
X0Y105D02*
X13Y105D01*
X90Y105D02*
X100Y105D01*
X192Y105D02*
X201Y105D01*
X2373Y105D02*
X2382Y105D01*
X2474Y105D02*
X2484Y105D01*
X2529Y105D02*
X2536Y105D01*
X0Y104D02*
X13Y104D01*
X90Y104D02*
X100Y104D01*
X191Y104D02*
X201Y104D01*
X2373Y104D02*
X2383Y104D01*
X2474Y104D02*
X2484Y104D01*
X2529Y104D02*
X2536Y104D01*
X0Y103D02*
X13Y103D01*
X91Y103D02*
X100Y103D01*
X191Y103D02*
X201Y103D01*
X2373Y103D02*
X2383Y103D01*
X2474Y103D02*
X2483Y103D01*
X2529Y103D02*
X2536Y103D01*
X0Y102D02*
X13Y102D01*
X91Y102D02*
X101Y102D01*
X190Y102D02*
X200Y102D01*
X2374Y102D02*
X2384Y102D01*
X2473Y102D02*
X2483Y102D01*
X2529Y102D02*
X2536Y102D01*
X0Y101D02*
X13Y101D01*
X91Y101D02*
X101Y101D01*
X190Y101D02*
X200Y101D01*
X2374Y101D02*
X2384Y101D01*
X2473Y101D02*
X2483Y101D01*
X2529Y101D02*
X2536Y101D01*
X0Y100D02*
X13Y100D01*
X92Y100D02*
X102Y100D01*
X189Y100D02*
X199Y100D01*
X2375Y100D02*
X2385Y100D01*
X2472Y100D02*
X2482Y100D01*
X2529Y100D02*
X2536Y100D01*
X0Y99D02*
X13Y99D01*
X92Y99D02*
X102Y99D01*
X189Y99D02*
X199Y99D01*
X2375Y99D02*
X2385Y99D01*
X2472Y99D02*
X2482Y99D01*
X2529Y99D02*
X2536Y99D01*
X0Y98D02*
X13Y98D01*
X93Y98D02*
X103Y98D01*
X188Y98D02*
X198Y98D01*
X2376Y98D02*
X2386Y98D01*
X2471Y98D02*
X2481Y98D01*
X2529Y98D02*
X2536Y98D01*
X0Y97D02*
X13Y97D01*
X93Y97D02*
X104Y97D01*
X188Y97D02*
X198Y97D01*
X2376Y97D02*
X2386Y97D01*
X2470Y97D02*
X2481Y97D01*
X2529Y97D02*
X2536Y97D01*
X0Y96D02*
X13Y96D01*
X94Y96D02*
X104Y96D01*
X187Y96D02*
X197Y96D01*
X2377Y96D02*
X2387Y96D01*
X2470Y96D02*
X2480Y96D01*
X2529Y96D02*
X2536Y96D01*
X0Y95D02*
X13Y95D01*
X94Y95D02*
X105Y95D01*
X186Y95D02*
X197Y95D01*
X2377Y95D02*
X2388Y95D01*
X2469Y95D02*
X2480Y95D01*
X2529Y95D02*
X2536Y95D01*
X0Y94D02*
X13Y94D01*
X95Y94D02*
X106Y94D01*
X186Y94D02*
X196Y94D01*
X2378Y94D02*
X2389Y94D01*
X2468Y94D02*
X2479Y94D01*
X2529Y94D02*
X2536Y94D01*
X0Y93D02*
X13Y93D01*
X96Y93D02*
X106Y93D01*
X185Y93D02*
X196Y93D01*
X2378Y93D02*
X2389Y93D01*
X2468Y93D02*
X2479Y93D01*
X2529Y93D02*
X2536Y93D01*
X0Y92D02*
X13Y92D01*
X96Y92D02*
X107Y92D01*
X184Y92D02*
X195Y92D01*
X2379Y92D02*
X2390Y92D01*
X2467Y92D02*
X2478Y92D01*
X2529Y92D02*
X2536Y92D01*
X0Y91D02*
X13Y91D01*
X97Y91D02*
X108Y91D01*
X183Y91D02*
X194Y91D01*
X2380Y91D02*
X2391Y91D01*
X2466Y91D02*
X2477Y91D01*
X2529Y91D02*
X2536Y91D01*
X0Y90D02*
X13Y90D01*
X98Y90D02*
X109Y90D01*
X182Y90D02*
X194Y90D01*
X2380Y90D02*
X2392Y90D01*
X2465Y90D02*
X2477Y90D01*
X2529Y90D02*
X2536Y90D01*
X0Y89D02*
X14Y89D01*
X98Y89D02*
X110Y89D01*
X181Y89D02*
X193Y89D01*
X2381Y89D02*
X2393Y89D01*
X2464Y89D02*
X2476Y89D01*
X2529Y89D02*
X2536Y89D01*
X0Y88D02*
X14Y88D01*
X99Y88D02*
X111Y88D01*
X180Y88D02*
X192Y88D01*
X2382Y88D02*
X2394Y88D01*
X2463Y88D02*
X2475Y88D01*
X2529Y88D02*
X2536Y88D01*
X0Y87D02*
X14Y87D01*
X100Y87D02*
X112Y87D01*
X179Y87D02*
X191Y87D01*
X2383Y87D02*
X2395Y87D01*
X2462Y87D02*
X2474Y87D01*
X2529Y87D02*
X2536Y87D01*
X0Y86D02*
X14Y86D01*
X101Y86D02*
X113Y86D01*
X178Y86D02*
X191Y86D01*
X2383Y86D02*
X2396Y86D01*
X2461Y86D02*
X2474Y86D01*
X2529Y86D02*
X2536Y86D01*
X0Y85D02*
X14Y85D01*
X101Y85D02*
X114Y85D01*
X177Y85D02*
X190Y85D01*
X2384Y85D02*
X2397Y85D01*
X2460Y85D02*
X2473Y85D01*
X2529Y85D02*
X2536Y85D01*
X0Y84D02*
X14Y84D01*
X102Y84D02*
X116Y84D01*
X176Y84D02*
X189Y84D01*
X2385Y84D02*
X2399Y84D01*
X2458Y84D02*
X2472Y84D01*
X2529Y84D02*
X2536Y84D01*
X0Y83D02*
X14Y83D01*
X103Y83D02*
X117Y83D01*
X174Y83D02*
X188Y83D01*
X2386Y83D02*
X2400Y83D01*
X2457Y83D02*
X2471Y83D01*
X2529Y83D02*
X2536Y83D01*
X0Y82D02*
X15Y82D01*
X104Y82D02*
X119Y82D01*
X173Y82D02*
X187Y82D01*
X2387Y82D02*
X2401Y82D01*
X2456Y82D02*
X2470Y82D01*
X2529Y82D02*
X2536Y82D01*
X0Y81D02*
X15Y81D01*
X105Y81D02*
X120Y81D01*
X171Y81D02*
X186Y81D01*
X2388Y81D02*
X2403Y81D01*
X2454Y81D02*
X2469Y81D01*
X2529Y81D02*
X2536Y81D01*
X0Y80D02*
X15Y80D01*
X106Y80D02*
X122Y80D01*
X169Y80D02*
X185Y80D01*
X2389Y80D02*
X2405Y80D01*
X2452Y80D02*
X2468Y80D01*
X2529Y80D02*
X2536Y80D01*
X0Y79D02*
X15Y79D01*
X107Y79D02*
X124Y79D01*
X167Y79D02*
X184Y79D01*
X2390Y79D02*
X2407Y79D01*
X2450Y79D02*
X2467Y79D01*
X2529Y79D02*
X2536Y79D01*
X0Y78D02*
X15Y78D01*
X109Y78D02*
X127Y78D01*
X165Y78D02*
X183Y78D01*
X2391Y78D02*
X2409Y78D01*
X2448Y78D02*
X2466Y78D01*
X2529Y78D02*
X2536Y78D01*
X0Y77D02*
X16Y77D01*
X110Y77D02*
X129Y77D01*
X162Y77D02*
X181Y77D01*
X2393Y77D02*
X2412Y77D01*
X2445Y77D02*
X2464Y77D01*
X2529Y77D02*
X2536Y77D01*
X0Y76D02*
X16Y76D01*
X111Y76D02*
X133Y76D01*
X158Y76D02*
X180Y76D01*
X2394Y76D02*
X2416Y76D01*
X2441Y76D02*
X2463Y76D01*
X2529Y76D02*
X2536Y76D01*
X0Y75D02*
X16Y75D01*
X113Y75D02*
X138Y75D01*
X153Y75D02*
X179Y75D01*
X2395Y75D02*
X2421Y75D01*
X2436Y75D02*
X2462Y75D01*
X2529Y75D02*
X2536Y75D01*
X0Y74D02*
X16Y74D01*
X114Y74D02*
X177Y74D01*
X2397Y74D02*
X2460Y74D01*
X2529Y74D02*
X2536Y74D01*
X0Y73D02*
X17Y73D01*
X116Y73D02*
X176Y73D01*
X2398Y73D02*
X2459Y73D01*
X2529Y73D02*
X2536Y73D01*
X0Y72D02*
X17Y72D01*
X117Y72D02*
X174Y72D01*
X2400Y72D02*
X2457Y72D01*
X2529Y72D02*
X2536Y72D01*
X0Y71D02*
X17Y71D01*
X119Y71D02*
X172Y71D01*
X2402Y71D02*
X2455Y71D01*
X2529Y71D02*
X2536Y71D01*
X0Y70D02*
X18Y70D01*
X121Y70D02*
X170Y70D01*
X2404Y70D02*
X2453Y70D01*
X2529Y70D02*
X2536Y70D01*
X0Y69D02*
X18Y69D01*
X123Y69D02*
X168Y69D01*
X2406Y69D02*
X2451Y69D01*
X2529Y69D02*
X2536Y69D01*
X0Y68D02*
X7Y68D01*
X9Y68D02*
X18Y68D01*
X126Y68D02*
X166Y68D01*
X2408Y68D02*
X2449Y68D01*
X2529Y68D02*
X2536Y68D01*
X0Y67D02*
X7Y67D01*
X9Y67D02*
X19Y67D01*
X128Y67D02*
X163Y67D01*
X2411Y67D02*
X2446Y67D01*
X2529Y67D02*
X2536Y67D01*
X0Y66D02*
X7Y66D01*
X9Y66D02*
X19Y66D01*
X132Y66D02*
X159Y66D01*
X2415Y66D02*
X2442Y66D01*
X2529Y66D02*
X2536Y66D01*
X0Y65D02*
X7Y65D01*
X10Y65D02*
X19Y65D01*
X136Y65D02*
X155Y65D01*
X2419Y65D02*
X2438Y65D01*
X2529Y65D02*
X2536Y65D01*
X0Y64D02*
X7Y64D01*
X10Y64D02*
X20Y64D01*
X2529Y64D02*
X2536Y64D01*
X0Y63D02*
X7Y63D01*
X10Y63D02*
X20Y63D01*
X2529Y63D02*
X2536Y63D01*
X0Y62D02*
X7Y62D01*
X11Y62D02*
X20Y62D01*
X2529Y62D02*
X2536Y62D01*
X0Y61D02*
X7Y61D01*
X11Y61D02*
X21Y61D01*
X2529Y61D02*
X2536Y61D01*
X0Y60D02*
X7Y60D01*
X11Y60D02*
X21Y60D01*
X2529Y60D02*
X2536Y60D01*
X0Y59D02*
X7Y59D01*
X12Y59D02*
X22Y59D01*
X2529Y59D02*
X2536Y59D01*
X0Y58D02*
X7Y58D01*
X12Y58D02*
X22Y58D01*
X2529Y58D02*
X2536Y58D01*
X0Y57D02*
X7Y57D01*
X13Y57D02*
X23Y57D01*
X2529Y57D02*
X2536Y57D01*
X0Y56D02*
X7Y56D01*
X13Y56D02*
X23Y56D01*
X2529Y56D02*
X2536Y56D01*
X0Y55D02*
X7Y55D01*
X14Y55D02*
X23Y55D01*
X2529Y55D02*
X2536Y55D01*
X0Y54D02*
X7Y54D01*
X14Y54D02*
X24Y54D01*
X2529Y54D02*
X2536Y54D01*
X0Y53D02*
X7Y53D01*
X14Y53D02*
X24Y53D01*
X2529Y53D02*
X2536Y53D01*
X0Y52D02*
X7Y52D01*
X15Y52D02*
X25Y52D01*
X2529Y52D02*
X2536Y52D01*
X0Y51D02*
X7Y51D01*
X15Y51D02*
X25Y51D01*
X2529Y51D02*
X2536Y51D01*
X0Y50D02*
X7Y50D01*
X16Y50D02*
X26Y50D01*
X2529Y50D02*
X2536Y50D01*
X0Y49D02*
X7Y49D01*
X16Y49D02*
X27Y49D01*
X2529Y49D02*
X2536Y49D01*
X0Y48D02*
X7Y48D01*
X17Y48D02*
X27Y48D01*
X2529Y48D02*
X2536Y48D01*
X0Y47D02*
X7Y47D01*
X17Y47D02*
X28Y47D01*
X2529Y47D02*
X2536Y47D01*
X0Y46D02*
X7Y46D01*
X18Y46D02*
X28Y46D01*
X2529Y46D02*
X2536Y46D01*
X0Y45D02*
X7Y45D01*
X19Y45D02*
X29Y45D01*
X2529Y45D02*
X2536Y45D01*
X0Y44D02*
X7Y44D01*
X19Y44D02*
X29Y44D01*
X2529Y44D02*
X2536Y44D01*
X0Y43D02*
X7Y43D01*
X20Y43D02*
X30Y43D01*
X2529Y43D02*
X2536Y43D01*
X0Y42D02*
X7Y42D01*
X20Y42D02*
X31Y42D01*
X2529Y42D02*
X2536Y42D01*
X0Y41D02*
X7Y41D01*
X21Y41D02*
X31Y41D01*
X2529Y41D02*
X2536Y41D01*
X0Y40D02*
X7Y40D01*
X21Y40D02*
X32Y40D01*
X2529Y40D02*
X2536Y40D01*
X0Y39D02*
X7Y39D01*
X22Y39D02*
X33Y39D01*
X2529Y39D02*
X2536Y39D01*
X0Y38D02*
X7Y38D01*
X23Y38D02*
X33Y38D01*
X2529Y38D02*
X2536Y38D01*
X0Y37D02*
X7Y37D01*
X23Y37D02*
X34Y37D01*
X2529Y37D02*
X2536Y37D01*
X0Y36D02*
X7Y36D01*
X24Y36D02*
X35Y36D01*
X2529Y36D02*
X2536Y36D01*
X0Y35D02*
X7Y35D01*
X25Y35D02*
X36Y35D01*
X2529Y35D02*
X2536Y35D01*
X0Y34D02*
X7Y34D01*
X25Y34D02*
X36Y34D01*
X2529Y34D02*
X2536Y34D01*
X0Y33D02*
X7Y33D01*
X26Y33D02*
X37Y33D01*
X2529Y33D02*
X2536Y33D01*
X0Y32D02*
X7Y32D01*
X27Y32D02*
X38Y32D01*
X2529Y32D02*
X2536Y32D01*
X0Y31D02*
X7Y31D01*
X28Y31D02*
X39Y31D01*
X2529Y31D02*
X2536Y31D01*
X0Y30D02*
X7Y30D01*
X28Y30D02*
X40Y30D01*
X2529Y30D02*
X2536Y30D01*
X0Y29D02*
X7Y29D01*
X29Y29D02*
X41Y29D01*
X2529Y29D02*
X2536Y29D01*
X0Y28D02*
X7Y28D01*
X30Y28D02*
X42Y28D01*
X2529Y28D02*
X2536Y28D01*
X0Y27D02*
X7Y27D01*
X31Y27D02*
X42Y27D01*
X2529Y27D02*
X2536Y27D01*
X0Y26D02*
X7Y26D01*
X31Y26D02*
X43Y26D01*
X2529Y26D02*
X2536Y26D01*
X0Y25D02*
X7Y25D01*
X32Y25D02*
X44Y25D01*
X2529Y25D02*
X2536Y25D01*
X0Y24D02*
X7Y24D01*
X33Y24D02*
X45Y24D01*
X2529Y24D02*
X2536Y24D01*
X0Y23D02*
X7Y23D01*
X34Y23D02*
X46Y23D01*
X2529Y23D02*
X2536Y23D01*
X0Y22D02*
X7Y22D01*
X35Y22D02*
X47Y22D01*
X2529Y22D02*
X2536Y22D01*
X0Y21D02*
X7Y21D01*
X36Y21D02*
X48Y21D01*
X2529Y21D02*
X2536Y21D01*
X0Y20D02*
X7Y20D01*
X37Y20D02*
X49Y20D01*
X2529Y20D02*
X2536Y20D01*
X0Y19D02*
X7Y19D01*
X38Y19D02*
X51Y19D01*
X2529Y19D02*
X2536Y19D01*
X0Y18D02*
X7Y18D01*
X39Y18D02*
X52Y18D01*
X2529Y18D02*
X2536Y18D01*
X0Y17D02*
X7Y17D01*
X40Y17D02*
X53Y17D01*
X2529Y17D02*
X2536Y17D01*
X0Y16D02*
X7Y16D01*
X41Y16D02*
X54Y16D01*
X2529Y16D02*
X2536Y16D01*
X0Y15D02*
X7Y15D01*
X42Y15D02*
X55Y15D01*
X2529Y15D02*
X2536Y15D01*
X0Y14D02*
X7Y14D01*
X43Y14D02*
X57Y14D01*
X2529Y14D02*
X2536Y14D01*
X0Y13D02*
X7Y13D01*
X44Y13D02*
X58Y13D01*
X2529Y13D02*
X2536Y13D01*
X0Y12D02*
X7Y12D01*
X45Y12D02*
X59Y12D01*
X2529Y12D02*
X2536Y12D01*
X0Y11D02*
X7Y11D01*
X46Y11D02*
X61Y11D01*
X2529Y11D02*
X2536Y11D01*
X0Y10D02*
X7Y10D01*
X47Y10D02*
X62Y10D01*
X2529Y10D02*
X2536Y10D01*
X0Y9D02*
X2536Y9D01*
X0Y8D02*
X2536Y8D01*
X0Y7D02*
X2536Y7D01*
X0Y6D02*
X2536Y6D01*
X0Y5D02*
X2536Y5D01*
X0Y4D02*
X2536Y4D01*
X0Y3D02*
X2536Y3D01*
X0Y2D02*
X2536Y2D01*
X59Y1D02*
X78Y1D01*
X61Y0D02*
X81Y0D01*
D02*
G04 End of Silk1*
M02*