; NON-PLATED HOLES START AT T1
; THROUGH (PLATED) HOLES START AT T100
M48
INCH
T100C0.035000
T101C0.044139
T102C0.044111
T103C0.028000
T104C0.038000
%
T100
X015011Y005966
X005011Y005966
X011011Y005966
X005011Y009966
T101
X019377Y021173
X012377Y021173
X007377Y020173
X014377Y020173
X019377Y020173
X007377Y021173
X012377Y020173
X014377Y021173
T102
X010377Y021173
X022377Y021173
X016377Y020173
X020377Y020173
X016377Y021173
X020377Y021173
X008377Y020173
X017377Y020173
X008377Y021173
X017377Y021173
X011377Y020173
X011377Y021173
X003377Y020173
X005377Y020173
X018377Y020173
X003377Y021173
X005377Y021173
X018377Y021173
X021377Y020173
X021377Y021173
X009377Y020173
X009377Y021173
X004377Y020173
X006377Y020173
X013377Y020173
X015377Y020173
X004377Y021173
X006377Y021173
X013377Y021173
X015377Y021173
X010377Y020173
X022377Y020173
T103
X022010Y010969
X022010Y011969
X022010Y008969
X022010Y009969
T104
X007011Y009966
X008011Y009966
T00
M30
