G04 MADE WITH FRITZING*
G04 WWW.FRITZING.ORG*
G04 DOUBLE SIDED*
G04 HOLES PLATED*
G04 CONTOUR ON CENTER OF CONTOUR VECTOR*
%ASAXBY*%
%FSLAX23Y23*%
%MOIN*%
%OFA0B0*%
%SFA1.0B1.0*%
%ADD10C,0.071889*%
%ADD11C,0.071917*%
%ADD12C,0.060000*%
%ADD13C,0.075000*%
%ADD14C,0.078000*%
%ADD15R,0.055556X0.055556*%
%ADD16R,0.078000X0.078000*%
%ADD17C,0.024000*%
%LNCOPPER0*%
G90*
G70*
G54D10*
X338Y2017D03*
X438Y2017D03*
X538Y2017D03*
X638Y2017D03*
G54D11*
X738Y2017D03*
G54D10*
X838Y2017D03*
X938Y2017D03*
X1038Y2017D03*
X1138Y2017D03*
G54D11*
X1238Y2017D03*
G54D10*
X1338Y2017D03*
G54D11*
X1438Y2017D03*
G54D10*
X1538Y2017D03*
X1638Y2017D03*
X1738Y2017D03*
X1838Y2017D03*
G54D11*
X1938Y2017D03*
G54D10*
X2038Y2017D03*
X2138Y2017D03*
X2238Y2017D03*
X2238Y2117D03*
X2138Y2117D03*
X2038Y2117D03*
G54D11*
X1938Y2117D03*
G54D10*
X1838Y2117D03*
X1738Y2117D03*
X1638Y2117D03*
X1538Y2117D03*
G54D11*
X1438Y2117D03*
G54D10*
X1338Y2117D03*
G54D11*
X1238Y2117D03*
G54D10*
X1138Y2117D03*
X1038Y2117D03*
X938Y2117D03*
X838Y2117D03*
G54D11*
X738Y2117D03*
G54D10*
X638Y2117D03*
X538Y2117D03*
X438Y2117D03*
X338Y2117D03*
G54D12*
X2201Y897D03*
X2201Y997D03*
X2201Y1097D03*
X2201Y1197D03*
G54D13*
X1101Y597D03*
X1501Y597D03*
X501Y997D03*
X501Y597D03*
G54D14*
X701Y997D03*
X801Y997D03*
G54D15*
X2201Y997D03*
X2200Y898D03*
X2200Y1097D03*
X2200Y1194D03*
G54D16*
X701Y997D03*
G54D17*
X530Y997D02*
X671Y997D01*
D02*
X737Y1984D02*
X702Y1027D01*
D02*
X1800Y597D02*
X1800Y1097D01*
D02*
X1800Y1097D02*
X2162Y1097D01*
D02*
X1530Y597D02*
X1800Y597D01*
D02*
X1101Y1496D02*
X1324Y1987D01*
D02*
X1101Y625D02*
X1101Y1496D01*
D02*
X2237Y1194D02*
X2238Y1984D01*
D02*
X2239Y1194D02*
X2237Y1194D01*
D02*
X1429Y1985D02*
X1301Y1496D01*
D02*
X1301Y1496D02*
X1302Y396D01*
D02*
X1302Y396D02*
X2000Y396D01*
D02*
X2000Y396D02*
X2186Y862D01*
D02*
X2240Y997D02*
X2299Y997D01*
D02*
X2299Y997D02*
X2299Y297D01*
D02*
X2299Y297D02*
X101Y296D01*
D02*
X101Y296D02*
X101Y1897D01*
D02*
X101Y1897D02*
X314Y2095D01*
D02*
X530Y597D02*
X1073Y597D01*
D02*
X801Y1296D02*
X801Y1027D01*
D02*
X801Y1797D02*
X801Y1296D01*
D02*
X1101Y1797D02*
X801Y1797D01*
D02*
X1220Y1989D02*
X1101Y1797D01*
G04 End of Copper0*
M02*