G04 MADE WITH FRITZING*
G04 WWW.FRITZING.ORG*
G04 DOUBLE SIDED*
G04 HOLES PLATED*
G04 CONTOUR ON CENTER OF CONTOUR VECTOR*
%ASAXBY*%
%FSLAX23Y23*%
%MOIN*%
%OFA0B0*%
%SFA1.0B1.0*%
%ADD10C,0.081889*%
%ADD11C,0.081917*%
%ADD12C,0.070000*%
%ADD13C,0.085000*%
%ADD14C,0.088000*%
%ADD15R,0.065556X0.065556*%
%ADD16R,0.088000X0.088000*%
%LNMASK0*%
G90*
G70*
G54D10*
X338Y2017D03*
X438Y2017D03*
X538Y2017D03*
X638Y2017D03*
G54D11*
X738Y2017D03*
G54D10*
X838Y2017D03*
X938Y2017D03*
X1038Y2017D03*
X1138Y2017D03*
G54D11*
X1238Y2017D03*
G54D10*
X1338Y2017D03*
G54D11*
X1438Y2017D03*
G54D10*
X1538Y2017D03*
X1638Y2017D03*
X1738Y2017D03*
X1838Y2017D03*
G54D11*
X1938Y2017D03*
G54D10*
X2038Y2017D03*
X2138Y2017D03*
X2238Y2017D03*
X2238Y2117D03*
X2138Y2117D03*
X2038Y2117D03*
G54D11*
X1938Y2117D03*
G54D10*
X1838Y2117D03*
X1738Y2117D03*
X1638Y2117D03*
X1538Y2117D03*
G54D11*
X1438Y2117D03*
G54D10*
X1338Y2117D03*
G54D11*
X1238Y2117D03*
G54D10*
X1138Y2117D03*
X1038Y2117D03*
X938Y2117D03*
X838Y2117D03*
G54D11*
X738Y2117D03*
G54D10*
X638Y2117D03*
X538Y2117D03*
X438Y2117D03*
X338Y2117D03*
G54D12*
X2201Y897D03*
X2201Y997D03*
X2201Y1097D03*
X2201Y1197D03*
G54D13*
X1101Y597D03*
X1501Y597D03*
X501Y997D03*
X501Y597D03*
G54D14*
X701Y997D03*
X801Y997D03*
G54D15*
X2201Y997D03*
X2200Y898D03*
X2200Y1097D03*
X2200Y1194D03*
G54D16*
X701Y997D03*
G04 End of Mask0*
M02*